<mxfile modified="2022-02-06T19:35:38.633Z" host="app.diagrams.net" agent="5.0 (X11)" etag="c2dCkXA10zkicSH7ocHr" version="16.5.3" type="github">
  <diagram id="7gcUSTIZ7YSJ5vT40chW" name="Page-1">
    <mxGraphModel dx="1929" dy="1133" grid="0" gridSize="10" guides="1" tooltips="1" connect="1" arrows="1" fold="1" page="1" pageScale="1" pageWidth="1169" pageHeight="827" math="0" shadow="0">
      <root>
        <mxCell id="0" />
        <mxCell id="1" parent="0" />
        <mxCell id="x8RBoShG9JMl1PIIcemX-46" value="" style="shape=image;verticalLabelPosition=bottom;labelBackgroundColor=#ffffff;verticalAlign=top;aspect=fixed;imageAspect=0;image=data:image/svg+xml,PHN2ZyB4bWxuczpjYz0iaHR0cDovL2NyZWF0aXZlY29tbW9ucy5vcmcvbnMjIiB4bWxuczpkYz0iaHR0cDovL3B1cmwub3JnL2RjL2VsZW1lbnRzLzEuMS8iIHhtbG5zOmlua3NjYXBlPSJodHRwOi8vd3d3Lmlua3NjYXBlLm9yZy9uYW1lc3BhY2VzL2lua3NjYXBlIiB4bWxuczpyZGY9Imh0dHA6Ly93d3cudzMub3JnLzE5OTkvMDIvMjItcmRmLXN5bnRheC1ucyMiIHhtbG5zOnNvZGlwb2RpPSJodHRwOi8vc29kaXBvZGkuc291cmNlZm9yZ2UubmV0L0RURC9zb2RpcG9kaS0wLmR0ZCIgeG1sbnM6c3ZnPSJodHRwOi8vd3d3LnczLm9yZy8yMDAwL3N2ZyIgeG1sbnM9Imh0dHA6Ly93d3cudzMub3JnLzIwMDAvc3ZnIiB4bWxuczp4bGluaz0iaHR0cDovL3d3dy53My5vcmcvMTk5OS94bGluayIgdmVyc2lvbj0iMS4xIiBpZD0ic3ZnNTU2MzQiIGlua3NjYXBlOnZlcnNpb249IjAuOTIuMyAoMjQwNTU0NiwgMjAxOC0wMy0xMSkiIHNvZGlwb2RpOmRvY25hbWU9ImF6dXJlX2Nsb3VkLnN2ZyIgeD0iMHB4IiB5PSIwcHgiIHZpZXdCb3g9IjAgMCAxMzMuOTggNjkuMTUiIHN0eWxlPSJlbmFibGUtYmFja2dyb3VuZDpuZXcgMCAwIDEzMy45OCA2OS4xNTsiIHhtbDpzcGFjZT0icHJlc2VydmUiPiYjeGE7PHNvZGlwb2RpOm5hbWVkdmlldyBib3JkZXJjb2xvcj0iIzY2NjY2NiIgYm9yZGVyb3BhY2l0eT0iMSIgZml0LW1hcmdpbi1ib3R0b209IjAiIGZpdC1tYXJnaW4tbGVmdD0iMCIgZml0LW1hcmdpbi1yaWdodD0iMCIgZml0LW1hcmdpbi10b3A9IjAiIGdyaWR0b2xlcmFuY2U9IjEwIiBndWlkZXRvbGVyYW5jZT0iMTAiIGlkPSJuYW1lZHZpZXc1NTYzNiIgaW5rc2NhcGU6Y3VycmVudC1sYXllcj0ic3ZnNTU2MzQiIGlua3NjYXBlOmN4PSIxMTYuNjE3MDEiIGlua3NjYXBlOmN5PSIxOS42MzE3MDUiIGlua3NjYXBlOnBhZ2VvcGFjaXR5PSIwIiBpbmtzY2FwZTpwYWdlc2hhZG93PSIyIiBpbmtzY2FwZTp3aW5kb3ctaGVpZ2h0PSIxMDE3IiBpbmtzY2FwZTp3aW5kb3ctbWF4aW1pemVkPSIxIiBpbmtzY2FwZTp3aW5kb3ctd2lkdGg9IjE5MjAiIGlua3NjYXBlOndpbmRvdy14PSItOCIgaW5rc2NhcGU6d2luZG93LXk9Ii04IiBpbmtzY2FwZTp6b29tPSI0LjYwMTQ4ODgiIG9iamVjdHRvbGVyYW5jZT0iMTAiIHBhZ2Vjb2xvcj0iI2ZmZmZmZiIgc2hvd2dyaWQ9ImZhbHNlIj4mI3hhOwk8L3NvZGlwb2RpOm5hbWVkdmlldz4mI3hhOzxnIGlkPSJnNTU2MzIiIHRyYW5zZm9ybT0idHJhbnNsYXRlKC0wLjc4MDQ2OTA4LC0wLjc1NzU4NjY2KSI+JiN4YTsJPHRpdGxlIGlkPSJ0aXRsZTU1NjI1Ij5QYWdlLTE8L3RpdGxlPiYjeGE7CTxnIGlkPSJzaGFwZTQyMzItMSIgdHJhbnNmb3JtPSJ0cmFuc2xhdGUoMC44NzcwMDMsLTAuNzUwMDYzKSI+JiN4YTsJCTx0aXRsZSBpZD0idGl0bGU1NTYyNyI+QXp1cmUgQ2xvdWQ8L3RpdGxlPiYjeGE7CQk8cGF0aCBpZD0icGF0aDU1NjI5IiBpbmtzY2FwZTpjb25uZWN0b3ItY3VydmF0dXJlPSIwIiBzdHlsZT0iZmlsbDojODBERUY5O2ZpbGwtb3BhY2l0eTowLjc7IiBkPSJNMTEyLjIsMjYuNzUgICAgYy0yLjM3LTE2LjEzLTE3LjM3LTI3LjMtMzMuNS0yNC45M0M2Ni4xNCwzLjY2LDU2LjE2LDEzLjMzLDUzLjkyLDI1LjgzYy04LjUzLTcuMS0yMS4yLTUuOTQtMjguMywyLjU5ICAgIGMtMS44NSwyLjIyLTMuMiw0LjgyLTMuOTUsNy42MmMtOS40Mi0yLjMyLTE4Ljk0LDMuNDMtMjEuMjYsMTIuODVzMy40MywxOC45NCwxMi44NSwyMS4yNmMxLjM4LDAuMzQsMi43OSwwLjUxLDQuMjEsMC41MWg5OC44MiAgICBjMTAuMDMtMi4wNCwxNy41OC0xMS4zNCwxNy41OC0yMS45NkMxMzMuODgsMzYuNjgsMTI0LjIyLDI2LjksMTEyLjIsMjYuNzV6Ii8+JiN4YTsJPC9nPiYjeGE7PC9nPiYjeGE7PC9zdmc+;" vertex="1" parent="1">
          <mxGeometry x="698" y="352" width="388.4" height="200" as="geometry" />
        </mxCell>
        <mxCell id="SZY12_XKgGBlkoAp8IEY-12" style="edgeStyle=orthogonalEdgeStyle;rounded=0;orthogonalLoop=1;jettySize=auto;html=1;strokeColor=#808080;" parent="1" source="SZY12_XKgGBlkoAp8IEY-1" target="SZY12_XKgGBlkoAp8IEY-5" edge="1">
          <mxGeometry relative="1" as="geometry" />
        </mxCell>
        <mxCell id="x8RBoShG9JMl1PIIcemX-35" style="edgeStyle=orthogonalEdgeStyle;rounded=0;orthogonalLoop=1;jettySize=auto;html=1;exitX=0.25;exitY=0;exitDx=0;exitDy=0;entryX=0.42;entryY=1.033;entryDx=0;entryDy=0;entryPerimeter=0;" edge="1" parent="1" source="SZY12_XKgGBlkoAp8IEY-1" target="x8RBoShG9JMl1PIIcemX-23">
          <mxGeometry relative="1" as="geometry" />
        </mxCell>
        <mxCell id="x8RBoShG9JMl1PIIcemX-38" style="edgeStyle=orthogonalEdgeStyle;rounded=0;orthogonalLoop=1;jettySize=auto;html=1;" edge="1" parent="1" source="SZY12_XKgGBlkoAp8IEY-1" target="SZY12_XKgGBlkoAp8IEY-11">
          <mxGeometry relative="1" as="geometry" />
        </mxCell>
        <mxCell id="SZY12_XKgGBlkoAp8IEY-1" value="" style="shape=image;verticalLabelPosition=bottom;labelBackgroundColor=#ffffff;verticalAlign=top;aspect=fixed;imageAspect=0;image=data:image/svg+xml,PHN2ZyB4bWxuczpjYz0iaHR0cDovL2NyZWF0aXZlY29tbW9ucy5vcmcvbnMjIiB4bWxuczpkYz0iaHR0cDovL3B1cmwub3JnL2RjL2VsZW1lbnRzLzEuMS8iIHhtbG5zOmlua3NjYXBlPSJodHRwOi8vd3d3Lmlua3NjYXBlLm9yZy9uYW1lc3BhY2VzL2lua3NjYXBlIiB4bWxuczpyZGY9Imh0dHA6Ly93d3cudzMub3JnLzE5OTkvMDIvMjItcmRmLXN5bnRheC1ucyMiIHhtbG5zOnNvZGlwb2RpPSJodHRwOi8vc29kaXBvZGkuc291cmNlZm9yZ2UubmV0L0RURC9zb2RpcG9kaS0wLmR0ZCIgeG1sbnM6c3ZnPSJodHRwOi8vd3d3LnczLm9yZy8yMDAwL3N2ZyIgeG1sbnM9Imh0dHA6Ly93d3cudzMub3JnLzIwMDAvc3ZnIiB4bWxuczp4bGluaz0iaHR0cDovL3d3dy53My5vcmcvMTk5OS94bGluayIgdmVyc2lvbj0iMS4xIiBpZD0ic3ZnNTU0NTQiIGlua3NjYXBlOnZlcnNpb249IjAuOTIuMyAoMjQwNTU0NiwgMjAxOC0wMy0xMSkiIHNvZGlwb2RpOmRvY25hbWU9ImVzcG9ydF9jc3Yuc3ZnIiB4PSIwcHgiIHk9IjBweCIgdmlld0JveD0iMCAwIDEyOS40MyAxMzIuOTQiIHN0eWxlPSJlbmFibGUtYmFja2dyb3VuZDpuZXcgMCAwIDEyOS40MyAxMzIuOTQ7IiB4bWw6c3BhY2U9InByZXNlcnZlIj4mI3hhOzxzb2RpcG9kaTpuYW1lZHZpZXcgYm9yZGVyY29sb3I9IiM2NjY2NjYiIGJvcmRlcm9wYWNpdHk9IjEiIGZpdC1tYXJnaW4tYm90dG9tPSIwIiBmaXQtbWFyZ2luLWxlZnQ9IjAiIGZpdC1tYXJnaW4tcmlnaHQ9IjAiIGZpdC1tYXJnaW4tdG9wPSIwIiBncmlkdG9sZXJhbmNlPSIxMCIgZ3VpZGV0b2xlcmFuY2U9IjEwIiBpZD0ibmFtZWR2aWV3NTU0NTYiIGlua3NjYXBlOmN1cnJlbnQtbGF5ZXI9InN2ZzU1NDU0IiBpbmtzY2FwZTpjeD0iOTUuODk3MTgzIiBpbmtzY2FwZTpjeT0iNDIuNTIwNDk3IiBpbmtzY2FwZTpwYWdlb3BhY2l0eT0iMCIgaW5rc2NhcGU6cGFnZXNoYWRvdz0iMiIgaW5rc2NhcGU6d2luZG93LWhlaWdodD0iMTAxNyIgaW5rc2NhcGU6d2luZG93LW1heGltaXplZD0iMSIgaW5rc2NhcGU6d2luZG93LXdpZHRoPSIxOTIwIiBpbmtzY2FwZTp3aW5kb3cteD0iLTgiIGlua3NjYXBlOndpbmRvdy15PSItOCIgaW5rc2NhcGU6em9vbT0iMS45ODgwODg2IiBvYmplY3R0b2xlcmFuY2U9IjEwIiBwYWdlY29sb3I9IiNmZmZmZmYiIHNob3dncmlkPSJmYWxzZSI+JiN4YTsJPC9zb2RpcG9kaTpuYW1lZHZpZXc+JiN4YTs8ZyBpZD0iZzU1NDUyIiB0cmFuc2Zvcm09InRyYW5zbGF0ZSgtMTUuMzAwMjU5LC0xNS4yOTY3KSI+JiN4YTsJPHRpdGxlIGlkPSJ0aXRsZTU1MzY3Ij5QYWdlLTE8L3RpdGxlPiYjeGE7CTxnIGlkPSJncm91cDQyMDYtMSIgdHJhbnNmb3JtPSJ0cmFuc2xhdGUoMTUuMywtMTUuMykiPiYjeGE7CQk8dGl0bGUgaWQ9InRpdGxlNTUzNjkiPkV4cG9ydCBDU1Y8L3RpdGxlPiYjeGE7CQk8ZyBpZD0ic2hhcGU0MjA3LTIiIHRyYW5zZm9ybT0idHJhbnNsYXRlKDEuNzQ5MTcsLTguNzQ1ODMpIj4mI3hhOwkJCTx0aXRsZSBpZD0idGl0bGU1NTM3MSI+U2hlZXQuNDIwNzwvdGl0bGU+JiN4YTsJCQk8cGF0aCBpZD0icGF0aDU1MzczIiBpbmtzY2FwZTpjb25uZWN0b3ItY3VydmF0dXJlPSIwIiBzdHlsZT0iZmlsbDojRkZGRkZGOyIgZD0iTTAsMTYzLjU0VjQxLjA5aDYzLjk5bDMwLjQ2LDMwLjQ2djkxLjk5ICAgICBMMCwxNjMuNTR6Ii8+JiN4YTsJCTwvZz4mI3hhOwkJPGcgaWQ9InNoYXBlNDIwOC00IiB0cmFuc2Zvcm09InRyYW5zbGF0ZSgwLC02Ljk5NjY2KSI+JiN4YTsJCQk8dGl0bGUgaWQ9InRpdGxlNTUzNzYiPlNoZWV0LjQyMDg8L3RpdGxlPiYjeGE7CQkJPHBhdGggaWQ9InBhdGg1NTM3OCIgaW5rc2NhcGU6Y29ubmVjdG9yLWN1cnZhdHVyZT0iMCIgc3R5bGU9ImZpbGw6IzQ3ODhDNzsiIGQ9Ik02NS4wMiw0MS4wOWwyOS40MywyOS40NHY4OS41MUgzLjVWNDEuMDlINjUuMDIgICAgIHogTTY2LjQ3LDM3LjZIMHYxMjUuOTRoOTcuOTVWNjkuMDhMNjYuNDcsMzcuNnoiLz4mI3hhOwkJPC9nPiYjeGE7CQk8ZyBpZD0ic2hhcGU0MjA5LTYiIHRyYW5zZm9ybT0idHJhbnNsYXRlKDY0LjcxOTEsLTk5LjcwMjUpIj4mI3hhOwkJCTx0aXRsZSBpZD0idGl0bGU1NTM4MSI+U2hlZXQuNDIwOTwvdGl0bGU+JiN4YTsJCQk8cGF0aCBpZD0icGF0aDU1MzgzIiBpbmtzY2FwZTpjb25uZWN0b3ItY3VydmF0dXJlPSIwIiBzdHlsZT0iZmlsbDojREZGMEZFOyIgZD0iTTAsMTYzLjU0di0zMS40OWgxLjAzbDMwLjQ1LDMwLjQ2djEuMDMgICAgIEwwLDE2My41NHoiLz4mI3hhOwkJPC9nPiYjeGE7CQk8ZyBpZD0ic2hhcGU0MjEwLTgiIHRyYW5zZm9ybT0idHJhbnNsYXRlKDYyLjk3LC05Ny45NTMzKSI+JiN4YTsJCQk8dGl0bGUgaWQ9InRpdGxlNTUzODYiPlNoZWV0LjQyMTA8L3RpdGxlPiYjeGE7CQkJPHBhdGggaWQ9InBhdGg1NTM4OCIgaW5rc2NhcGU6Y29ubmVjdG9yLWN1cnZhdHVyZT0iMCIgc3R5bGU9ImZpbGw6IzQ3ODhDNzsiIGQ9Ik0zLjUsMTMzLjVsMjYuNTQsMjYuNTRIMy41VjEzMy41eiBNMy41LDEyOC41NSAgICAgSDB2MzQuOTloMzQuOTh2LTMuNUwzLjUsMTI4LjU1eiIvPiYjeGE7CQk8L2c+JiN4YTsJCTxnIGlkPSJzaGFwZTQyMTEtMTAiIHRyYW5zZm9ybT0idHJhbnNsYXRlKDEzLjk5MzMsLTEwOC40NDgpIj4mI3hhOwkJCTx0aXRsZSBpZD0idGl0bGU1NTM5MSI+U2hlZXQuNDIxMTwvdGl0bGU+JiN4YTsJCQk8cGF0aCBpZD0icGF0aDU1MzkzIiBpbmtzY2FwZTpjb25uZWN0b3ItY3VydmF0dXJlPSIwIiBzdHlsZT0iZmlsbDojQjZEQ0ZFOyIgZD0iTTAsMTYzLjU0aDEzLjk5di03SDBWMTYzLjU0eiBNMjQuNDksMTU2LjU0djcgICAgIGgyMC45OXYtN0gyNC40OXoiLz4mI3hhOwkJPC9nPiYjeGE7CQk8ZyBpZD0ic2hhcGU0MjEyLTEyIiB0cmFuc2Zvcm09InRyYW5zbGF0ZSgxMy45OTMzLC05NC40NTUpIj4mI3hhOwkJCTx0aXRsZSBpZD0idGl0bGU1NTM5NiI+U2hlZXQuNDIxMjwvdGl0bGU+JiN4YTsJCQk8cGF0aCBpZD0icGF0aDU1Mzk4IiBpbmtzY2FwZTpjb25uZWN0b3ItY3VydmF0dXJlPSIwIiBzdHlsZT0iZmlsbDojQjZEQ0ZFOyIgZD0iTTAsMTYzLjU0aDEzLjk5di03SDBWMTYzLjU0eiBNMjQuNDksMTYzLjU0ICAgICBoMjAuOTl2LTdIMjQuNDlWMTYzLjU0eiIvPiYjeGE7CQk8L2c+JiN4YTsJCTxnIGlkPSJzaGFwZTQyMTMtMTQiIHRyYW5zZm9ybT0idHJhbnNsYXRlKDEzLjk5MzMsLTMxLjQ4NSkiPiYjeGE7CQkJPHRpdGxlIGlkPSJ0aXRsZTU1NDAxIj5TaGVldC40MjEzPC90aXRsZT4mI3hhOwkJCTxwYXRoIGlkPSJwYXRoNTU0MDMiIGlua3NjYXBlOmNvbm5lY3Rvci1jdXJ2YXR1cmU9IjAiIHN0eWxlPSJmaWxsOiNCNkRDRkU7IiBkPSJNMCwxNjMuNTRoMTMuOTl2LTdIMFYxNjMuNTR6IE01NS45NywxNTYuNTR2NyAgICAgaDE0di03SDU1Ljk3eiBNMjQuNDksMTYzLjU0aDIwLjk5di03SDI0LjQ5TDI0LjQ5LDE2My41NHoiLz4mI3hhOwkJPC9nPiYjeGE7CQk8ZyBpZD0ic2hhcGU0MjE0LTE2IiB0cmFuc2Zvcm09InRyYW5zbGF0ZSgxMy45OTMzLC0xNy40OTE3KSI+JiN4YTsJCQk8dGl0bGUgaWQ9InRpdGxlNTU0MDYiPlNoZWV0LjQyMTQ8L3RpdGxlPiYjeGE7CQkJPHBhdGggaWQ9InBhdGg1NTQwOCIgaW5rc2NhcGU6Y29ubmVjdG9yLWN1cnZhdHVyZT0iMCIgc3R5bGU9ImZpbGw6I0I2RENGRTsiIGQ9Ik0wLDE2My41NGgxMy45OXYtN0gwVjE2My41NHogTTU1Ljk3LDE1Ni41NHY3ICAgICBoMTR2LTdINTUuOTd6IE0yNC40OSwxNjMuNTRoMjAuOTl2LTdIMjQuNDlMMjQuNDksMTYzLjU0eiIvPiYjeGE7CQk8L2c+JiN4YTsJCTxnIGlkPSJzaGFwZTQyMTUtMTgiIHRyYW5zZm9ybT0idHJhbnNsYXRlKDMuNDk4MzMsLTQxLjk4KSI+JiN4YTsJCQk8dGl0bGUgaWQ9InRpdGxlNTU0MTEiPlNoZWV0LjQyMTU8L3RpdGxlPiYjeGE7CQkJPHJlY3QgaWQ9InJlY3Q1NTQxMyIgeD0iMCIgeT0iMTE0LjU2IiBzdHlsZT0iZmlsbDojOThDQ0ZEOyIgd2lkdGg9IjkwLjk2IiBoZWlnaHQ9IjQ4Ljk4Ii8+JiN4YTsJCTwvZz4mI3hhOwkJPGcgaWQ9InNoYXBlNDIxNi0yMCIgdHJhbnNmb3JtPSJ0cmFuc2xhdGUoODAuNDYxNiwtNDEuOTgpIj4mI3hhOwkJCTx0aXRsZSBpZD0idGl0bGU1NTQxNiI+U2hlZXQuNDIxNjwvdGl0bGU+JiN4YTsJCQk8cGF0aCBpZD0icGF0aDU1NDE4IiBpbmtzY2FwZTpjb25uZWN0b3ItY3VydmF0dXJlPSIwIiBzdHlsZT0iZmlsbDojOThDQ0ZEOyIgZD0iTTE3LjQ5LDE2My41NEgwbDEzLjk5LTMxLjQ5aDMuNVYxNjMuNTR6Ii8+JiN4YTsJCTwvZz4mI3hhOwkJPGcgaWQ9InNoYXBlNDIxNy0yMiIgdHJhbnNmb3JtPSJ0cmFuc2xhdGUoMTAuMjgxNiwtNDkuMzIzKSI+JiN4YTsJCQk8dGl0bGUgaWQ9InRpdGxlNTU0MjEiPlNoZWV0LjQyMTc8L3RpdGxlPiYjeGE7CQkJPHBhdGggaWQ9InBhdGg1NTQyMyIgaW5rc2NhcGU6Y29ubmVjdG9yLWN1cnZhdHVyZT0iMCIgc3R5bGU9ImZpbGw6I0ZGRkZGRjsiIGQ9Ik0yMC4zNywxMzcuM3YxLjloLTYuM3YtMS42MSAgICAgYzAtMi45MS0yLjY5LTMuNTEtMy44OS0zLjUxYy0xLjU2LDAtMy44OCwwLjM4LTMuODgsMy45M3YxNy4yNGMwLDAuOTgsMC4wMywzLjQ2LDMuODIsMy40NmMzLjU4LDAsMy45NS0yLjc1LDMuOTUtMy40MXYtMS42NiAgICAgaDYuM3YyLjA4YzAsMi43OC0yLjc5LDcuODItMTAsNy44MmMtMS4yLDAtMTAuMzctMC4xMy0xMC4zNy03Ljk2di0xOC41NmMwLTMuNDUsMi45NC03Ljc3LDEwLjI1LTcuNzcgICAgIEMxOS4xMywxMjkuMjUsMjAuMzcsMTM1LjQyLDIwLjM3LDEzNy4zeiBNNDEuMDYsMTI5LjI1Yy0xMC40OCwwLTEwLjgsNy45Ny0xMC44LDkuMjNjMCw2LjU1LDQuMTQsNy44Miw2Ljg1LDguNjdsNC41MSwxLjQyICAgICBjMi44MSwwLjk5LDMuNjMsMS4xOCwzLjYzLDUuMTFjMCw0LjA4LTEuMTgsNS4wMi00LjU2LDUuMDJjLTMuNiwwLTQuNDQtMi00LjQ0LTMuNDZ2LTEuNTFoLTYuM3YxLjhjMCw1Ljg0LDYuNjYsOCwxMC43NCw4ICAgICBjOC40NSwwLDEwLjg2LTQuNjMsMTAuODYtOS45YzAtNi43Ny0yLjk0LTguMDEtNi42LTkuMjNsLTQuODEtMS40N2MtMy42NS0xLjExLTMuNDMtMi4zNi0zLjQ5LTIuODJzLTAuMDktMS4wMi0wLjA5LTEuNjggICAgIGMwLTQuMzksMy4zOS00LjM2LDQuMjYtNC4zNmMzLjkxLDAsNC40NCwyLjk3LDQuNDQsNC4wOHYxLjA4aDYuMjl2LTIuMzVDNTEuNTUsMTM0LjMyLDQ4Ljc4LDEyOS4yNSw0MS4wNiwxMjkuMjV6IE03My42OSwxMjkuNTMgICAgIGwtNS4wNiwyMy41NGgtMC4xMmwtNS0yMy41NGgtNi42Nmw4Ljk0LDMzLjcyaDUuNTZsOS4wMS0zMy43Mkg3My42OXoiLz4mI3hhOwkJPC9nPiYjeGE7CQk8ZyBpZD0ic2hhcGU0MjE4LTI0IiB0cmFuc2Zvcm09InRyYW5zbGF0ZSg4MC40NjE2LC02Ljk5NjY2KSI+JiN4YTsJCQk8dGl0bGUgaWQ9InRpdGxlNTU0MjYiPlNoZWV0LjQyMTg8L3RpdGxlPiYjeGE7CQkJPHBhdGggaWQ9InBhdGg1NTQyOCIgaW5rc2NhcGU6Y29ubmVjdG9yLWN1cnZhdHVyZT0iMCIgc3R5bGU9ImZpbGw6I0ZGRkZGRjsiIGQ9Ik0xMy45OSwxMjUuMDV2MzQuOTlIMHYzLjVoMTcuNDl2LTM4LjQ5SDEzLjk5eiIvPiYjeGE7CQk8L2c+JiN4YTsJCTxnIGlkPSJzaGFwZTQyMTktMjYiIHRyYW5zZm9ybT0idHJhbnNsYXRlKDc2Ljk2MzMsLTYuOTk2NjYpIj4mI3hhOwkJCTx0aXRsZSBpZD0idGl0bGU1NTQzMSI+U2hlZXQuNDIxOTwvdGl0bGU+JiN4YTsJCQk8cGF0aCBpZD0icGF0aDU1NDMzIiBpbmtzY2FwZTpjb25uZWN0b3ItY3VydmF0dXJlPSIwIiBzdHlsZT0iZmlsbDojNDc4OEM3OyIgZD0iTTEuNzUsMTYwLjA0aDMuNWMwLjk2LDAsMS43NSwwLjc5LDEuNzUsMS43NSAgICAgcy0wLjc5LDEuNzUtMS43NSwxLjc1aC0zLjVjLTAuOTYsMC0xLjc1LTAuNzktMS43NS0xLjc1UzAuNzksMTYwLjA0LDEuNzUsMTYwLjA0eiIvPiYjeGE7CQk8L2c+JiN4YTsJCTxnIGlkPSJzaGFwZTQyMjAtMjgiIHRyYW5zZm9ybT0idHJhbnNsYXRlKDk0LjQ1NSwtNjkuOTY2NikiPiYjeGE7CQkJPHRpdGxlIGlkPSJ0aXRsZTU1NDM2Ij5TaGVldC40MjIwPC90aXRsZT4mI3hhOwkJCTxwYXRoIGlkPSJwYXRoNTU0MzgiIGlua3NjYXBlOmNvbm5lY3Rvci1jdXJ2YXR1cmU9IjAiIHN0eWxlPSJmaWxsOiM0Nzg4Qzc7IiBkPSJNMS43NSwxNTMuMDRjMC45NiwwLDEuNzUsMC43OSwxLjc1LDEuNzV2NyAgICAgYzAsMC45Ni0wLjc5LDEuNzUtMS43NSwxLjc1UzAsMTYyLjc1LDAsMTYxLjc5di03QzAsMTUzLjgzLDAuNzksMTUzLjA0LDEuNzUsMTUzLjA0eiIvPiYjeGE7CQk8L2c+JiN4YTsJCTxnIGlkPSJzaGFwZTQyMjEtMzAiIHRyYW5zZm9ybT0idHJhbnNsYXRlKDc3LjEwNjcsLTIuODAyMTYpIj4mI3hhOwkJCTx0aXRsZSBpZD0idGl0bGU1NTQ0MSI+U2hlZXQuNDIyMTwvdGl0bGU+JiN4YTsJCQk8cGF0aCBpZD0icGF0aDU1NDQzIiBpbmtzY2FwZTpjb25uZWN0b3ItY3VydmF0dXJlPSIwIiBzdHlsZT0iZmlsbDojOThDQ0ZEOyIgZD0iTTAsMTMzLjFoMTUuNnYtMjcuOThoMTcuNDl2MjcuOThoMTUuNiAgICAgbC0yNC4zNSwzMC40NEwwLDEzMy4xeiIvPiYjeGE7CQk8L2c+JiN4YTsJCTxnIGlkPSJzaGFwZTQyMjItMzIiIHRyYW5zZm9ybT0idHJhbnNsYXRlKDczLjQ2NSkiPiYjeGE7CQkJPHRpdGxlIGlkPSJ0aXRsZTU1NDQ2Ij5TaGVldC40MjIyPC90aXRsZT4mI3hhOwkJCTxwYXRoIGlkPSJwYXRoNTU0NDgiIGlua3NjYXBlOmNvbm5lY3Rvci1jdXJ2YXR1cmU9IjAiIHN0eWxlPSJmaWxsOiM0Nzg4Qzc7IiBkPSJNMzQuOTgsMTA0LjA2djI0LjQ5djMuNWgzLjVoMTAuMjFsLTIwLjcsMjUuODkgICAgIEw3LjI4LDEzMi4wNWgxMC4yMWgzLjV2LTMuNXYtMjQuNDlMMzQuOTgsMTA0LjA2eiBNMzguNDgsMTAwLjU3SDE3LjQ5djI3Ljk4SDBsMjcuOTksMzQuOTlsMjcuOTgtMzQuOTlIMzguNDhWMTAwLjU3eiIvPiYjeGE7CQk8L2c+JiN4YTsJPC9nPiYjeGE7PC9nPiYjeGE7PC9zdmc+;shadow=0;dashed=0;fontFamily=Helvetica;fontSize=12;fontColor=rgb(0, 0, 0);align=center;strokeColor=rgb(0, 0, 0);fillColor=rgb(255, 255, 255);html=1;" parent="1" vertex="1">
          <mxGeometry x="320.19" y="461.8" width="66.39" height="74.6" as="geometry" />
        </mxCell>
        <mxCell id="x8RBoShG9JMl1PIIcemX-42" style="edgeStyle=orthogonalEdgeStyle;rounded=0;orthogonalLoop=1;jettySize=auto;html=1;exitX=0.5;exitY=0;exitDx=0;exitDy=0;entryX=0.5;entryY=1;entryDx=0;entryDy=0;" edge="1" parent="1" source="SZY12_XKgGBlkoAp8IEY-5" target="x8RBoShG9JMl1PIIcemX-17">
          <mxGeometry relative="1" as="geometry" />
        </mxCell>
        <mxCell id="x8RBoShG9JMl1PIIcemX-55" style="edgeStyle=orthogonalEdgeStyle;rounded=0;orthogonalLoop=1;jettySize=auto;html=1;entryX=0;entryY=0.5;entryDx=0;entryDy=0;fontSize=18;" edge="1" parent="1" source="SZY12_XKgGBlkoAp8IEY-5" target="x8RBoShG9JMl1PIIcemX-52">
          <mxGeometry relative="1" as="geometry" />
        </mxCell>
        <mxCell id="SZY12_XKgGBlkoAp8IEY-5" value="ETL Python" style="shape=image;verticalLabelPosition=bottom;labelBackgroundColor=#ffffff;verticalAlign=top;aspect=fixed;imageAspect=0;image=data:image/svg+xml,PHN2ZyB4bWxuczpjYz0iaHR0cDovL2NyZWF0aXZlY29tbW9ucy5vcmcvbnMjIiB4bWxuczpkYz0iaHR0cDovL3B1cmwub3JnL2RjL2VsZW1lbnRzLzEuMS8iIHhtbG5zOmlua3NjYXBlPSJodHRwOi8vd3d3Lmlua3NjYXBlLm9yZy9uYW1lc3BhY2VzL2lua3NjYXBlIiB4bWxuczpyZGY9Imh0dHA6Ly93d3cudzMub3JnLzE5OTkvMDIvMjItcmRmLXN5bnRheC1ucyMiIHhtbG5zOnNvZGlwb2RpPSJodHRwOi8vc29kaXBvZGkuc291cmNlZm9yZ2UubmV0L0RURC9zb2RpcG9kaS0wLmR0ZCIgeG1sbnM6c3ZnPSJodHRwOi8vd3d3LnczLm9yZy8yMDAwL3N2ZyIgeG1sbnM9Imh0dHA6Ly93d3cudzMub3JnLzIwMDAvc3ZnIiB4bWxuczp4bGluaz0iaHR0cDovL3d3dy53My5vcmcvMTk5OS94bGluayIgdmVyc2lvbj0iMS4xIiBpZD0ic3ZnMTk2OTUxIiBpbmtzY2FwZTp2ZXJzaW9uPSIwLjkyLjMgKDI0MDU1NDYsIDIwMTgtMDMtMTEpIiBzb2RpcG9kaTpkb2NuYW1lPSJweXRob25fdG9vbHNfYW5kX3Nkay5zdmciIHg9IjBweCIgeT0iMHB4IiB2aWV3Qm94PSIwIDAgNDggNDgiIHN0eWxlPSJlbmFibGUtYmFja2dyb3VuZDpuZXcgMCAwIDQ4IDQ4OyIgeG1sOnNwYWNlPSJwcmVzZXJ2ZSI+JiN4YTs8c29kaXBvZGk6bmFtZWR2aWV3IGJvcmRlcmNvbG9yPSIjNjY2NjY2IiBib3JkZXJvcGFjaXR5PSIxIiBmaXQtbWFyZ2luLWJvdHRvbT0iMCIgZml0LW1hcmdpbi1sZWZ0PSIwIiBmaXQtbWFyZ2luLXJpZ2h0PSIwIiBmaXQtbWFyZ2luLXRvcD0iMCIgZ3JpZHRvbGVyYW5jZT0iMTAiIGd1aWRldG9sZXJhbmNlPSIxMCIgaWQ9Im5hbWVkdmlldzE5Njk1MyIgaW5rc2NhcGU6Y3VycmVudC1sYXllcj0ic3ZnMTk2OTUxIiBpbmtzY2FwZTpjeD0iMzIuMDAwMDE1IiBpbmtzY2FwZTpjeT0iMzIuMDAwNTg2IiBpbmtzY2FwZTpwYWdlb3BhY2l0eT0iMCIgaW5rc2NhcGU6cGFnZXNoYWRvdz0iMiIgaW5rc2NhcGU6d2luZG93LWhlaWdodD0iMTAxNyIgaW5rc2NhcGU6d2luZG93LW1heGltaXplZD0iMSIgaW5rc2NhcGU6d2luZG93LXdpZHRoPSIxOTIwIiBpbmtzY2FwZTp3aW5kb3cteD0iLTgiIGlua3NjYXBlOndpbmRvdy15PSItOCIgaW5rc2NhcGU6em9vbT0iMTAuMjcyOTE3IiBvYmplY3R0b2xlcmFuY2U9IjEwIiBwYWdlY29sb3I9IiNmZmZmZmYiIHNob3dncmlkPSJmYWxzZSI+JiN4YTsJPC9zb2RpcG9kaTpuYW1lZHZpZXc+JiN4YTs8ZyBpZD0iZzE5Njk0OSIgdHJhbnNmb3JtPSJ0cmFuc2xhdGUoLTcuNjUsLTcuNjQ5MjgwNikiPiYjeGE7CTx0aXRsZSBpZD0idGl0bGUxOTY5MDUiPlBhZ2UtMTwvdGl0bGU+JiN4YTsJPGcgaWQ9Imdyb3VwMTE3Ny0xIiB0cmFuc2Zvcm09InRyYW5zbGF0ZSg3LjY1LC03LjYxMzQyKSI+JiN4YTsJCTx0aXRsZSBpZD0idGl0bGUxOTY5MDciPlB5dGhvbiBUb29scyBhbmQgU0RLPC90aXRsZT4mI3hhOwkJPGcgaWQ9Imdyb3VwMTE3OC0yIj4mI3hhOwkJCTx0aXRsZSBpZD0idGl0bGUxOTY5MDkiPlNoZWV0LjExNzg8L3RpdGxlPiYjeGE7CQkJPGcgaWQ9Imdyb3VwMTE3OS0zIiB0cmFuc2Zvcm09InRyYW5zbGF0ZSgwLC0xMi4zMTQ3KSI+JiN4YTsJCQkJPHRpdGxlIGlkPSJ0aXRsZTE5NjkxMSI+U2hlZXQuMTE3OTwvdGl0bGU+JiN4YTsJCQkJPGcgaWQ9InNoYXBlMTE4MC00Ij4mI3hhOwkJCQkJPHRpdGxlIGlkPSJ0aXRsZTE5NjkxMyI+U2hlZXQuMTE4MDwvdGl0bGU+JiN4YTsJCQkJCTxwYXRoIGlkPSJwYXRoMTk2OTE1IiBpbmtzY2FwZTpjb25uZWN0b3ItY3VydmF0dXJlPSIwIiBzdHlsZT0iZmlsbDojMzc3MkE0OyIgZD0iTTAsNTEuMTdjMC4wMi0wLjA2LDAuMDQtMC4xMywwLjA1LTAuMiAgICAgICBjMC4wNC0wLjcsMC4wNC0xLjQsMC4xMS0yLjFjMC4yNC0yLjI2LDAuNzYtNC40NCwyLjE4LTYuMjhjMS4xLTEuNDQsMi41NC0yLjMsNC4zMy0yLjU0YzAuMjUtMC4wMywwLjUxLTAuMDQsMC43Ni0wLjA0ICAgICAgIGM1LjM5LDAsMTAuNzksMCwxNi4xOCwwYzAuMzEsMCwwLjMxLDAsMC4zMi0wLjMyYzAtMC4zNy0wLjAyLTAuNzUsMC0xLjEyYzAuMDEtMC4yMy0wLjA3LTAuMjktMC4yOS0wLjI5ICAgICAgIGMtMi45OCwwLjAxLTUuOTUsMC4wMS04LjkzLDAuMDFjLTAuNywwLTEuMzktMC4wMS0yLjA5LDBjLTAuMTksMC0wLjI2LTAuMDUtMC4yNS0wLjI1YzAtMS44My0wLjAxLTMuNjcsMC01LjUgICAgICAgYzAuMDEtMC44MiwwLjQtMS41MSwwLjkzLTIuMTFjMC43NC0wLjg0LDEuNjktMS4zNiwyLjcxLTEuNzVjMS4yNi0wLjQ4LDIuNTctMC43MywzLjg5LTAuODljMS44My0wLjIzLDMuNjYtMC4yNSw1LjQ5LTAuMTcgICAgICAgYzEuOTcsMC4wOCwzLjkyLDAuMzUsNS43OCwxLjA3YzEuMjYsMC40OSwyLjQsMS4xNiwzLjIzLDIuMjZjMC42OSwwLjkxLDEuMDEsMS45MiwwLjk1LDMuMDhjLTAuMDUsMC45My0wLjAyLDEuODctMC4wMSwyLjgxICAgICAgIGMwLDEuNzMsMC4wMSwzLjQ2LDAuMDEsNS4xOWMwLDEuMDIsMC4wMiwyLjA0LTAuMDUsMy4wNmMtMC4xNCwyLjQtMS4yOSw0LjExLTMuNTEsNS4wNGMtMS4wMSwwLjQyLTIuMDYsMC42MS0zLjE0LDAuNjEgICAgICAgYy0zLjgyLDAtNy42NS0wLjAxLTExLjQ3LDBjLTEuMjIsMC0yLjM5LDAuMjctMy40NSwwLjkxYy0xLjQsMC44NS0yLjIsMi4xNS0yLjY1LDMuN2MtMC4yMiwwLjc3LTAuMzEsMS41Ny0wLjMyLDIuMzcgICAgICAgYzAsMS43MywwLDMuNDYsMCw1LjE5YzAsMC4zNSwwLDAuMzUtMC4zNCwwLjM1Yy0xLjI1LDAtMi40OSwwLjA0LTMuNzQsMC4wMWMtMS4yNy0wLjA0LTIuMzctMC41NC0zLjMyLTEuMzcgICAgICAgYy0xLjEyLTAuOTYtMS44Mi0yLjE5LTIuMzEtMy41NmMtMC40Ni0xLjI1LTAuNzMtMi41NC0wLjg0LTMuODZjLTAuMDgtMC44NC0wLjExLTEuNjgtMC4xNi0yLjUyICAgICAgIEMwLjA0LDUxLjg3LDAuMDIsNTEuNzgsMCw1MS42OUMwLDUxLjUyLDAsNTEuMzUsMCw1MS4xN3oiLz4mI3hhOwkJCQk8L2c+JiN4YTsJCQkJPGcgaWQ9InNoYXBlMTE4MS02IiB0cmFuc2Zvcm09InRyYW5zbGF0ZSgxNS4yMDMzLC0yNy44MzIpIj4mI3hhOwkJCQkJPHRpdGxlIGlkPSJ0aXRsZTE5NjkxOCI+U2hlZXQuMTE4MTwvdGl0bGU+JiN4YTsJCQkJCTxwYXRoIGlkPSJwYXRoMTk2OTIwIiBpbmtzY2FwZTpjb25uZWN0b3ItY3VydmF0dXJlPSIwIiBkPSJNMCw2MS4xNWMwLDEuMTksMC45NCwyLjE1LDIuMTEsMi4xNWMxLjE1LDAsMi4xMS0wLjk3LDIuMTEtMi4xMyAgICAgICBjMC0xLjE5LTAuOTUtMi4xNi0yLjExLTIuMTVDMC45Myw1OS4wMywwLDU5Ljk3LDAsNjEuMTV6Ii8+JiN4YTsJCQkJPC9nPiYjeGE7CQkJCTxnIGlkPSJzaGFwZTExODItOCIgdHJhbnNmb3JtPSJ0cmFuc2xhdGUoMTUuMjAzMywtMjcuODMyKSI+JiN4YTsJCQkJCTx0aXRsZSBpZD0idGl0bGUxOTY5MjMiPlNoZWV0LjExODI8L3RpdGxlPiYjeGE7CQkJCQk8cGF0aCBpZD0icGF0aDE5NjkyNSIgaW5rc2NhcGU6Y29ubmVjdG9yLWN1cnZhdHVyZT0iMCIgc3R5bGU9ImZpbGw6I0ZGRkZGRjsiIGQ9Ik0wLDYxLjE1YzAtMS4xOCwwLjkzLTIuMTIsMi4xMS0yLjEzICAgICAgIGMxLjE2LTAuMDEsMi4xMSwwLjk2LDIuMTEsMi4xNWMwLDEuMTYtMC45NiwyLjEzLTIuMTEsMi4xM0MwLjk0LDYzLjMsMCw2Mi4zNCwwLDYxLjE1eiIvPiYjeGE7CQkJCTwvZz4mI3hhOwkJCTwvZz4mI3hhOwkJCTxnIGlkPSJncm91cDExODMtMTAiIHRyYW5zZm9ybT0idHJhbnNsYXRlKDEyLjU5NCkiPiYjeGE7CQkJCTx0aXRsZSBpZD0idGl0bGUxOTY5MjkiPlNoZWV0LjExODM8L3RpdGxlPiYjeGE7CQkJCTxnIGlkPSJzaGFwZTExODQtMTEiPiYjeGE7CQkJCQk8dGl0bGUgaWQ9InRpdGxlMTk2OTMxIj5TaGVldC4xMTg0PC90aXRsZT4mI3hhOwkJCQkJPHBhdGggaWQ9InBhdGgxOTY5MzMiIGlua3NjYXBlOmNvbm5lY3Rvci1jdXJ2YXR1cmU9IjAiIHN0eWxlPSJmaWxsOiNGRkRBNEI7IiBkPSJNMzUuNDEsMzkuNjZjLTAuMDIsMC4wNy0wLjA1LDAuMTQtMC4wNSwwLjIxICAgICAgIGMtMC4wNCwwLjctMC4wNSwxLjQtMC4xMiwyLjA5Yy0wLjIzLDIuMjctMC43NSw0LjQ1LTIuMTcsNi4yOWMtMS4xLDEuNDQtMi41NCwyLjMtNC4zNCwyLjUzYy0wLjI1LDAuMDQtMC41LDAuMDUtMC43NiwwLjA1ICAgICAgIGMtNS4zOSwwLTEwLjc4LDAtMTYuMTcsMGMtMC4zMiwwLTAuMzIsMC0wLjMyLDAuMzJjMCwwLjM3LDAuMDEsMC43NSwwLDEuMTJjLTAuMDIsMC4yMywwLjA3LDAuMjksMC4yOCwwLjI5ICAgICAgIGMyLjk4LTAuMDEsNS45Ni0wLjAxLDguOTQtMC4wMWMwLjY5LDAsMS4zOSwwLjAxLDIuMDksMGMwLjE5LDAsMC4yNSwwLjA1LDAuMjUsMC4yNWMtMC4wMSwxLjgzLDAuMDEsMy42Ny0wLjAxLDUuNSAgICAgICBjLTAuMDEsMC44Mi0wLjM5LDEuNTEtMC45MywyLjExYy0wLjc0LDAuODMtMS42OCwxLjM2LTIuNywxLjc1Yy0xLjI2LDAuNDgtMi41NywwLjcyLTMuOSwwLjg5Yy0xLjgyLDAuMjMtMy42NSwwLjI1LTUuNDgsMC4xNyAgICAgICBjLTEuOTctMC4wOS0zLjkyLTAuMzUtNS43OC0xLjA3Yy0xLjI2LTAuNDktMi40LTEuMTYtMy4yNC0yLjI3Yy0wLjY4LTAuOS0xLTEuOTItMC45NC0zLjA3YzAuMDUtMC45MywwLjAxLTEuODcsMC4wMS0yLjgxICAgICAgIGMwLTEuNzMtMC4wMS0zLjQ2LTAuMDEtNS4xOWMwLTEuMDItMC4wMi0yLjA0LDAuMDQtMy4wNmMwLjE0LTIuNCwxLjI5LTQuMTEsMy41Mi01LjA0YzEtMC40MywyLjA2LTAuNjEsMy4xNC0wLjYxICAgICAgIGMzLjgyLDAsNy42NCwwLjAxLDExLjQ2LDBjMS4yMywwLDIuNC0wLjI3LDMuNDYtMC45MWMxLjQtMC44NSwyLjItMi4xNSwyLjY0LTMuN2MwLjIyLTAuNzcsMC4zMi0xLjU3LDAuMzItMi4zNyAgICAgICBjMC4wMS0xLjczLDAtMy40NiwwLTUuMmMwLTAuMzQsMC0wLjM0LDAuMzUtMC4zNGMxLjI0LDAsMi40OS0wLjA0LDMuNzMtMC4wMWMxLjI3LDAuMDQsMi4zNywwLjU0LDMuMzMsMS4zNyAgICAgICBjMS4xMSwwLjk2LDEuODEsMi4xOSwyLjMxLDMuNTZjMC40NSwxLjI1LDAuNzIsMi41NCwwLjg0LDMuODZjMC4wNywwLjg0LDAuMTEsMS42OCwwLjE2LDIuNTFjMCwwLjEsMC4wMywwLjE5LDAuMDUsMC4yOCAgICAgICBDMzUuNDEsMzkuMzIsMzUuNDEsMzkuNDksMzUuNDEsMzkuNjZ6Ii8+JiN4YTsJCQkJPC9nPiYjeGE7CQkJCTxnIGlkPSJzaGFwZTExODUtMTMiIHRyYW5zZm9ybT0idHJhbnNsYXRlKDE1Ljk4MTMsLTMuOTEyKSI+JiN4YTsJCQkJCTx0aXRsZSBpZD0idGl0bGUxOTY5MzYiPlNoZWV0LjExODU8L3RpdGxlPiYjeGE7CQkJCQk8cGF0aCBpZD0icGF0aDE5NjkzOCIgaW5rc2NhcGU6Y29ubmVjdG9yLWN1cnZhdHVyZT0iMCIgZD0iTTQuMjIsNjEuMTZjMC0xLjE5LTAuOTQtMi4xNS0yLjExLTIuMTVDMC45Niw1OS4wMiwwLDU5Ljk4LDAsNjEuMTQgICAgICAgYzAsMS4xOSwwLjk1LDIuMTYsMi4xMiwyLjE1UzQuMjIsNjIuMzQsNC4yMiw2MS4xNnoiLz4mI3hhOwkJCQk8L2c+JiN4YTsJCQkJPGcgaWQ9InNoYXBlMTE4Ni0xNSIgdHJhbnNmb3JtPSJ0cmFuc2xhdGUoMTUuOTgwNywtMy45MTIpIj4mI3hhOwkJCQkJPHRpdGxlIGlkPSJ0aXRsZTE5Njk0MSI+U2hlZXQuMTE4NjwvdGl0bGU+JiN4YTsJCQkJCTxwYXRoIGlkPSJwYXRoMTk2OTQzIiBpbmtzY2FwZTpjb25uZWN0b3ItY3VydmF0dXJlPSIwIiBzdHlsZT0iZmlsbDojRkZGRkZGOyIgZD0iTTQuMjIsNjEuMTZjMCwxLjE4LTAuOTMsMi4xMi0yLjEsMi4xMyAgICAgICBDMC45NSw2My4zLDAsNjIuMzMsMCw2MS4xNGMwLTEuMTYsMC45Ni0yLjEyLDIuMTEtMi4xM0MzLjI4LDU5LjAxLDQuMjIsNTkuOTcsNC4yMiw2MS4xNnoiLz4mI3hhOwkJCQk8L2c+JiN4YTsJCQk8L2c+JiN4YTsJCTwvZz4mI3hhOwk8L2c+JiN4YTs8L2c+JiN4YTs8L3N2Zz4=;fontFamily=Helvetica;fontSize=12;fontColor=rgb(0, 0, 0);align=center;strokeColor=rgb(0, 0, 0);fillColor=rgb(255, 255, 255);" parent="1" vertex="1">
          <mxGeometry x="527" y="466" width="68" height="66.21" as="geometry" />
        </mxCell>
        <mxCell id="SZY12_XKgGBlkoAp8IEY-6" value="CosmosDB" style="aspect=fixed;html=1;perimeter=none;align=center;shadow=0;dashed=0;image;fontSize=12;image=img/lib/mscae/CosmosDB.svg;" parent="1" vertex="1">
          <mxGeometry x="835" y="450.50000000000006" width="80" height="80" as="geometry" />
        </mxCell>
        <mxCell id="SZY12_XKgGBlkoAp8IEY-8" value="Azure Function" style="shape=image;verticalLabelPosition=bottom;labelBackgroundColor=#ffffff;verticalAlign=top;aspect=fixed;imageAspect=0;image=data:image/svg+xml,PHN2ZyB4bWxuczpjYz0iaHR0cDovL2NyZWF0aXZlY29tbW9ucy5vcmcvbnMjIiB4bWxuczpkYz0iaHR0cDovL3B1cmwub3JnL2RjL2VsZW1lbnRzLzEuMS8iIHhtbG5zOmlua3NjYXBlPSJodHRwOi8vd3d3Lmlua3NjYXBlLm9yZy9uYW1lc3BhY2VzL2lua3NjYXBlIiB4bWxuczpyZGY9Imh0dHA6Ly93d3cudzMub3JnLzE5OTkvMDIvMjItcmRmLXN5bnRheC1ucyMiIHhtbG5zOnNvZGlwb2RpPSJodHRwOi8vc29kaXBvZGkuc291cmNlZm9yZ2UubmV0L0RURC9zb2RpcG9kaS0wLmR0ZCIgeG1sbnM6c3ZnPSJodHRwOi8vd3d3LnczLm9yZy8yMDAwL3N2ZyIgeG1sbnM9Imh0dHA6Ly93d3cudzMub3JnLzIwMDAvc3ZnIiB4bWxuczp4bGluaz0iaHR0cDovL3d3dy53My5vcmcvMTk5OS94bGluayIgdmVyc2lvbj0iMS4xIiBpZD0ic3ZnMTc1NjcxIiBpbmtzY2FwZTp2ZXJzaW9uPSIwLjkyLjMgKDI0MDU1NDYsIDIwMTgtMDMtMTEpIiBzb2RpcG9kaTpkb2NuYW1lPSJnaXRodWIuc3ZnIiB4PSIwcHgiIHk9IjBweCIgdmlld0JveD0iMCAwIDQ1LjI3IDQ1LjI5IiBzdHlsZT0iZW5hYmxlLWJhY2tncm91bmQ6bmV3IDAgMCA0NS4yNyA0NS4yOTsiIHhtbDpzcGFjZT0icHJlc2VydmUiPiYjeGE7PHNvZGlwb2RpOm5hbWVkdmlldyBib3JkZXJjb2xvcj0iIzY2NjY2NiIgYm9yZGVyb3BhY2l0eT0iMSIgZml0LW1hcmdpbi1ib3R0b209IjAiIGZpdC1tYXJnaW4tbGVmdD0iMCIgZml0LW1hcmdpbi1yaWdodD0iMCIgZml0LW1hcmdpbi10b3A9IjAiIGdyaWR0b2xlcmFuY2U9IjEwIiBndWlkZXRvbGVyYW5jZT0iMTAiIGlkPSJuYW1lZHZpZXcxNzU2NzMiIGlua3NjYXBlOmN1cnJlbnQtbGF5ZXI9InN2ZzE3NTY3MSIgaW5rc2NhcGU6Y3g9IjMwLjE3ODAyNSIgaW5rc2NhcGU6Y3k9IjMwLjE5NDMxOSIgaW5rc2NhcGU6cGFnZW9wYWNpdHk9IjAiIGlua3NjYXBlOnBhZ2VzaGFkb3c9IjIiIGlua3NjYXBlOndpbmRvdy1oZWlnaHQ9IjEwMTciIGlua3NjYXBlOndpbmRvdy1tYXhpbWl6ZWQ9IjEiIGlua3NjYXBlOndpbmRvdy13aWR0aD0iMTkyMCIgaW5rc2NhcGU6d2luZG93LXg9Ii04IiBpbmtzY2FwZTp3aW5kb3cteT0iLTgiIGlua3NjYXBlOnpvb209IjEwLjA5NTE1OCIgb2JqZWN0dG9sZXJhbmNlPSIxMCIgcGFnZWNvbG9yPSIjZmZmZmZmIiBzaG93Z3JpZD0iZmFsc2UiPiYjeGE7CTwvc29kaXBvZGk6bmFtZWR2aWV3PiYjeGE7PGcgaWQ9ImcxNzU2NjkiIHRyYW5zZm9ybT0idHJhbnNsYXRlKC05LjU2MjU0MTcsLTkuNTYxMzEpIj4mI3hhOwk8dGl0bGUgaWQ9InRpdGxlMTc1NjU5Ij5QYWdlLTE8L3RpdGxlPiYjeGE7CTxnIGlkPSJncm91cDIyNTAtMSIgdHJhbnNmb3JtPSJ0cmFuc2xhdGUoOS41NjMwOCwtOS4zNzg2OSkiPiYjeGE7CQk8dGl0bGUgaWQ9InRpdGxlMTc1NjYxIj5HaXRIdWI8L3RpdGxlPiYjeGE7CQk8ZyBpZD0ic2hhcGUyMjUxLTIiPiYjeGE7CQkJPHRpdGxlIGlkPSJ0aXRsZTE3NTY2MyI+U2hlZXQuMjI1MTwvdGl0bGU+JiN4YTsJCQk8cGF0aCBpZD0icGF0aDE3NTY2NSIgaW5rc2NhcGU6Y29ubmVjdG9yLWN1cnZhdHVyZT0iMCIgZD0iTTIyLjYzLDE4Ljk0QzEwLjE0LDE4Ljk0LDAsMjkuMzMsMCw0Mi4xNSAgICAgYy0wLjA3LDkuODksNi4xNSwxOC43MywxNS40OCwyMi4wMWMxLjEzLDAuMjIsMS41NC0wLjUsMS41NC0xLjExYzAtMC42MiwwLTIuMDEsMC0zLjk1Yy02LjI5LDEuNDEtNy42Mi0zLjExLTcuNjItMy4xMSAgICAgYy0xLjAzLTIuNjgtMi41MS0zLjQtMi41MS0zLjRjLTIuMDYtMS40MSwwLjE1LTEuNDEsMC4xNS0xLjQxYzIuMjcsMC4xNiwzLjQ3LDIuMzksMy40NywyLjM5YzIuMDIsMy41NCw1LjMsMi41Miw2LjU4LDEuOTMgICAgIGMwLjEtMS4xNywwLjYtMi4yNiwxLjQyLTMuMUMxMy40OCw1MS44MSw4LjIsNDkuODIsOC4yLDQwLjkyYy0wLjA0LTIuMjksMC43OS00LjUxLDIuMzItNi4yMmMtMC42OS0yLTAuNjEtNC4xOSwwLjIyLTYuMTQgICAgIGMwLDAsMS45MS0wLjYyLDYuMjMsMi40YzMuNy0xLjA0LDcuNjItMS4wNCwxMS4zMiwwYzQuMzItMyw2LjIyLTIuMzcsNi4yMi0yLjM3YzAuODMsMS45NSwwLjkxLDQuMTQsMC4yMiw2LjE0ICAgICBjMS41MywxLjcsMi4zNywzLjkzLDIuMzMsNi4yMmMwLDguOTEtNS4yOSwxMC44OC0xMC4zMywxMS40NWMwLjgxLDAuNzEsMS41MywyLjEyLDEuNTMsNC4zYzAsMy4xMSwwLDUuNjEsMCw2LjM3ICAgICBjMCwwLjYyLDAuNDEsMS4zNCwxLjU2LDEuMTJjOS4zMy0zLjMsMTUuNTMtMTIuMTUsMTUuNDUtMjIuMDRDNDUuMjcsMjkuMzMsMzUuMTMsMTguOTQsMjIuNjMsMTguOTR6Ii8+JiN4YTsJCTwvZz4mI3hhOwk8L2c+JiN4YTs8L2c+JiN4YTs8L3N2Zz4=;shadow=0;dashed=0;fontFamily=Helvetica;fontSize=12;fontColor=rgb(0, 0, 0);align=center;strokeColor=rgb(0, 0, 0);fillColor=rgb(255, 255, 255);html=1;" parent="1" vertex="1">
          <mxGeometry x="312" y="74.25" width="62.77" height="57.75" as="geometry" />
        </mxCell>
        <mxCell id="SZY12_XKgGBlkoAp8IEY-9" value="Storage" style="aspect=fixed;html=1;perimeter=none;align=center;shadow=0;dashed=0;image;fontSize=12;image=data:image/png,iVBORw0KGgoAAAANSUhEUgAAARIAAAC4CAMAAAAYGZMtAAABPlBMVEX///83NTW75vvT7/wSh7E0MjIxLy+8u7suLCy2tbW5uLgAhK++vb0Agq4qKCgvLS0mIyMAAAAfHBz5+fkjICAAfasXExMdGhqNqLXp6env7++/6//Ly8vc3NwUEBAfaoWGhYWgn595eHji4uLT09OrqqqZmJhAPj7G6vvFxcV7enpycXFHRUWSkZFPTU1nZmZbWlpgX1+SrrwqIR2crrZramrd9v/m8PXP7fyZwtZoqMW71ePP4uuAtM0nGxUXfaJQnb6OvNLt/v80PkMpV2kxRU81KSMdcI5NVFiv1ul+lJ9YY2k1krhaocGpy9wAcqWjvcpfc31rhZEcP00tTl2EkZgAX30Ab5ZQcYEtHRTI1NuLgn06fpt6nK0kDwAiLzeKmJ9IXmkeAQAAUm0GKTdVS0UgOUUADR6by+FWTkpYb1prAAAgAElEQVR4nO1dCX/aRtqXYutECIEECjKiAiEIpyEOdnzFdg7nctzEm6bb7nbbt9237+73/wLvnNLo4HKw4+zmaX8xEmg085/nnovjvtE3+kbf6Bt9oxnkfukK3CyZq/+scSMVuTs0p8eZrxwGkkbt5mpzF0iZ/ZXDfMegIE1SP5z/iiX58EuRmfhQbWd+i2gQfexGra4VkwhU/fnvvNtMVQ0/BfhPh21OvO7bkcowh+HHVjFIFjpkL0Jh69IP2gLEvgyFvR82WsFC0agwv/JiTNKrR59H4TdufZQsvMlyTaNFPmj0g5mSsztBtMdMqh0czP1+cRz+pirGFG2vGGmSoUc/uRU7qY4VlklaFEenQ29NWtxdpCHpyDZtz8hAf3gx7PNGscc+MbHCNnFKkTKJWzFiugfeKjIX1SIVtoFEH+5wd5ImmE1M2jbP2oZ/+jJvY0GXOobNiHxLkO1QxqQi5YNWRUyKjVlnTRZfd+gLyJ1q8W4qV6fuob9t0qOBLcNWBiWe5/W2pHiGIQhRYx2vLhS26VVQr5B21uqCnhSbAWOWuLGF38OpoQ7uDLi7SGZg2JA9TNtG12qd1xtQ7nlIumHI6C9ROC2vAq4taps8W/bwJ6XOW7ilkT6dFhmM+rqNudCt6/TpO8ok1ZEgN8HfsViCDQ0AFPpvT3+2+TgZlcF0OrItCBBpO+cOdJ4wSbvC6330SQpN+ZCwH76wDKxJHIM+LtUj9X2nSLJAe/vdscyL24eXb8EVLwx+KfEpEkRRQB9E3PbWtCLwhEn6FtDFCAtPowUHFTmy2w1b4PGnTkHAH/xKPStcqGbcu2XqwHaKhgj/3dkRcevlNCIMNq9+aLT7egn+FmlMB3CLwEMhMEehZZLqJSl8iVLhiUYeyyUCGmWrOClfFpKnTzfePxPntX4GJrKu48cQkyi2yAsCtC1dS6YtqtXlafgiDegnjFVfp2ZpIlcyop9gmL53W/R04/KXD8+e7AirI8LQzoOntRGQNVEITM7p2yVqS4D9kcMWd+u8OEBC1DP4CpaWoZFyYjgoXzff8kx6+vj91asnO7r4eXggsixQiDBWTLNdKYjUPa/V+VLokgBEBBF5qT2LR6ocShLVLSx5xW765o0TkJUrwBzyGtCISBg3pxWd5yvEoZPqvBwqCoAIbyDu6UFNjrgFmHg7bYCnlWnq3k3T08M3r9YNB8ZEhLpFJrq1UeGFDhUb4LDw1hACMTV4wju+TXULQ+ZAlxfkVtZNe++vCjv6TG0qiAU5BEsg9OzFixfPnj0j14uAsXDHTyEzUAkA8PCGB5SuOQZsJCO319FBWcnUkauLJfUW4QB4fLB2ChmNEnBzn/35l7deeziBV/yLj8+ff5emjzx6XpTlGUpI/2UXCI0M3VuqOj3g4Bg9oFF9vgCRhgbJBK+wkkojAPFAM3bnZmPk7gfbSLMHZgPc/Jdv1G5jAhTuiywwCL18/uJc4HsNrz8W9Cxcdl59EKC61fuYB8wxkBWjWcPqFCAFPRWTF3kjaWv7JWCUYmKTykWtkVzPsgppNJ69YFjhN63bHuycP2PweAkpDcuLc3mkapr66IfmmE/hIqBrcYzVrCsXMCLONvKGERAQEXk7LjYuLwNnJ6Zv2zfmspnBwJYTYAjPPrKs8OkT4JBgtHP+/ARQbjOLcvArjNBzfkdpA0gQ/fB2oBeS/Cd0cOOGdQHqkRrwNtBP9KkDc1Ei8P3jnnwD/tCKsYV3U9a41avoQgwOPiEYL1/+eAAqOnxy/hw3/l2IyWkmOACavyr1tvYopKu3fMLDuX8P6JRuR4cMM2wMLR3dLYwBEC6QK6ETa68/MCAHxRKZzcbNJO6Vgc0KjAD0xPOrCIuTk/LFwcHmIUBO/OkjQSJ/eUH4Yv8gm2E288c/WyXVfU8huf/w4ZsPr/RQdxfebG29fjQqkRhRJ0wqjrrQIgvE9w8J8RLQPqygTLybEBunbRhh14F6PPuIuL6H0UCtzR3hn7brwsvN3HEetXd/H/3dLO+9mwXJ4dmJYJi7G0eHGJb79wEq969CVGSh8ERP6l4RJhebNlQ3AcMBqoxYSGZzsGanfwPWpupV9BCPgjHufMSa8tPf/h42NL9HalD8CPE5QJjkzvbKCK5TjkKSFKAy9/fNk/MxtwHpMYDlPiaIys6sGAEi0hVlyKtBxAHdgYV+L48Z1era2+vPLLn9OlWpgqiPfnjU/hPJysnm5va/8hSRM/rzXwhblJFUcPjqkEBSPszHEcmdOj9ubr78h7pB6fXlwxCVD50Uf6BqjCVlDEVJ5IMwiysNiHDJYy2qfFCcrF21utsVagNEvdOErD34jsjK5q+YCWDTfqAP4Ebnj6DIAEiw5HAYkvzxUQKS/GsF3nl+vksheXBv6x5FBeiVtxkesjCW0V1xpBBj4w51i4Cnb2uhKDmTOnO1HvKnFBChoL/9DQn7b5/CBv3FvaAfn9FHfsaQHHMYEghafp/joHrNbXLHCUjK3Fv0d+c9heTxPUAMKvc/8KkwCl8LgwAgYrqqJ0SugdGMMFBKpf6aEan26xQQudNDeLw/3H0TKcpP7de0if9DH/qF3OEuyxASDoBWNjEk5T0uoWRzB+YfuKRpyCb3MAFUKKtcDTLlhxd0q16xS0YEmaAPJYpBa2RZ3noRMb16gb7o1RXGA9R49+9Ri07OOSI55T0K4ym1MdxFDkKyn88dcAiS8j53FAoaYqX893sB4bmfGMkJ6fV7gsqbV0tlp+RBQBFpbVcKcnu9iDQoM4o7b988vP/o0SGpcjmCZPNX9wwhAPQnx406k9HvzyF3wOZegvZDMPbK5SMECTA7RLNs5i+Oc5u53P7RIfdvwjd/OcyAhGGVN293FiYxRa+LdamjjGyx0AnWiogmGuQ1+lsgz/cfHoUWgdUGnzzEJrl34BHlH+fn599tnnJ7m3l86zQP+eNiExZ4nIfic4HtzvFefjN3gV7kE4Q/xZUJg8rrh0SpZGnaOHW2A00KvEEFOFHGVF2nrfHHxKAJOwiQ9/cehEbyjIXk5HfU8bC15q/APceKlTsoQ8UJGARCsn+JIIGMhC3z5hGEJk968BKX9+OjpDLJAmWR+Ii6YehQtYhiW1qnP+IRrUoAuQT8G0FyELMZfzY4JCTAlT6hRgS0/bCcg+JycAq+2ENtPzggzS8DyCCsn+jbiCz9NhMSKD/vV9IpgjFRlDXO+9MM7KoCpfoGAQLpMa3vbtwzf/kEqkzwlPP8tJyLVO3eBWz6XujAccfwn3c5yCJYyf5Bq4yhzM3mkgQo2daHJbkDguv1ZRmdCZGZQgcBsnUvAclp3I7+2uAOEJMABXGWJ6ggDMrpwstlhAz60SeS91GwMsk/CvnwQRYmgAgojdF8UGTB05Q1Ck1AXDOx8IEBZA4kL383TahJPgEdsccdHZTzQE2cwqKOUoUf5tG9d0hUcr/Dz773T1xO/v1CSAinPNKGnZnjhwIARFLXOMjnj4xQiVCRSUKSDGn/REMDDdjMMmSXy4tyvnyWWTwGCRnpXL78M8cN6k92iArK/7wQEqpoVUnz+CxQBNEYDTVJWWPk2yBqFcnM+3tbTGXC+u4mEx8nRRh5fYe1CDTG3N7+5veHM1+CPPzyxSVgrfZP5x9DpXy0BCQYFEVVNckTEm6+IBudJrDBSnd9zkiVsogOZObh661YVcL6bhwnEx9/Bc92iXeRJ1mTo9mQXOTLm/vI1239kymlvLcUJBCURwATCEpHF9F4gCjKsiFMvEDTVKW7xsGbgLCIPgK8mQCEEZy4X7JJLDBQprRp+/Nfc1A+hqgBTMwdFtyL3SUhAXXxVQiKpDWa4/FoPN5uem0AB8BDqa0REHNiERbxHt3fz6hGWOF/JWNZ2OMmdxZicjqPcfcw+0Cx+d+XTCm5g+UhuQeUHgRF0ihJQKMqSnetk167FmURRUnKTAKS1wlIoMU1Bag1c/k8+D+PY5p5tAdNcf8PtpDc2cYqkABQukGjoQA0VIiGotb89WYBvAplEU29zACEheRxOQYICnNbnR4wsQfHx2dn+/uXl5fza3cI7dHwLwnxWxGS1tjSdYOftmu1lltddwa+OsDuKgit1e5edi0ih373Ig7JQ1DC5R/NYGkpPoOy0/gzIX7RCzK91xiZaIQT+0/6QFr4xpVJw96ZYDQ1xedmdBEDSdwK5x+BIo5zz38ylvQGLqHuCf5ZBpSPSirvrgSJW6SWV5ZLvLbwpasRERqRb0jAos9gEgaShH5FkACP9rvzegMGNZd7C99IyTw8CHnt3SqQcNyExKWDRrs3NoqjdSpWZ4SFRp+oKHR8PKsajKjHlEkejixBkF6eW3AW4mE+f7AMKkf77/IRl+QZ7TqzChEkboU6aIoG7E7gFdc3Ka2FLY2gDzWcgZpZjajKu3G9CAdf8WDNi/MinAxzuIhRzKOz05jUxFXJQu36gDIJzEsHXQW6I1J/TYzSqFO9SuKCWXLDmpy4/wohMQEkORC1fOovs+6sdgrsdNKS764AyW4tmlksWAHntNSgxa3HCPexe2b0NZWEjrPlmOnG16zklKEGAS7J6dnh8lpk7/Agz3JJ7jgqfbEqecqz0Y0xAAIPUFmH3+pg2wtTcmGSMtMnQbTFSA5rhk/aEJLT/cOjo729VTrq8DRiFVZuFqqSrbbOsyRU+hAO//MTAi6eSQT91SglN6cmTD+yYU7+b0hwkNcK7erF6ZW35Ej93gHJOOUuVpCbrcsnyaRAoT5ch9SoyNcRjJ4mMSw3pypMR24wkOTg9EtWknLli7ma7pDhpr0DPMDxrxXkZmuQGvsTeL30+euJhxXijKisQjTnVYWRHEbB5iEkYdoVInI5/81H3wNm+vR8PO1BW3UEBzhY5bpIbraudhKAyIMBb+i2/ZnT0aZIsepjVYn16NN5lWF6MopzSP7MPKCjfu8WsjAZWn/58R8idDuPyzEmWSA3W/sJsRHGMBRWG+32qPgZk41M5J8JhqclhsPmcQkrOSGblMNUEdIv+Ty8Ni/nMwqdbpB7/o9/Q+duk0Fkodwkp5YCSFAkrGoOVxsq17Q7Dpw0ioK8VFgytzZszcngC5NjBU49Gsk6PChfLKjAXqiLnv8ODBYjNovkZutVasDPaPjVqt+qqQH0JK4XE7toJobRlzLy2HPrwypYHOiUmQoclTePuKNjOG4x89XmYRKTkz877vJMklIkkE1EUgmz2tKuN5zVhaZGFNpSVtp2viQzVd9Fo7sn7LNne/ub0NUoz3HZzspne3FMNj+xiMxnkq37SfsLp52LzFJY07+G5MB5+UCvzhgfnN9LLJug4O879tmDcjSJgJsVhl3ky6eHCBM66fGMhWQ+Ig9TiIwnuswXUovOVyI4Lx8GeVI2mrNjnBSbwGTrJwbX6o+4iWg8j6wJZyXzEKUfgWrN5fPHe9xeLpfy0uabmwwfTVc01RML8udgAuflA39VnRmdzYeEZRM47Hfyv9GTfdJE+Fn5P9T+fTYJa36P7BC2TOWLwz2MIBNOzmcSjIggimI0z1Eeqook9XR9cG3z27RQfnXO+OACjR9rwGZu89cJrYuKc6loioRbQePBe99DvYEGMWBIeIEMEkcMcD4Phw3Lr9kC545pXcI5A3Jn2mxORzqZQA1Uq9NS4PRG/prWd2oAFgnmzkSZ65ncixviB/nNk590nHQ1i9hPQXwh40HhCwjMIfp4+A7yBxw1js3NKv9rWQOMERF7ZJCi0ezo4TKmlqK1ZeNaUd9EF2VPU+bnWhawCSs6MEvw8nzHloUAuSVwUBitp/oRTmHkjvN5Dvr6sNRLwDAAixzUvdGkxvIxi8g8sQFOK2QLuS0piFRJC/qiLPAotjFrijotXmMkeKQbE0VdNGK6iE0eJzA5+Xh+fi7jzs8dn4HStT8Qs8AbUJ0ih3YfjhaXN/GEmxCRgxgic8SG2hphVIO+GPBAuoqiScOBLlTQ2qyqqinWyqn6kcW3F7EIpEUu9UYME9jjJzldxWxyCjSo+SealMXlNvF8PTTQcwYnJeHZwBdUdPLLI/KG2hojiu38rqJq7ZFRxPn5luI2V0vAmh27ueSg+qKERRwTZEtfdkjkAh7/2wka7jrIoz+w6RwUFoAPnpWWy++hCCkhNXMEdutD5LPWGUVotgAojRHZD8ZR3W4zs0EzEBHHgbQEiyBaAElMnWw8QFNY/6wh3QGYxP8DjZwflpGLAhkCTVoDAdARDffK+xdJzToHka3XA3YuST2++kZStMaA5EpaNdNb2hg742CFuUoL/LUEJhunoKUn/wbPIX6YwjbvmWUcFEJVmjtDUgU8FppUyYP/XscQmS2tWw8T811j+7oALaIpLY0sh3Q0btluN7u+oq1guHdXwgT4sbnNTwDwI6A6XTTZGc9vBcyCjQuaNQ7YJMw8lU/jqM5EZGvrKpkf4SuJpfRV4HjS7q6Z7pKGxw1WG+VYEZMHF3k0h97EPmz+GGuN/CFedQHiQPT3gqw8yefjQjMHkctOIvUsDwS9ntyDwo+Eya+aS2HSWnl+32qYAEbJl5EJrP6BBIZMoz/Cw8eAW8gccrRsqXzweGMpRCCLJCZfjdDY3iDlq7rRtnb+MjmT6jWc3RX1ycbjg+/hWxpsYjpPrC0wNvjDxQUA5DShRWZq1q39BIvwfMHT0FyS1jjpgTMoVG9qV8JFLtu9BCa7hwewJhfMgBXlFrKEC3FICpBZiGy9/vAkNb1V7Gt+1a8pilmbk3w2b2yjxkW58iT7b2zACWibDCZ0CCyPF/rl88cPkoDM8NC27r3ZYdabCmRBgSBghveBYWnN5v1FmLjXHgVbVXg2Hj/eNbmLfHLKI4ajfHC5mwIkW41sbd0XWZkRRkoTL0C1qO70W5/DDFrz2hPsFyWHUy3ceLyxu3+wWc4DyiGCn8pwxDgDj2wW2dp62KGLB8h6jxFQqjxazRduwQaHxZ1rg2JOCo1rTjVYmVGQWtndOLzcPz44ePfu3cHx2eXh0dMMOAB8WSPQgENCQHh5xKP58rrUUpQRdGIrkYkFXGJeUwIcl6sJRd7T5jzv+K2uGjSGntdrNnueN2woXRcJ6yJznNYoETKIZn6fxSJAh4jR8hKx1wUxDBAhPQDupjTReT65S+F1J+51a442qNu2NfYaUs31qw6gqtuqaUpj2NseyBW7ZFmGruuyLBcKBVnWdcMq2fbIC1rc09nTCVArZoMyjzIA2dq6vNphV1EUPAkEdkNdEGASviX1ASalWArAvLZGqSqqK/VAQ1FTQVshQRQMXS7M2dZJkHWrMm4cbm3Ng+XB6qCkAQFvePjqSXwbEHG75fiaGgxECwY2vtQzgPGJtewz7K2rKFK30RzpCIOVti8S9Z2dD/dfz0VlNVBSgADI9z/spBdkoQ33qioQGQREVfKMcIskislngOJrMD0nBcPedDziCwaUE8A0Bvmgkw/Z+/CIO086V+/vzeGWpVnlcQYgl1fCTnKfGEglrEy7Ur+C0kOONDRYDfvZ5LQ0JZx6jmad4zQmuSEpSgA1LNyHJ2OppSDvPHn15nJrNixLoJLCAxT2HuDBLH4WmU1dZJIncyWviIyDqQ0NQVwfJLDIqlsjGV2Ijkpxie4ggIJm9rIoKENvESyzUJkDSwYcW5f33z6J7TMldPq9KR/q2BKpd1X18GauptY20juGrQEYp+q7bouQGxK4qHXR3AQtYLxHvM1ZHBYkRDOAAbjEgHn8+MGDTDg+iKltyHS4ikRr00SaEW5ALXmNEJPKre+qZzp+TQr355CN0bTPx/WLCISo8+H+/hxcZhF8Yuv1+zdvdzK3MBSnkIlVzcOMIoQb/ZoScTcBJpb1JXbgr+ItWgW94ylQ0XRStRcKOsTlzcNL3MxF0JAfXT68elt4siPPWhhe8uFmE5IadNAvSmGqx9ToR21of4ndbvFESrkzRIuhFLVXiJAAZimcnQz4BQDz9gog85q0OpPuvd6HexyJT3ay0GD24tNx1O+r6hgyqhg13mxR3tCGxds//cOETCKKHjRMkgvCqwbZp8oADnAQDLcNlmuAlQAKZueJPHj14erqzRu4wQai+/ffvLn68PZVZwdAsSNn7dcH3yOMgVtAttwQyC6/wPJO4TvZoCaMSAAmt35GTF/mBWOqwuWDuB4IElHu4XVSqgY8yozGAUWMooEdStAzXOQailPkBAQenpocbi6IHXgm9mVcVW1YuWV10rWBzDQAIGFeH07k18cKlCK1WwOGXBtfYwNghjGYCw27ApI2FECZ4S6vwFltwi1Os/jB1LzbVSdOSTD6GlD9YUrBRDtogrqrJPHrdNXUlNwVEGmOQ+sLmETyQRjq14BbBBMAlfCtDuQTlk0iMrXerW6CDDgYsgiT11cMoQBvMT3mt5PJYp7PBklgZ8kgkoddmicD8ISxra9qEzl0WTmIybaczSaQT27RO5kWe4BFYksXgOYIkkPKNbKMVqa+ptiJGEeOuMAY9Xt9mmynPwCSR9SR2Gea3JKAPFrRtQOuxWwRMbvDW9s+fFjsgrg5NvRTq3SU1FL+gNrpYIR3bh1pDZnyRTvokzWUUCMDGqLZx5Mx/oWhwNlDE3ghjNmW+UpHMJiUiKMMBDs7znNqt2WJG6LjK4mpW4OBmh5khyyBliVIyBwJHUmisgTcclVDcZI47RLl2TbQFz0DMwvsZg2aWYGPvavaMGJsUQ1SmTRKjns7+/4qU84JElLaLaVAgjehqATQLCERMgKCDfjY1hRglSDzyG1VhcMLpq9tI3PSHSJM0PwYF+fJ4rrC78uVGN809NIMrVGt3sZ5OFIAEEnqM8OppWf8ARdfn0gSstPAHhWammK2kVjIfQ3qYbNhQLaIDlOCwMlVtQF1D0odAjML1KeeGKWqiXpMIlpDa9a5N1Xn5nfMrrU4MzU1v+2aQQqRwMBWGfWThRSmzyGlInQ0fNcBlzpTGvy25JtaAIHDwYujAvWZHPX29Pim8rV+YgJFRGtfRp4i1wESnrzpq5yUGvNwbEFuA0Rwgyu8PpRqyHuBEkTnTCoGgCR6BupjGO13oXwRheEAdVpKlF2VEydKdclBTBl001wCR0bS0inBobUkTXQ+0BS6jLsiDDTYViQaPSBB5L4syMxKb79E8mRdqGqJR1YN5NT+4F4p7oaZStbxDOS7RY36XMoYK3KzDsML6mNglel9x9bbKvidJ2Oxic600WW2uRVykgdXA7JBTwfy23byVIFqJZFLdBrFL5EhQZR+MeCctPdYLTZbjCvr2yMN2kMYyxrs0jjf1lk4eXgCDnpFF8RMNHBr9VMHFm4nz7pxm6vMzLtxyhh5FT2Ttcq1eht6LS4QjMJUY1Vhx2C5BHimMlmrqQKXhlqabifpc3XrSUGpde7SIYVpRPpDTmXtksJr0M2AjpoQ38CrHUuT9kVeb5Nt9ttGmEQ0g9ShLXbqJDHljh4bhSlocDWVBcpDTALlAhiemK5sFdmNNHrQCSEP+hMxtCtOL2lke8WkUnO8dW/JsUZqBVzCk+6ja9dGaw/jTFVkGwvUrxF+rxl6aFdaSRbQ0p6Im3Vw1N0gpwvnl8ZIqUEmAYGdESQXg41Z19SThU4EZl+OhneDRIlOMQ1Ad87Zu1+WfOZgVkyOiRokCnJTS3J3g9WTABJm92/XKIX+jpPMB3XSQ3ppt/ruUNpxg3daJQE49cla1zzmolcQmwycPYs5JzfBXV4xbWH8u3lUIZd1FB4y056sD9ML5ExWAPqiPGTwdG2GFRI4K/UMbereUTbJcCPRLUscaRnSzk70n4hGbJr2hPHIEt6PW89IrV53HtYXoq6V1q2Q2M3FBkC02I7u1hkfLQF1hn69+SBvvTTV+1rWsqka07OyOIlbb2u2/9WZZEU1d/w09hg5dVHNtAjs+eoVOeFvebOjuf7o62KJNAUVL3tHb0b+QcAcxLVobfZ5t8O17pX2JWjQSfqtlKLOBmFhMhc1e7g7GN/6qO96yS1m7PyBiRnILU3VBGzjmQcwdqdfOSRev7bY3Q7sYdLZaM88YL3V+MohKbpLLKrz7NRG1117phJN+rNfGSlDd4nQfTySkr5WdfY8kbvqqi5JI26ZkKzipYVr9vm2XzcibqO6xCi+UwzSJrdwZyP+z6Mht8xBNK2RltY349ufdHYbZGrmMmF70MjwXJozB2i+amotdzJtv5UhXd5/JiROxkhPBvXcjJ8NFwuO6be+pmgP01JpDDNz65T2fPUa9EalSukLzHL9XFrKXtaSKVtEGUaIJQtNhk1Ot/hPId/MEq8Fa//xjsipcfT/FMrc3Hn+pgkOhqT0tecJZlG2xpnbWhcvbqjfSH3uAGWbjbnGRMNz/WaGy/+FhOeRpmZu/TeTh6YD6v+Z7tz1CJ9KYNzA2SZfLeFptKWvO5m0VsIzJPnbXnpzl4nYYH3xL/9rSEU2eMZKi7WTo3pjXhbHXsqh7rb7I0EWR/12YtBF80aiPGjGhjBbwwmv89uNdJRTa8BiCqPpUGVVgQnuG+EZ62NRHqfjvlp7uwOqNvTJ/HOPfuEGvQ4ZPQ8m8iAW+YDvQIPkzrYXXCtwdqd1A+4tIAiyHVvG4DYrFjwgEHwj6kapMgqzzI0SCMHA/YJhhfdqHRuu9QU/rXtsKZzv2ZZegEv6BFEGxdDaDweweFyAP67Ah0U7Pn3TbBsWLlQukVPi8MNmzyoZsoxYpiUboJLRUKHZEG0dbZYA32dV+FXXm5vhKeyQmGFZZ1pJbIZA1zg4AyO8JxTJz71KtBarznJbr55Yn28RSPC6JQNC0gjrEJv0qFqptWAk6Kuis3zQNEgJnz0WWqKgkjg7Vp45YpZNvsxWmFnsUiuldhqwcWBiCgyGBeJM9izmh0wY4srpVpHgDuNq1eCYTlQDZvFez04+GgZ9OASEkNTqBEv8jDm2ko/oqyVYWuR4N0G3LMCi0c6YSp3cL9kl24i1FC2v4j4e/TYAAAdhSURBVEXLBqwrkqEXFVfRKAEZEe3IwayR8lExpLJ0AIsEti43LLG4h89uk9fiKgixllfx+0Y0POZFzAqOiDlbBrWzbfyMsdKE0CrhdqPTqLVqwTic7CORQ6ZkNFGoa5AKIBSRfyBPWo7f9cZERBCvCrxUrbYa4wiRFi5GtNqwGBdjQlbrkcbYplaBvygV4oBxTYwIABiuspfwQkCBrETxS4Sl6EFbWKhNvEeEUOlBrergNXWrZRPI5gGVZKLKxU0xiBS2UFsKWE01Yd0T8ShaVcFbSceStFoeYw2Fu5aaUeJnGA5AxNpuOX2MiU0aoOBnCwMCEY6DxViNZK8FfyWKAqnPCCMik4rgpaYrOXdDLOfp7S5wWTINOhVUHSKTWfHoUGaYOiJcw9CVqJF24CsMozCairhLyF4PRGE55NTNEHr8CrpGFgOkw7WVgj1p8tje4GVxgk5QxP6uEF/iNJ8czAvp2BJDFVUHx6BYJolfbcWcjz42HgmvIsCN1mkv4cV+NHdKNkUBuhqf7xN32HtYuUcL+yaxV+CHBXBTECFLII3t4/aEGxNgVspebT2DcEvDrQ5CchJFE/nCZo7UXIhtKYoh4StxRUZURxi6buNWddm3Q4w8dF0lqVV8keotUlgt9jBc3xLVA6MW7RhFFuqustAcNy6d8cY8GqHrxPqP7FQklGrJJ8BP2NcHmI2jZRLx3ClVjLRLsFgRKSMibYdqwI2JFTcN/ZioFuSUx3qIEX7DKhl9LI8Z2qcU6xCqSniypC7s3YoXPhEeJ2gw8+ywjYikiSw4p++jm3VQB5D0qcd8yWwRRlbYUo+HbipTYHQarlghfMasJ9qxmLC4CqmlyETvyeENvO2EQLQk4WmI/yBs/yhcQR8Kj2snECfqgSBLBDB6P0maBcyzTGs68a1/6LGf7CLiZE/iOHElG4x7MS1qvUR85eP3h10WhMeQiuHrHDt0oumMXtyvkfgRDBI2mA+DpBGzYSlRvRGcLfxrauiI3okxCVamjKs3Ih7G8oiYs1QJtsBRQo9ISuQXN0I+EULD45ZCL7+On8S8xTxFth3w8CUR24gZcXWwp4Z3FmKcn20S9LVjzedLzMAP6YJww5MWhi1tPWaTT1ylZC6TKNMwjCLXvBElAsg5zDwbUpETM1GzUOeS4kOfh7RCjzFRZFNIdbDBIVs5hIW3aB2IYiLaLeZyYI0bMT3ZZSbCaDERpFMRAGVA2v9UuVtMjzgjGgtH+p0ez0zOmnDCEIZ8SxCjXdCMO6vUOx0z8EWyS/f9oHVoJ/CEhPVAyPRdIltRIctDkszadOOGSKLGxI4N0HlUFTCeb5dETEjrEF1BtU2LChtt1SAWs4S7cuEG1OOtGRqJOhA/KJaatmPNMWmGYJU4mEAiM0ij5hFFTVwCP9SlCTXVMNKI+rhIxPCkeAJJWMOwVURnh3w+ZZ0IoomJ8uym6kBscCwPG1eNY5rrWWWQwyfqJ3Kl2kVYnsTaripoCt22JvH8JOaLYlJQVxeaESTYJpodkc+K7hmTiZU6YTqSmcAsBDMiiTrg7wuxdFkM436o2KxVtvAg2Fukn2sDA3E8ERwkp90SQISwOJbyaPkIZl7oGFTDdnWNsKeI4ODDnkDMTorhiYVJ+G3U/hGmIhuNIYCgfSuMcR2ID0MtQ0zmSQ9DK+WM0S7KbInLEd34y2771VYwKAlYeEOHoR2M4UcdtxNzsVOsbONDqRXsf8NKjisdPKHbxQyNVC41VNYw2IZOS6UW8+9J3BayKHkrgYjYXN5ot3kDKl0pZmG7MaEkRIRJniqeDR63JdwH9iqpgYAqLR3mwuDzNuwVkypCHSVH6y3cFuypgcqIhm2MxgZ+uA7Zso6Sb4Mxj/01EsZR1sV7Q9UlkvUhrfIS/iDhTeJoNaKHYVbZMuND5MSTi+/rQUwYL+qwaKNHvIAVPDVAsX0EYVuwp8luGyfUu8QJwEJKHSxqFFGTiOSTvcHokZO92Nk+AQ3riK8xTqQT4jGiX2eeFYChxhhR5YGLTgzpKAbzjNUPkw0rQdJlXwxAJ763FqVCZaMVj7FjdeVtXMXYDmo6zRq0op+KMEmFub1ARiVIF4ZWNOF7bkeDA7Ls068pU2FPTk+EIlG1Bbhxg0kSmStBwinFkCEEoxR69mPCtnK9CQURd6CBK9ALxyYEneYna8WwAeCRsHSSPOULlQlEieTUMO8jgyMyq/lIm2lE5ND4oFDpozrgrwmX2JAn9eQiBJJBB8V2oDiTnNqqk5b8ad1Ce69XRmyos10B90p2D6svrW7AASni5WqjCtxp27D56Fjnar8ON66Hj7DV7NUNWHQfm0G3CIvp4Pd0iyXbZtfbNyqGFX4Li+zYqF5k6zlYB6sikr1Oi3ZFmKYHFQPwPt2qj4knUoSPyKvvo2x2g0agJEcJ3aARrZZx4GEF7JEzGnikG59sZtbAPTWZjvbBzSi+Bw+FxVRbiYNt3cRL4AYPsToEWni6iTPrsBJHBe8Iy1UCac6BKN/oG32jb7Qm+n/OQjDyPwxDqwAAAABJRU5ErkJggg==;" parent="1" vertex="1">
          <mxGeometry x="942" y="461.8" width="96" height="64.5" as="geometry" />
        </mxCell>
        <mxCell id="SZY12_XKgGBlkoAp8IEY-11" value="Power BI&lt;br&gt;Dashboard" style="shape=image;verticalLabelPosition=bottom;labelBackgroundColor=#ffffff;verticalAlign=top;aspect=fixed;imageAspect=0;image=data:image/svg+xml,PHN2ZyB4bWxuczpkYz0iaHR0cDovL3B1cmwub3JnL2RjL2VsZW1lbnRzLzEuMS8iIHhtbG5zOmNjPSJodHRwOi8vY3JlYXRpdmVjb21tb25zLm9yZy9ucyMiIHhtbG5zOnJkZj0iaHR0cDovL3d3dy53My5vcmcvMTk5OS8wMi8yMi1yZGYtc3ludGF4LW5zIyIgeG1sbnM6c3ZnPSJodHRwOi8vd3d3LnczLm9yZy8yMDAwL3N2ZyIgeG1sbnM9Imh0dHA6Ly93d3cudzMub3JnLzIwMDAvc3ZnIiB4bWxuczpzb2RpcG9kaT0iaHR0cDovL3NvZGlwb2RpLnNvdXJjZWZvcmdlLm5ldC9EVEQvc29kaXBvZGktMC5kdGQiIHhtbG5zOmlua3NjYXBlPSJodHRwOi8vd3d3Lmlua3NjYXBlLm9yZy9uYW1lc3BhY2VzL2lua3NjYXBlIiB2ZXJzaW9uPSIxLjEiIGlkPSJzdmc5MTExMCIgaW5rc2NhcGU6dmVyc2lvbj0iMC45Mi4zICgyNDA1NTQ2LCAyMDE4LTAzLTExKSIgc29kaXBvZGk6ZG9jbmFtZT0icG93ZXJfYmkuc3ZnIiB4PSIwcHgiIHk9IjBweCIgdmlld0JveD0iMCAwIDUwLjg1IDM4LjA3IiB4bWw6c3BhY2U9InByZXNlcnZlIiB3aWR0aD0iNTAuODQ5OTk4IiBoZWlnaHQ9IjM4LjA3Ij48bWV0YWRhdGEgaWQ9Im1ldGFkYXRhMTgwNjYiPjxyZGY6UkRGPjxjYzpXb3JrIHJkZjphYm91dD0iIj48ZGM6Zm9ybWF0PmltYWdlL3N2Zyt4bWw8L2RjOmZvcm1hdD48ZGM6dHlwZSByZGY6cmVzb3VyY2U9Imh0dHA6Ly9wdXJsLm9yZy9kYy9kY21pdHlwZS9TdGlsbEltYWdlIi8+PGRjOnRpdGxlLz48L2NjOldvcms+PC9yZGY6UkRGPjwvbWV0YWRhdGE+PGRlZnMgaWQ9ImRlZnMxODA2NCIvPiYjeGE7PGZpbHRlciBpZD0iZmlsdGVyXzIiPiYjeGE7CTxmZUdhdXNzaWFuQmx1ciBpZD0iZmVHYXVzc2lhbkJsdXI5MTA0MyIgc3RkRGV2aWF0aW9uPSIyIi8+JiN4YTs8L2ZpbHRlcj4mI3hhOzxzb2RpcG9kaTpuYW1lZHZpZXcgYm9yZGVyY29sb3I9IiM2NjY2NjYiIGJvcmRlcm9wYWNpdHk9IjEiIGZpdC1tYXJnaW4tYm90dG9tPSIwIiBmaXQtbWFyZ2luLWxlZnQ9IjAiIGZpdC1tYXJnaW4tcmlnaHQ9IjAiIGZpdC1tYXJnaW4tdG9wPSIwIiBncmlkdG9sZXJhbmNlPSIxMCIgZ3VpZGV0b2xlcmFuY2U9IjEwIiBpZD0ibmFtZWR2aWV3OTExMTIiIGlua3NjYXBlOmN1cnJlbnQtbGF5ZXI9InN2ZzkxMTEwIiBpbmtzY2FwZTpjeD0iLTMxLjA3MjI0OCIgaW5rc2NhcGU6Y3k9IjE4LjI0MDY4NiIgaW5rc2NhcGU6cGFnZW9wYWNpdHk9IjAiIGlua3NjYXBlOnBhZ2VzaGFkb3c9IjIiIGlua3NjYXBlOndpbmRvdy1oZWlnaHQ9IjEwMTciIGlua3NjYXBlOndpbmRvdy1tYXhpbWl6ZWQ9IjEiIGlua3NjYXBlOndpbmRvdy13aWR0aD0iMTkyMCIgaW5rc2NhcGU6d2luZG93LXg9Ii04IiBpbmtzY2FwZTp3aW5kb3cteT0iLTgiIGlua3NjYXBlOnpvb209IjEwLjA5NTE0NiIgb2JqZWN0dG9sZXJhbmNlPSIxMCIgcGFnZWNvbG9yPSIjZmZmZmZmIiBzaG93Z3JpZD0iZmFsc2UiPiYjeGE7CTwvc29kaXBvZGk6bmFtZWR2aWV3PiYjeGE7JiN4YTsmI3hhOzxwYXRoIGlkPSJwYXRoOTEwNTgiIGlua3NjYXBlOmNvbm5lY3Rvci1jdXJ2YXR1cmU9IjAiIHN0eWxlPSJmaWxsOiNlZGJkMTEiIGQ9Ik0gNDQuODUsMzIuOTUgSCA0My44MyBWIDMwLjkgaCAxLjAyIGMgMi4xOCwwIDMuOTUsLTEuNzcgMy45NSwtMy45NSBWIDYgQyA0OC44LDMuODIgNDcuMDMsMi4wNSA0NC44NSwyLjA1IEggNiBDIDMuODIsMi4wNSAyLjA1LDMuODIgMi4wNSw2IHYgMjAuOTUgYyAwLjAxLDIuMTggMS43NywzLjk0IDMuOTUsMy45NCBoIDEuMDIgdiAyLjA1IEggNiBjIC0zLjMxLDAgLTUuOTksLTIuNjggLTYsLTUuOTkgViA2IEMgMCwyLjY5IDIuNjksMCA2LDAgaCAzOC44NSBjIDMuMzEsMCA2LDIuNjkgNiw2IHYgMjAuOTUgYyAtMC4wMSwzLjMxIC0yLjY5LDUuOTkgLTYsNS45OSB6Ii8+JiN4YTsmI3hhOyYjeGE7PHBhdGggaWQ9InBhdGg5MTA2OCIgaW5rc2NhcGU6Y29ubmVjdG9yLWN1cnZhdHVyZT0iMCIgc3R5bGU9ImZpbGw6I2VkYmQxMSIgZD0ibSAxMi4yOSwyNi4wOCBjIDEuNTQsMCAyLjc5LDEuMjQgMi43OSwyLjc4IDAsMCAwLDAuMDEgMCwwLjAxIHYgNi40MSBjIDAsMS41NCAtMS4yNCwyLjc5IC0yLjc4LDIuNzkgMCwwIC0wLjAxLDAgLTAuMDEsMCAtMS41NCwwIC0yLjc4LC0xLjI1IC0yLjc4LC0yLjc5IDAsMCAwLDAgMCwwIHYgLTYuNDEgYyAwLC0xLjU0IDEuMjQsLTIuNzkgMi43OCwtMi43OSAwLDAgMCwwIDAsMCB6Ii8+JiN4YTsmI3hhOyYjeGE7PHBhdGggaWQ9InBhdGg5MTA3OCIgaW5rc2NhcGU6Y29ubmVjdG9yLWN1cnZhdHVyZT0iMCIgc3R5bGU9ImZpbGw6I2VkYmQxMSIgZD0ibSAyMS4wNSwzOC4wNiBjIC0xLjUzLDAgLTIuNzgsLTEuMjUgLTIuNzgsLTIuNzggViAxOC44MSBjIDAsLTEuNTQgMS4yNSwtMi43OCAyLjc5LC0yLjc4IDEuNTQsMCAyLjc4LDEuMjUgMi43OCwyLjc4IHYgMTYuNDcgYyAwLDEuNTQgLTEuMjQsMi43OSAtMi43OCwyLjc5IDAsMCAtMC4wMSwwIC0wLjAxLDAgeiIvPiYjeGE7JiN4YTsmI3hhOyYjeGE7PHBhdGggaWQ9InBhdGg5MTA5MCIgaW5rc2NhcGU6Y29ubmVjdG9yLWN1cnZhdHVyZT0iMCIgc3R5bGU9ImZpbGw6I2VkYmQxMSIgZD0ibSAzOC41NSwzNy45OSBjIC0xLjU0LDAgLTIuNzgsLTEuMjUgLTIuNzgsLTIuNzkgMCwwIDAsMCAwLDAgViAxMS44NyBjIDAsLTEuNTQgMS4yNSwtMi43OCAyLjc5LC0yLjc4IDEuNTQsMCAyLjc4LDEuMjUgMi43OCwyLjc4IFYgMzUuMiBjIDAsMS41NCAtMS4yNCwyLjc5IC0yLjc4LDIuNzkgMCwwIC0wLjAxLDAgLTAuMDEsMCB6Ii8+JiN4YTsmI3hhOyYjeGE7JiN4YTs8cGF0aCBpZD0icGF0aDkxMTAyIiBpbmtzY2FwZTpjb25uZWN0b3ItY3VydmF0dXJlPSIwIiBzdHlsZT0iZmlsbDojZWRiZDExIiBkPSJtIDI5LjgsMzguMDcgYyAtMS41NCwwIC0yLjc4LC0xLjI1IC0yLjc4LC0yLjc5IDAsMCAwLDAgMCwwIFYgMjMuMDQgYyAwLC0xLjU0IDEuMjUsLTIuNzkgMi43OCwtMi43OSAxLjU0LDAgMi43OSwxLjI1IDIuNzksMi43OSB2IDAgMTIuMjQgYyAwLDEuNTQgLTEuMjQsMi43OSAtMi43OCwyLjc5IDAsMCAtMC4wMSwwIC0wLjAxLDAgeiIvPiYjeGE7JiN4YTs8L3N2Zz4=;shadow=0;dashed=0;fontFamily=Helvetica;fontSize=12;fontColor=rgb(0, 0, 0);align=center;fillColor=#000000;html=1;" parent="1" vertex="1">
          <mxGeometry x="317" y="614.59" width="72.77" height="77.41" as="geometry" />
        </mxCell>
        <mxCell id="x8RBoShG9JMl1PIIcemX-10" value="&lt;div&gt;&lt;h1&gt;Proof of Concept&lt;/h1&gt;&lt;/div&gt;" style="text;html=1;resizable=0;autosize=1;align=center;verticalAlign=middle;points=[];fillColor=none;strokeColor=none;rounded=0;" vertex="1" parent="1">
          <mxGeometry x="567" y="140.64" width="210" height="50" as="geometry" />
        </mxCell>
        <mxCell id="x8RBoShG9JMl1PIIcemX-51" style="edgeStyle=orthogonalEdgeStyle;rounded=0;orthogonalLoop=1;jettySize=auto;html=1;exitX=1;exitY=0.5;exitDx=0;exitDy=0;entryX=0;entryY=0.75;entryDx=0;entryDy=0;fontSize=18;" edge="1" parent="1" source="x8RBoShG9JMl1PIIcemX-11" target="SZY12_XKgGBlkoAp8IEY-1">
          <mxGeometry relative="1" as="geometry" />
        </mxCell>
        <mxCell id="x8RBoShG9JMl1PIIcemX-11" value="" style="shape=image;verticalLabelPosition=bottom;labelBackgroundColor=default;verticalAlign=top;aspect=fixed;imageAspect=0;image=data:image/png,iVBORw0KGgoAAAANSUhEUgAAARMAAAC3CAMAAAAGjUrGAAAAqFBMVEUaZpj///8AX5QAXZMAYJQAW5IVZJf///3u8PYAWZCLqcP+/v8AXZILYpUZZpf3+fru8/aRsMfBz93j6/E8dqNlj7KpvtB1mrjQ2+Qtb52Ys8sAVY8/eqZIfaYAUY0AXZa3y9lYhqzY4+mAob7R3eilu89ulbZdi7DG1N5Rgqlwmbp7n7uxxdjn8PAxdKWnvdSCp8CXr8mjwNDh5e67yt1Th6sATo0rcJwXpa3UAAAQsUlEQVR4nO1dDZuiuLKGfNGgCSiogDL4hWK3PTN9eubs//9nN6mAKOhu95y5ujp5n91pRQjkpVJVqSQVyzIwMDAwMDAwMDAwMDAwMDAwMDAwMDAwMPgoBMEIEc6YxW79KFeC+Iefed96Lt5eNossEoz0JT2I8+s82q3AEdVScFYIGEbb/ZOt4Dh+EC7XP4rBajK6+mP+Tvy9tEtCtuN4XrytRlmCXJdirNipICy2Gwe2Rs9xNDXy/3J7r42IEUopJhcVAaFku6+rLMWgFyzX83HqVRUmUnqskVfs5+vQ79kHvA4E/of29q8EY7xPopdhPBwPXrazhDGE+uhIBCSSlxKocNSrd+Cj+me9SuRZHIvnfeqNsr9En3758mXKvy6eJT/lcEslI3cnJowRnGy/rZ3Dq+354bKcF4NJpE+QIoDYwku/zeMwCPzDif56ZVHCGGaNAPUCuNabbHezHOf9+1SvyXYQ++qV9+xaAEAEwmIkXzDHOBukq80istypFABqzRab1WBfLtdeJAmRhmYxfrUrETrGenR34nHAqBjGy9A/qZAfe5myLpju0iX8Iq1IEILwbDOLk74ElorHYsIbLsPAPuXDfi1mmN+jGtHgCCMp4dFutCrm5TLwg+EmkY1FELQYh/YZhEUidYTglCeISunJMRNSepT+kJcrEXmW7enW9frfIdUsIQjntC/dUFCuURGcI8Tf7xARkkm+mMv6B6EyPpPFTCA6laBcRF8xqRgh5KaV+lV03ierjgjEhZSddFy+B37VtPz5SKlNqXWzcZsxpZiHxY7VBTCWs016h6SIhCDpfyunRNWkrQGYbFhY+mZWJBVrup9YfaJOydJOmwIF68+3oi6C9YUX2sP+devzG8DYMlwO99Iv3SUC077sm5zXA7JlIeWUASJP6p0QNMcRKfZylRy0CKOzQvn4e3SdivxOoHVtMWTvRHZOvOekknwiHQ8mznf5pIGWOjjKthPZsuLQBxFZcFS3OqmAS81Yga9Wld8GtG83Ag/eLNt+30a8n+PK2T8HpZaRcul5Ei1EXntnTGpYlpyUdl8gq5ZasMfwZomn1WY8/OaNdn8Jdmg4p0pZqyHJDtMCxRBOihSxqCpvdYc6li3s3ikrJXDCN3bTrwVyyroZcNkTIufVjhSc3d6RDYZlVWmTO5QTFp1qStt+h1rwXcsxlbxQEAXiDcGZTRiludLJoqKHCUQ2pbosRXxXXTS6y/5O26oGUEWW+C1SHEfLCfqmGfKf3su97AipQAr8IizvXZ/6hvioumpxj5zguC0OM01KW35sW/df0KB1uCc7A6rmrJYNqVjJc/Xb7h5d/P63dtV38GpRt6ejtWtbKyuVE6j2xn/WB74j9HJC8J0BfW9XcQKmgq47nOj6kUnnB/sJOFnUX1+QNluSk+QeOeHb0+r1KpcCzzs117qBbC5xcihpgtCb/hTctG6/irbh6dl70Jio6NR8A5wc1GeHk1FzIh5XP1zoKvy7wfhTq4IxdNuQ16m59r/agtVwchCgEa+lLLxD117CbSuOpRaHbhPxKs/lE5ws769brNBuJE4AJvfgiTbQjizLOt6c5qRRND85HupPJb1p3X4VqG1bnQi6MIndhu4JsVnXc2lxsmO01J+G99l2+KL93rV9QZ2qz3N1vNsbqDmpjbSfMRrDIJC/usPujkLSrqN2UNxONLZqCEk3TNviJGJUBfudcYLFfcbuyfC16hpXAzspvNyu07bUnIgLnPC6EUpOXNnzmUf3G7tn+RSJ3STdr6shvjkoga7TFrpwuuh6/S1OEuYGZeT+07SMfzs4QZhSMht5xXCs2g6r3a4GgeaEX+Dk0BEKEsYW9G5lpAXBCCJ9bSvIRA3vNZAaU4/akOUFTrzqvEAwi925jFwAylmSjVbfhutQa2FHHyft6ELFCXi+svGF92psPgbGkGxTiCWzrTculwkcxN0es+YE+n2+x+4wBPt5MBjeyXOtIvC+d5YTnEpGCvLQQtJGrSEEcqWZknLTjHoFSjRIYe8TfH/zb34X1DQdqkZMJ2omShAqTtAmu1+H5KMQf1dDAcN9yoRjJKCHJO4yVvI5sK/cdTEiH6jp6Sn3GKr/INDeDuJ5+pxJq5wjfmmE9BSM4WTyuIanibQFy2HxfTtLPnAR4V7vTgMEHwFqR9p8HUARjOcYoXNSw9FGOv77+wwkfQStIKNTBwv46L0sVqPMolQNjTbcMLqL1dyc8ePKSSfS5rxXnOhvwVM5Hmwyqy8VMdidZK+jU/95XE5EJ3gUACfo50FwFHrBcp4qU5Pvq0Pp47qygnWG18GgsKwTfISx0bye3vP2uHZH4HZQQI/qnQnIQn+H1kEo73E5seiwVXU9+su+nucE/wmcoHakTc8SYN0gNXCS15w8cvykOzwK0zCYdYGTWqzucb7WR9GdQQAzsRgP2iNCwEm/GueyNw/cdrqj5TCzQODwLCdUxySdO53D9jF0R0FfQE5oJ3APnLhVnNa5yzlsH0RXmXrKQxW0E7g/4aSa/PWoaE9NScFr744Qak4qqnrZI8eW0NGSJlAhYz2tq+23HHGihonvcl7fRyHwtB9t3ub1oOnFUdNjOXHSh246lhod5ghTlGxXRfnu63nnuLNu4YiTZeY+5hBgB0wzA7FoC//nIidO+meN7xxWxbHZpCiXfqNmKk7e7XX2uKGTf4CSGmRFo7d5rK01xApo+EbQH9JuLgHak8uyl6JcK05EcjZG+weCMZRTqj/d+lkM/l1gj+6B/AKSraXWeH1sZPDPgJpiHaz33jYhkCeH3ftkvt8A9lftq/nLebqZJfxPN8ES4nhJqZSZ9+EDR9Y+Bsbbk7eCP8yhPwPajr89GU6mhpMO+u34m+FE9YANJy10ArKGEysvDSdt5O0gteGkGS03nByQtyccGE4sPG6l7TOcWOR7YOSkBcFFNEqHepDQMZxoMKbSkYlsNYbIvekDNmAI0zzZDsaGkxMIxpGJKRkYGBgYGBgYGBgYGBgYGBj8f4LdeA6YuMUDMHb5rhxbScLp7YJSxLWyXYR/JZ0NpxXwp+ckIZfPdjOLnptSzHflk+8HcXQjUWH05b3n2I6/Tz4dPyWT97VEvC73K+scp4wJfo4uwehGb40VFkk7RsnYrprKEjEVwvzsU/3PYMm62qvNdj693LVOug3XF2feOBOzTTo4U6waXHaqKzu7Z9TLo0JkRVtv/JEMK78TjK2batmbT5JCmrXGPdtedwRCv/B1N/NJvxlbdjo7ADBIieD46/0XWPxz7SznRKfZC0GQVU7Gz1/dVG7fzqms1t32znBSZ6cN1DBQ6bZuWi3fnkw5VR96V8/8ru7qrNF0B7MW0/xTF1f7rGx3K6iF097fQCdFiTucwJowxx9ZyeJHd6Egg7yrzk/OUHADOakyuWyIcH9AC8YWR4RiQahLa6UpEHVdaR/UV6RWdklzIw/wAycRpzp7jhQUwThWv2KusoiOIJHOVGXpEpz2XVWOJSy9FjmVZXJcrSdliE7VTQSzOANOFhhBBt+eQFedya9Tn/ZElYDasSO+GIzLNX1eB+E+A4uAyEsZButxJJUNm6TzeO9uyjAsR/0DJ8xCsOHkE2e5WM2Xr8FyvsGMPIM8hN4gEpiMxuswCEtP5IJApfVqfU0JstJYXvUtosxKBmrxpVN43ndo0QNvc01S9ELpgAq910fP9lyl851qofQzFwxF9WLqSW5x9ZBhpSBTdOCE9SFDkD9L5odNR2MrX9a7kI5wGtSKPMi0INhH2cnQpp5I6hHeyo0uLxpeMz/VFJbDQvpknSdpPh3azfxwP5GifFhf7uw4CZpfHTtBjZykuhEeb7yynx7yp27dJpWqE3IMxcTNhoGjZuaKl3fzxf+45oLCHG6pMmcxS28q/EVx0nN83+nJAynSlS3VRojSQnCtS6uNAV/ogZMqnfBqCqfrWea9/hAagR8EP9FCOUA9+M8eVWTFk6Ta7wv0SzwEWUtmsKmvEwRBta4wuGbOLkkE1FjdkoPAL0FO7DhJ4DHXWszD6XSuKpeAnNj7ZAZ/B0ec6G1kPMT84WYWpVqOCPyNUSJVaLx8yaJnINOjaSVpfizVjqX3oFlSTZWH9L0nlpgBtdHf55j83Zzo9SWQYg+BnIQgJ3ZBMTx2gCCzx5hqOdj0gYst0XsWDdyGE52yPZWtAXFGXChspusO/olaps2qrP8DlDRtpeTSb1VfC6Q3Noqxzvc9IRz2RJP+yTWNcbURG6iwE07GqEr9ksAeER7RdfZ0evsRRxc5gdT1bAqtZ6aJrfwTtU82gtIHpMkGKF06V0DqlBVHz9BmMKs4YTUnV6TEYl81J9L/FDlwsqw5YTrfWgRfn/McKlFc5kS3nTckW4mUlWnPaXMiiHQzEEjEgFhot+7V2nqj9hdw7AknW2hQ4racWAc5EVpO4gMn0Jbt2VpZ1nC5hMcc15yQNifV/horgqIiDkNtq4454cKTTo3O6y05sTjeDdZ6N4Eygq3DN7za0ym5KScWBiJ0h0S37gMn2iJmR5t/S+V6mRPd85m4kyNjfMQJy16b4wPtrOF8A5w8RdqH4ZBL0rk1J+7BP6nyOO6np5woOWmmvc4vc6L3ptlFvnr35bzNCdbW9kfQcKJuD+cFma0TLpHFv4ETnQEqoIeddVZuzYnuwfwFhuJtCxjN0EVOhsr/CAhQM5n+t6VjoVU4+y/T4Qkn2g8OIlAtsu2M7Nvrk8r9dNjBcES44qRKr2XBmxxQLkEQI5c4ga0hnPK/SpH4X5l7LCeyaWoru+Wk4kRo+0S0wSeQxuyFaz/l9bZ2p5YO2RtzIaVL2EcVJ/r5Aq07S5XRhVjsEifI1bZ1NVW1CQSjzqmc6Ln4O17ZYiQmOZe2WSeMKb+A0hogTVGcWzflpNrSYWlNdVrPNNdPXbhT4CjGoGZ6iymlm/DrBU6+T1K4+pVDEMD/yqd2Y4ud+AumhTqwJTqD3cBdSb8+YpFOreO50OLKqfZjB/iUEzvpXzd/Cl840CUJQdkGCQNOnPD7AGrpEVip5PTiUvpVP+g5TkAk4J8RohBmXU23cCDrD5SWcfbDHUjdcPqX1rGuctJ8H27h9LjIdEAXhEml1Kw50Xo/Hl8596zUKI21nSDNSQVHtgKeOfXvjr3Nn5xjTqYnuR/lC+a6gxvoqPdzv94ccMV1bNOHH8ZNekT5fYIsWtR30Ll3K04sXK1qWF45lzV+O0QGXnLLOubE3yrnanTwOMJFfurHHnHihCOscnLNdd3eVaFDzKpAQzFd6eOhMkjhpFnB4a9UwzhkmZWaTBzk5LCz6yu58ugXnc1D3w/CAgJpmpN4KY8MdR4klBRhIL+uXwjn8+FwWO4QL0r5d0M28o/CPB2hyhEbyHOfvMwJ5qsZQsn8VbaRpxXHG1XkPgmDcrBAbDKEMuVNta6gmzXcYyS7yYyNVZkqnI88+Wh+ML/6fhuMkmiW6JTarNaxUWRR3R8VDJNEfSWqyhRjyoSFKMWUH8YBMeLVmxSYz2aC8JksVVUvt2ZZQrAQBMNNEkFlv0cgla8rktqzriynQt0D0mlaWJYIvwiEomzG+jfIkdGM3FacjPFp//xvhnbPFWYd5wxqyobjxye2L7xc3C1Rc2KWmTQwnJyB4aQLVNq94PWRk4x/HuznNkseebOcX8Ht9byBgYGBgYGBgYGBgYGBgYGBgYGBgYGBwePh/wD50hhzBhD3owAAAABJRU5ErkJggg==;" vertex="1" parent="1">
          <mxGeometry x="135" y="625.8" width="82.65" height="55" as="geometry" />
        </mxCell>
        <mxCell id="x8RBoShG9JMl1PIIcemX-17" value="" style="shape=image;verticalLabelPosition=bottom;labelBackgroundColor=default;verticalAlign=top;aspect=fixed;imageAspect=0;image=data:image/jpeg,/9j/4AAQSkZJRgABAQAAAQABAAD/2wCEAAkGBxEQEBEREBAQFhAQEA4REBAQERAQEBEQFhcXFxcWFxYZHiojGRsmHBgXIjMiJistMDAxGCA1OjU6OSovMC0BCgoKDw4PGxERGzAmISgvLy8vLy8xMC0xLzEvLy0wLy8vLy8vLy8vLy0tLy8vLy8vLy8vLy8vLy8vLy8vLy8vL//AABEIAKcBLgMBIgACEQEDEQH/xAAcAAACAgMBAQAAAAAAAAAAAAAAAQIGBAUHAwj/xABPEAABBAEBBAYECAoIAgsAAAABAAIDEQQSBQYhMRMiQVFhcQcygZEUI0JTYqGx0TNDUmNykpOywdIVJCU0VIOisxd0FjVEc4KjwuHi8PH/xAAZAQEAAwEBAAAAAAAAAAAAAAAAAQIDBQT/xAAzEQACAQIEBAQDBwUAAAAAAAAAAQIDEQQSIUExUWGhEyJxkTKBwQUUM0Kx0fAjcpLh8f/aAAwDAQACEQMRAD8A6ohCFYoCEIQAhCEAIQhACEIQAhCEAIQhACEBFIARSkAikAqTAWOM+H56D9rH96fw+D5+D9rH96AyKTpKKRrxqY5rm97SHD3hTAQmxGlKk6UgEBGkwFIBOkBGkwFIBSAQEQE6UgE6S4IgJgKWlTAVbkkAEwFOkAIBUilJMBCbCATpOk6QGmQhCsUBCEIAQhCAEIQgBCEUgBCdICAVJ0nSYCAVJ0tTm7zYcEjopciNkjKDmO1WLAI5DuIXn/0y2d/i4v8AX9yA3dIAWk/6ZbO/xcX+v7kDfLZ3+Mi/1/chJyXZ+NEWtLomOLpHAl2q66SNvYR2OK94sWF2kdDD1tF0JO3o7+X9Mrz2bIzQ25YgRI8kPlY010kbuRPcCsiGSNpaTLB1dF/HRHkI77foFe6mk0uBxK0pKUtXxe7OiejAf2ZD+nP++Va6VX9F4/suD9Of98q10vCdsQCYCkAmAlwRATpSpQimY5z2te0ujIbI1rgSxxAcA4dhog8e9QwSAUgFOk6UEkKUgE6TAQWEAmnSkAhJGk6TpMIBUilKk0AqQAmhAaNCEKxQEIQgBCKTpAJFKVJ0gIp0pUikJsIBOk6UgEFiNJgLR7b3vxMOXoZ3SCTQ19MjLxpddcfYVgD0kbO/Lm/ZOQFJ3uA/pLNNNNOg9ZrXV8V4+QWrcG/kRdv4uL854eAWRt3asORmZMzH1HKYSwva4E6Y9J4AGuKw3Tx/Os7fnPp/R+kvXTaUVr3OXiIN1JeVvhs3sj3xo2DpT0cR+NPOON1Do2mhY4cVkUz5qLt/FQ/yrDxcqP4y5Wi5SWkiTiNDW3wHeFkfCofno+3sl/lV4zVtGjCVKT/I/wDF8vQxo2tBcNEf4aUcY2Hh0jBXEcqKlG1p03HFx0X8VF29H4eJXjHkx2SZAPjZXC9fFpkDweA7gpRzxivjG8NPyZOzR4fQRSjzXYmdOevle+z69Dq3ouH9lwfpz/7jlbQFzHcXfbDw8GKCd0olY6UkNiLhTnEjj5FWD/iZs38ub9i5eDgdot4CdLw2bmMnhjnivo5WB7NQ0nSeVjsWUAoJNNvZtb4HhzzitbGVGDyMriGt+s37FyjZrcnELcuCRxyD18ljyS3IDjqc0jtPH38le/S6f6jGPkuyoA7ypyrRXswtKNRSzHM+0cTOi4ZOr9tjpG7m2Y87HZPFydYew+tHIPWYfL6wQe1bQBcr3G2g3D2hNC97WQZUJmt7gxjJW8zZ4Cxq+pXp2+GzgaOdjX4StI94XlnBxk4s6FKoqkFJbm7pOlj4O0IZ26oZo5G9pika8Dzo8FlAKpoKk00IBUmhK0A0WlaVoB2klaVoDToTpOlYoRpNOlKkBGk6TpSpCbEaTATAUqQEaTpSATAQEQFIBa/b+2I8KAzzB5Y1zG1GAXEuNCgSFXB6S8X5jM/ZR/zoG0iuekEkbUJB/wCyQcf80AqvRTv6vXdx0dp/M/efes/ejbbMvNM7IshsZgjjp8XX1NkDuQPLh3rVslaK6uRw0/ie7o/pfm/rXqpStG1zlYmneo3a/wAj3xJXAvcHHUYsazZv1ZPuWU/Kk49d3yu0/nfuHuWugnaHOts+no4mgiIk20OBsauHrL3dlsPycnt/EDt1/T+n9S1jPTjz36swlS11jy26LoIvcJJqJBMnEg8/i2J9M/8AKd+sV4GdpMh0zAOkJb8VZrQGcRfDkn07fycj9j/8lCn17kyo849unoZOBK5oAa4gGeWwDV/Hxj7CVkQTvOi3uN9Hdk8bEd/afesDGyWD1mzg9JI8ARFwova8cbH5NL1jy426erkdXT+I510f0/ofWrRqcNe5WdF3fl57GJBK5sTKcR8TfA9umc/wHuXvkyuIkBca0z8LNfj/ALh7gsaEgRta5swcIww1ESOUg7/p/UpzStIfTZrcJaBiIFu6Tt1fnPqVIz8tr7F50nnby7vbqdv3FH9mYX/LxfYt6Auabt+kHHxsTHgkgzC+KJjHFkTS0kd1uHBZ7/ShCfweFnOd3GNrR77K8Nmzs54rc3XpB2S7K2dNGwEyMDZYwOZdGboeJFj2rnWzcsTRMkHaBq8HDmFtdob6bSyAWwxR4rD8t56SWvCxQPsWgxsVsAdTnOc86pZHHmeZ4dnauhg4VIu7WnU4/wBp1qM4q0rtctR7Rw45ntc8E6BQF8Od9i8hgQ/NR/qgqONNNK0PhwsqRhJDXxxPex1GuBA71tMTd3aeQaZiiBp/GZDg2h+jz+pauvQWunseaOExbtHVL10XszRS4uiaIYmtmXI9rYeicWusntrkPq5rveBFIyKNsr+kkaxgkkIDdbwOLqHAWVXd0dy4sEmV7zLlPFOmcKDQebY2/JHjz9nBWq1zas1OV0rHdw1KVKGWUrsZStK0iVmbjtK0rSJQDtK0iVG0BJIlIlRtCLmAAnSkAmArEEU6UqTpARpSATAUgEBGk6UqTpARpabI3oxYss4ksrWSBjHBziBHqcT8WXcmuoA0fygsvaOynzgj4VkxtPyYDFGf1tBd9arJ9FmESSZcokkkkyRkknmSdHFLjU9PSv8A9XAjl8Ix+I5Edb/2VTgPWHt+xbjencKHGwJ348+UeiaJOifKDCQ1wLiWBoFgWfYqJHEXtBMs9EA/hCvbg5tZklyOV9p0lPK27WvtfkWafaEUbg18gDnGgC7l593tWRaqv9Dx98nvb9y9ocLR6kszR3Nk0j3UvXGdS+q7nLnSoW8snfrH+fUslosrRaH/AOIyP1mfyrxkxC/1pskjuMvD3K7qS5d0ZqlDeXZm2ztqxRcHv61gaW9ZwHeR2LKhma9upjtTT2tNhVj+h4++T3t+5Ti2Y1htkkrT3tfpP1BZqpVvqlb1NpUsNl8snfrHT90We0nOoWTQHMk0B7Vog2T/ABOT+u0/wWPLga/Xlmd+lJqHupaOctl3Mo0qd9Zaen/DbxbZge8sEgscnHgxx8Cs+1Vv6Hj75Pe37lOLZ+n1JZm+DZNA9wWcZ1fzJe5rUp4f8kn81/P0ZZrRa0Gl4H94yP1mH/0rGmY5/Az5BHcZOHuAV88uXdGUaMW/i7M3M+0ow/oxI3V28fqvvWJnNfKY8eEXLkvbGwfRJ4k+FfVa0z9nxtBJL6HPiPuV19Hm5XTxfC5JMiIFxGMYZOik08Q5+quR5Cquj2FeWtXnGNmkr8mdHC4KnOalGTduN1Y6jsbZzMbHigj9SFjWA9prm4+JNn2rWbX3vxMaaOB8rDNJIyMsa4How41qkPJg81gZO4kcoqTP2o4drXZRLT5jStf/AMKMD5zK/Xi/kXOO5qX20rWg2Pu58FAZFmZhjbwEcr4ZWAdw1MsDwBC3lqCSRKSiSi0FxkotQtRtCCZKiSo2lamxBK0rUSUrU2BABMBSATpARpMBSpSpLgiAnSlSlSi5JCkwF6UgBQBUnSaYCEnjkY7ZGPjeLZIxzHDva4UfqK4HJhuxppsaT18eRzePymc2u9oIPtX0HSoPpN3ZdK0ZuO254W1KwCzNCOPAdrm8fMX3Ba0amSVzzYqj4tPKuOxQoX9i9F4YGz8yeNssGOHxu5ObNFz7iC6wfArPZsXaJ4fBAPF08IH7y6P3mnzOI8FV2XdfueC9I9IbLI9rnNgidKWNOlz6c1oF0dItwJNcACs+Hc7aT+YxIx3ue55HsaCCsfK2ZkYE+l8xc+g5kjW6GlpBBoe8EH+KKsp+WPEh4aVK06nC605/QjI6CSCGfH1gPLo5Y32QyZrWucGOPrN6wFrGXpPkPkIL3XpFNFNa1o7g0AAewLztaQTUbSd2YVZRlJuCsuQISLgO1ebpe5XKHra8nS0vJzyUlBZRJOcTzUEnvDRZNDxW23W3Xm2k4PdqiwgetKRT5a+TH9/IeJ4LKrVjBXZ6aGHlVdo8OYt0d3HbTmtwIw4XDpX8ulcPxbT9p7B5hdrjY1jWtaA1rQGta0UGtHAADsCx9n4ccETIoWBkcYprG8gP4ntvtXva5c5ubuzv0qcaccsSRKVpEqNqhpckSkSokqJKAkSkSo2latYglaRKhaRKkEiUrUSUrUAkSokpEpWgMkBOlKlIBRckgApgIpSAUAjSYClSdISRTpSATQEQE6UqRSAQTpNCAoW39158aV+ZswA6+tkYR4Rzd7o+53h7u4+exd44Mk6ATHO2w/Hm6krXDmAD63s9oC6CVod4N1cTO4zxDpBWmaPqStrl1hz8jYUplJQTMUOI5ErX7wbO+FRabqRlmJ5HI9oPgfuKxpN1dp4390zY54xyizWnWB3dIOJ+pY7tobVi4TbKc6vl48zXg+TRZV4yad0YTpZllktCk5LJI3uZIC17TRaR/wDbHivIuPerTtXaZnbpn2RtLUL0vZA/W3ydp5eHJVv+jstxIjwM4i+rrx5GGvHhS98MVFrXQ5VTA1E/Krr5HihbCHdfaknq4Lm+Mr4mAewuBW3w/RxnSfhp4Ih3Rh0r/sA+tTLFU1uTDAVnxVvmVZzgBZIA7zwRhMmyX9HiwyTP7dI6jfFzjwaPOl0vZno0woiHTmXIePnXaY7/AEW/xJVuxceOFgjijYxg5Mja1jR7AvPPFt/CrHrpfZ0VrN37f7KHu56N2tLZdoPErxxbAy+hb+kfl+XAea6A0AABoAAAAAAAAHIAdiCVG15G29WdCMUlZEiUiVG0rUEkiVElRJStWsCRKRKiSlaAkSo2laiSgJWlajaVoCVpWo2laEXJWklaRKA2tJgJ0nSqXI0pAJp0gFSdJ0hAKk6VB9K+28jEjxTjSmMvlfrLQ06g0Cmmxy4q+NPAeQQEkJJEoB2i1G0IB2kSlaofox27kZbs0ZEpf0UsRjsNGgOMltFDl1QgL5aVqJKVoCepK1EqBKEEiUrUbSKmxBIlRtanenPkgxJZYiBIzo9JIDgLe1p4HwJT3Zznz4kUspBe8O1EANBIc4ch5K2Ty5vkU8RZ8m9rm0LkiUgeKqu5+3J8mXJZM5pERbopobQLnCuHPkFMYNpvkJVFGUYvf6FqJStVba+25o9o48DHN6GQR62loJOouB48xyCstpKLSTe4hUU20tnYkSlar++e1JcbHa+FwD3StZZaHcNLjyPkFs8TJc7HjlNanQtkNDhqLA7l5plaipBVE5uG6SfuZhKVrn+ydsbUymudC5rg0gOtsLaJF9qzJJ9ssGosY4N4loEDiR5NNn2LV0GnZte5hHFxksyjK3oXMlK1pd2tvDMjdbdMsdCRnZx5OHgaPlS29rKUXF2ZvCanFSjwJEpWo2i1UsO0rQhACEIQG6TpNCqXBCErQFD9Ie9suO+PDwheXKG24AOMYcaaGg8C8+PIea08fo52hK3pJtpPEzutp1TSBp7teofUEams3pcZuAeG9CXctRx2tbXtDh5rqVqStrnz9vbNnxlmHnuLzA4vikcdRcxwAsP+W3h28QbC6V6Qt7n4YixsUXlztaQa1GNhOlpDe1zjYHkVo/TQ5j5MKJtGYmTgPW0PLGtB83A15FG1C1m8sBmoMLIejLuVmJzG/wDmWPNCAh9Hm0Zm9LkbRe2Z3HRqlk0nuLg4AewUjYm383ZmYzC2k8yQyFojmc4v02aa9sh4ubfAg8R9vUCVzP02SMMWLGK6YySuaB6wj0gH3u0+7wQlq2qN36Q97n4LGQ44Byp70cNWhl6dWntcTwA8D3Uq9B6Ps/Ib0uVtB7Zn9bQTJKWE9hIcAD4NFBR3hIj29s98/BnQ4o1O9XV8Y36n0uokoCt7k7KzcVkseZkNmbqb8H6z5HNaL1W5wvj1eHGqK51ubvRHs6PaD3DVLJJCIIuWpwMtlx7GixZ8QF2clfP27U+LHnNdmNLoRI/xa1+rque35TR2j/8AFKIZ0j0eYmbI+XPzJZKyGVHA4uDNNgiTQeDAAKb4Enz0+ftrO2xkSY+BIYsWI0+YOLNTbrU5448aNNHMc/DoO1yZMWfoSC6THm6JzSCCXMOkgj2Kg+i7a2Pj4GS+aRrOjnDpL9YtcxoYAOZJIcAB22gPLN3GzcON2Rj7ROuJpe8Oc+AEDies5xafJ3BWX0fb0u2hA8SgCeEsD3NFNe116XV2HgbHh4qqZGTl7fm6OIOhwInjW48jXIu/Lf3N5Dt7zfsDZMOFjPigbpDWPcXHi979J6zj2lAimbZ3hzNo5T8PZriyKMkSTtJaXAGi4vHFrb4CuJVk3P3enwumM2U+cy9HQcZC1mnVZGpx4m/DkFX/AENMHwbIfXWdNG0ntIDAQPe4+9dBtAkaXfk/1Cf/ACf9xiwt09s40eHCx88TXtD9THPaHC3uPEFZe+x/qE3+V/uMWn3b3XxZ8WKWVjy94fqIkkaDTnDkD3BeiOXwvNfjt6HjqZ/vHktfLvfn0LIN4MS/7zBz/Lb96q3o8dcuWRyPRkHwty243MwfmnftZPvWm9HjQJcoDkOjA8gXBSsuSeW+36kSdR1aedLfhfl1SJbfP9r4vlD9r1dSVSN4jW1sUnkRDx/8Th9quqpV+GHoaYd+ap/d9CsekU/1Rn/fs/dctzgH+qRf8sz9wLR+kZw+CsHaZmkexj7W7wQRixg8xjtB89ASX4UfViH48vSP1KjuHtaCCOVssrWFz2loIcbAFdgKsc29eG0EiYOI5NY15cfKwq1uPsiDIjldNEHFr2hpLnigRfYQrHJunhuBAi038pr5LHlZWtbw/Ed79jz4Xx/Bjly9L3NVuNjPdJPkuaWxzEiMcrt5cSPAcBfmrgqbuhK+DKyMMuLo2a3MvsLTVjusEWO8K5LKv8ftb02PRhLeGl639b6iQhCxPSCEIQAhCEBu7StK0rVS47RaiSkgKlv7ucNoNZLC4MyoRTHkkNe27DXEcRR4g9llVuLam8cLehON0hHVEro2SO89bXhp8yPNdQJSJU3Kuxz7dTcuc5Hw/ab9c9h7ItQfTxyc8jhw7GjgFud+90m7Rja5jgzIivo3m9LmniWOrjV8Qew+ZVmtK1Ascxg2hvFjt6E4/S6eq2VzGzGuzrtcAfN3HvWVu5ubkzZIztqP1StLXRw21x1N9XVp6rWjmGj2+PQyVG1IsV3fjdZu0YWgODZotRhkPFvGtTHfRNDyIVSxsveHFaIOgMrW9Vj3NbNw7Ou1wsfpcV060iVIsV3ctu0dEztouFvc0wx/F6oxx1Xo4AHq0OPIqrbr7kOkizos2Ex65YzBJbS9rm9Jb2UfV6w58CulEqNoRYpm4OFn4kk2LkN1YsbS6Ca7bqLhQZ26SLNH1SPFaXfH0eyOlfPhBrhIS58BIY5rjzLCeBBPGuFLphKVoLHMMN23XMZjQQNxo2UA5sccTQO8ucXX3mgSV0hzHmEtcQZDEWucOq1zy2iR3C17WlaEop/ow2VPi40zZ4nRudPbWuqy0Ma2+HZYKuNqNpEoQjUb4xufhTNY1znHo6a0FzjT2k0AnulG5mHC17XNcGvtrgWuFvceIPJbW0rV8/ky9bmfh/1M/SxIHiqfuNjSRy5RkjkaCWAF7HNB4v5WOKttotIztFrmJU80oy5X7qxX98NiOyWMkh/Dw3pF6S5vOgewgix7VrId754mhmRivMjeBdboy7xILTx8ldErVo1FbLJXRnOg8znCWVvjwdyjNxcnaczHzxmLHjPBpDm2O0Nvi4mgL5BXaZvUcAPkOAA8uAXohROea2lkti1Kjkvrdvi2c53c2hk4bHsGHK/W5riS2RtECq4Arau3ozHdVmA8OPIlsrgD5UPtVxtCvKvGTu4L3ZlDDThFRjUdl0X7Fa3S2LLC6TIyPw01jSSCWgnU4kjtJrh2UrKhJZTm5O7N6VNU45YghCFU0BCEIAQhCA2xRaEKpcjaCUIQggSlaEIQIlK0IUgVqNoQpAiUrQhAK1G0IQBajaaEBFK0IQgErQhAK0IQgBCEIAQhCAEIQgGkhCAEIQgBCEIAQhCAEIQgP//Z;" vertex="1" parent="1">
          <mxGeometry x="506" y="305.15" width="110" height="60.83" as="geometry" />
        </mxCell>
        <mxCell id="x8RBoShG9JMl1PIIcemX-37" style="edgeStyle=orthogonalEdgeStyle;rounded=0;orthogonalLoop=1;jettySize=auto;html=1;exitX=0.5;exitY=0;exitDx=0;exitDy=0;" edge="1" parent="1" source="x8RBoShG9JMl1PIIcemX-22" target="SZY12_XKgGBlkoAp8IEY-8">
          <mxGeometry relative="1" as="geometry" />
        </mxCell>
        <mxCell id="x8RBoShG9JMl1PIIcemX-22" value="" style="shape=image;verticalLabelPosition=bottom;labelBackgroundColor=#ffffff;verticalAlign=top;aspect=fixed;imageAspect=0;image=data:image/svg+xml,PHN2ZyB4bWxuczpjYz0iaHR0cDovL2NyZWF0aXZlY29tbW9ucy5vcmcvbnMjIiB4bWxuczpkYz0iaHR0cDovL3B1cmwub3JnL2RjL2VsZW1lbnRzLzEuMS8iIHhtbG5zOmlua3NjYXBlPSJodHRwOi8vd3d3Lmlua3NjYXBlLm9yZy9uYW1lc3BhY2VzL2lua3NjYXBlIiB4bWxuczpyZGY9Imh0dHA6Ly93d3cudzMub3JnLzE5OTkvMDIvMjItcmRmLXN5bnRheC1ucyMiIHhtbG5zOnNvZGlwb2RpPSJodHRwOi8vc29kaXBvZGkuc291cmNlZm9yZ2UubmV0L0RURC9zb2RpcG9kaS0wLmR0ZCIgeG1sbnM6c3ZnPSJodHRwOi8vd3d3LnczLm9yZy8yMDAwL3N2ZyIgeG1sbnM9Imh0dHA6Ly93d3cudzMub3JnLzIwMDAvc3ZnIiB4bWxuczp4bGluaz0iaHR0cDovL3d3dy53My5vcmcvMTk5OS94bGluayIgdmVyc2lvbj0iMS4xIiBpZD0ic3ZnMjE1ODUzIiBpbmtzY2FwZTp2ZXJzaW9uPSIwLjkyLjMgKDI0MDU1NDYsIDIwMTgtMDMtMTEpIiBzb2RpcG9kaTpkb2NuYW1lPSJ2aXN1YWxfc3R1ZGlvX2NvZGVfbGV0dGVyaW5nLnN2ZyIgeD0iMHB4IiB5PSIwcHgiIHZpZXdCb3g9IjAgMCAxMDQuNDEgMTA0LjQxIiBzdHlsZT0iZW5hYmxlLWJhY2tncm91bmQ6bmV3IDAgMCAxMDQuNDEgMTA0LjQxOyIgeG1sOnNwYWNlPSJwcmVzZXJ2ZSI+JiN4YTs8c29kaXBvZGk6bmFtZWR2aWV3IGJvcmRlcmNvbG9yPSIjNjY2NjY2IiBib3JkZXJvcGFjaXR5PSIxIiBmaXQtbWFyZ2luLWJvdHRvbT0iMCIgZml0LW1hcmdpbi1sZWZ0PSIwIiBmaXQtbWFyZ2luLXJpZ2h0PSIwIiBmaXQtbWFyZ2luLXRvcD0iMCIgZ3JpZHRvbGVyYW5jZT0iMTAiIGd1aWRldG9sZXJhbmNlPSIxMCIgaWQ9Im5hbWVkdmlldzIxNTg1NSIgaW5rc2NhcGU6Y3VycmVudC1sYXllcj0ic3ZnMjE1ODUzIiBpbmtzY2FwZTpjeD0iNjkuNjA3ODQzIiBpbmtzY2FwZTpjeT0iNjkuNjA3NTcxIiBpbmtzY2FwZTpwYWdlb3BhY2l0eT0iMCIgaW5rc2NhcGU6cGFnZXNoYWRvdz0iMiIgaW5rc2NhcGU6d2luZG93LWhlaWdodD0iMTAxNyIgaW5rc2NhcGU6d2luZG93LW1heGltaXplZD0iMSIgaW5rc2NhcGU6d2luZG93LXdpZHRoPSIxOTIwIiBpbmtzY2FwZTp3aW5kb3cteD0iLTgiIGlua3NjYXBlOndpbmRvdy15PSItOCIgaW5rc2NhcGU6em9vbT0iNi4xMTY1MzY5IiBvYmplY3R0b2xlcmFuY2U9IjEwIiBwYWdlY29sb3I9IiNmZmZmZmYiIHNob3dncmlkPSJmYWxzZSI+JiN4YTsJPC9zb2RpcG9kaTpuYW1lZHZpZXc+JiN4YTs8ZyBpZD0iZzIxNTg1MSIgdHJhbnNmb3JtPSJ0cmFuc2xhdGUoLTAuOTQ5MTk1LC0wLjk0OTIwNDM1KSI+JiN4YTsJPHRpdGxlIGlkPSJ0aXRsZTIxNTc1MyI+UGFnZS0xPC90aXRsZT4mI3hhOwk8ZyBpZD0iZ3JvdXAzMzYtMSIgdHJhbnNmb3JtPSJ0cmFuc2xhdGUoMC45NDkxOTUsLTAuOTQ5MTk1KSI+JiN4YTsJCTx0aXRsZSBpZD0idGl0bGUyMTU3NTUiPlZpc3VhbCBTdHVkaW8gQ29kZSAoTGV0dGVyaW5nKTwvdGl0bGU+JiN4YTsJCTxnIGlkPSJzaGFwZTMzNy0yIj4mI3hhOwkJCTx0aXRsZSBpZD0idGl0bGUyMTU3NTciPmNpcmNsZTQzOTM8L3RpdGxlPiYjeGE7CQkJPGNpcmNsZSBpZD0iZWxsaXBzZTIxNTc1OSIgc3R5bGU9ImZpbGw6IzAwN0FDQzsiIGN4PSI1Mi4yMSIgY3k9IjU0LjEiIHI9IjUyLjIxIi8+JiN4YTsJCTwvZz4mI3hhOwkJPGcgaWQ9InNoYXBlMzM4LTQiIHRyYW5zZm9ybT0idHJhbnNsYXRlKDI2LjQ4MjUsLTM5LjQyMDEpIj4mI3hhOwkJCTx0aXRsZSBpZD0idGl0bGUyMTU3NjIiPnBhdGg0Mzk1PC90aXRsZT4mI3hhOwkJCTxwYXRoIGlkPSJwYXRoMjE1NzY0IiBpbmtzY2FwZTpjb25uZWN0b3ItY3VydmF0dXJlPSIwIiBzdHlsZT0iZmlsbDojRkZGRkZGOyIgZD0iTTM3Ljk3LDU1LjYxTDE4LjAzLDc1LjU1TDQuODQsNjUuM0wwLDY4LjI5ICAgICB2MjUuMjlsNC44NCwzLjA0bDEzLjI5LTEwLjI0bDE5LjkzLDE5LjkzbDEyLjY2LTUuNDJWNjAuNDNMMzcuOTcsNTUuNjF6IE01LjQyLDg4LjE1VjczLjY5bDcuMjMsNy4yM0w1LjQyLDg4LjE1eiBNMjUuMzUsODAuOTIgICAgIGwxMi42Mi0xMC44OHYyMS43M0wyNS4zNSw4MC45MnoiLz4mI3hhOwkJPC9nPiYjeGE7CQk8ZyBpZD0iZ3JvdXAzMzktNiIgdHJhbnNmb3JtPSJ0cmFuc2xhdGUoMTIuOTY0MywtMTMuOTE3KSI+JiN4YTsJCQk8dGl0bGUgaWQ9InRpdGxlMjE1NzY3Ij5TaGVldC4zMzk8L3RpdGxlPiYjeGE7CQkJPGcgaWQ9InNoYXBlMzQwLTciIHRyYW5zZm9ybT0idHJhbnNsYXRlKDAsLTE0LjUzNTcpIj4mI3hhOwkJCQk8dGl0bGUgaWQ9InRpdGxlMjE1NzY5Ij5TaGVldC4zNDA8L3RpdGxlPiYjeGE7CQkJCTxwYXRoIGlkPSJwYXRoMjE1NzcxIiBpbmtzY2FwZTpjb25uZWN0b3ItY3VydmF0dXJlPSIwIiBzdHlsZT0iZmlsbDojRkZGRkZGOyIgZD0iTTkuMDcsOTUuNzdsLTMuODksMTAuNTRIMy44M0wwLDk1Ljc3aDEuMzcgICAgICBsMi45Miw4LjM2YzAuMSwwLjI5LDAuMTcsMC42LDAuMjEsMC45M2gwLjAzYzAuMDMtMC4yNCwwLjExLTAuNTUsMC4yNS0wLjk1bDIuOTctOC4zNEw5LjA3LDk1Ljc3eiIvPiYjeGE7CQkJPC9nPiYjeGE7CQkJPGcgaWQ9InNoYXBlMzQxLTkiIHRyYW5zZm9ybT0idHJhbnNsYXRlKDEyLjc1MDYsLTE0LjM1MDkpIj4mI3hhOwkJCQk8dGl0bGUgaWQ9InRpdGxlMjE1Nzc0Ij5TaGVldC4zNDE8L3RpdGxlPiYjeGE7CQkJCTxwYXRoIGlkPSJwYXRoMjE1Nzc2IiBpbmtzY2FwZTpjb25uZWN0b3ItY3VydmF0dXJlPSIwIiBzdHlsZT0iZmlsbDojRkZGRkZGOyIgZD0iTTQuNjIsMTA0LjExYzAsMC42NS0wLjI1LDEuMTgtMC43NSwxLjU5ICAgICAgYy0wLjUxLDAuNDEtMS4xNywwLjYxLTIsMC42MWMtMC43MSwwLTEuMzQtMC4xNS0xLjg3LTAuNDZ2LTEuMjljMC41OSwwLjQ4LDEuMjQsMC43MiwxLjk1LDAuNzJjMC45NiwwLDEuNDQtMC4zNSwxLjQ0LTEuMDUgICAgICBjMC0wLjI4LTAuMS0wLjUyLTAuMjgtMC42OWMtMC4xOS0wLjE4LTAuNjEtMC40Mi0xLjI3LTAuNzNjLTAuNjctMC4yOC0xLjE0LTAuNTktMS40Mi0wLjkxYy0wLjI3LTAuMzMtMC40MS0wLjc2LTAuNDEtMS4zICAgICAgYzAtMC42MiwwLjI1LTEuMTQsMC43NS0xLjU2YzAuNS0wLjQxLDEuMTQtMC42MiwxLjktMC42MmMwLjYsMCwxLjEzLDAuMTIsMS42MiwwLjM1djEuMjJjLTAuNS0wLjM2LTEuMDYtMC41NC0xLjcxLTAuNTQgICAgICBjLTAuNCwwLTAuNzIsMC4wOS0wLjk2LDAuMjljLTAuMjQsMC4yLTAuMzYsMC40NS0wLjM2LDAuNzZjMCwwLjMzLDAuMDksMC41OSwwLjI4LDAuNzdjMC4xOCwwLjE3LDAuNTcsMC4zOSwxLjE1LDAuNjMgICAgICBjMC43MSwwLjMxLDEuMjIsMC42MywxLjUxLDAuOTZTNC42MiwxMDMuNjEsNC42MiwxMDQuMTFMNC42MiwxMDQuMTF6Ii8+JiN4YTsJCQk8L2c+JiN4YTsJCQk8ZyBpZD0ic2hhcGUzNDItMTEiIHRyYW5zZm9ybT0idHJhbnNsYXRlKDE4LjQ4MzQsLTE0LjM1MDkpIj4mI3hhOwkJCQk8dGl0bGUgaWQ9InRpdGxlMjE1Nzc5Ij5TaGVldC4zNDI8L3RpdGxlPiYjeGE7CQkJCTxwYXRoIGlkPSJwYXRoMjE1NzgxIiBpbmtzY2FwZTpjb25uZWN0b3ItY3VydmF0dXJlPSIwIiBzdHlsZT0iZmlsbDojRkZGRkZGOyIgZD0iTTYuMjQsMTA2LjEzaC0xLjJ2LTEuMTlINS4wMSAgICAgIGMtMC41LDAuOTEtMS4yNywxLjM3LTIuMzIsMS4zN2MtMS43OSwwLTIuNjktMS4wNy0yLjY5LTMuMjF2LTQuNWgxLjJ2NC4zMWMwLDEuNTgsMC42MSwyLjM3LDEuODIsMi4zNyAgICAgIGMwLjYsMCwxLjA5LTAuMjEsMS40Ni0wLjY1YzAuMzctMC40MywwLjU2LTEsMC41Ni0xLjY5Vjk4LjZoMS4yQzYuMjQsOTguNiw2LjI0LDEwNi4xMyw2LjI0LDEwNi4xM3oiLz4mI3hhOwkJCTwvZz4mI3hhOwkJCTxnIGlkPSJzaGFwZTM0My0xMyIgdHJhbnNmb3JtPSJ0cmFuc2xhdGUoMjUuOTkyNywtMTQuMzUwOSkiPiYjeGE7CQkJCTx0aXRsZSBpZD0idGl0bGUyMTU3ODQiPlNoZWV0LjM0MzwvdGl0bGU+JiN4YTsJCQkJPHBhdGggaWQ9InBhdGgyMTU3ODYiIGlua3NjYXBlOmNvbm5lY3Rvci1jdXJ2YXR1cmU9IjAiIHN0eWxlPSJmaWxsOiNGRkZGRkY7IiBkPSJNNS45NCwxMDYuMTNoLTEuMnYtMS4xOEg0LjcxICAgICAgYy0wLjUyLDAuOTEtMS4zLDEuMzYtMi4zMiwxLjM2Yy0wLjcyLDAtMS4zLTAuMi0xLjc0LTAuNTljLTAuNDMtMC40LTAuNjUtMC45My0wLjY1LTEuNTljMC0xLjQsMC44My0yLjIyLDIuNDgtMi40NmwyLjI2LTAuMzEgICAgICBjMC0xLjI4LTAuNTItMS45MS0xLjU1LTEuOTFjLTAuOTEsMC0xLjczLDAuMy0yLjQ2LDAuOTJ2LTEuMjRjMC4yMi0wLjE3LDAuNi0wLjMyLDEuMTQtMC40OGMwLjUzLTAuMTUsMS0wLjIzLDEuNDItMC4yMyAgICAgIGMxLjc3LDAsMi42NSwwLjk0LDIuNjUsMi44MUw1Ljk0LDEwNi4xM3ogTTQuNzQsMTAyLjMybC0xLjgyLDAuMjZjLTAuNjIsMC4wOS0xLjA2LDAuMjMtMS4zMSwwLjQ0cy0wLjM4LDAuNTUtMC4zOCwxLjAxICAgICAgYzAsMC4zOCwwLjE0LDAuNjgsMC40MSwwLjkxczAuNjEsMC4zNCwxLjA0LDAuMzRjMC41OSwwLDEuMDktMC4yMSwxLjQ4LTAuNjNjMC4zOC0wLjQyLDAuNTgtMC45NSwwLjU4LTEuNThWMTAyLjMyeiIvPiYjeGE7CQkJPC9nPiYjeGE7CQkJPGcgaWQ9InNoYXBlMzQ0LTE1IiB0cmFuc2Zvcm09InRyYW5zbGF0ZSgzMy43MjMyLC0xNC41MzU3KSI+JiN4YTsJCQkJPHRpdGxlIGlkPSJ0aXRsZTIxNTc4OSI+U2hlZXQuMzQ0PC90aXRsZT4mI3hhOwkJCQk8cGF0aCBpZD0icGF0aDIxNTc5MSIgaW5rc2NhcGU6Y29ubmVjdG9yLWN1cnZhdHVyZT0iMCIgc3R5bGU9ImZpbGw6I0ZGRkZGRjsiIGQ9Ik0xLjIxLDEwNi4zMUgwVjk1LjE3aDEuMjFWMTA2LjMxeiIvPiYjeGE7CQkJPC9nPiYjeGE7CQkJPGcgaWQ9InNoYXBlMzQ1LTE3IiB0cmFuc2Zvcm09InRyYW5zbGF0ZSgzOC42MDI2LC0xNC4zNTA5KSI+JiN4YTsJCQkJPHRpdGxlIGlkPSJ0aXRsZTIxNTc5NCI+U2hlZXQuMzQ1PC90aXRsZT4mI3hhOwkJCQk8cGF0aCBpZD0icGF0aDIxNTc5NiIgaW5rc2NhcGU6Y29ubmVjdG9yLWN1cnZhdHVyZT0iMCIgc3R5bGU9ImZpbGw6I0ZGRkZGRjsiIGQ9Ik01Ljg3LDEwMy40N2MwLDAuODgtMC4zMiwxLjU4LTAuOTQsMi4wOCAgICAgIGMtMC42MywwLjUxLTEuNDgsMC43Ni0yLjU2LDAuNzZjLTAuMzksMC0wLjgzLTAuMDYtMS4zMi0wLjJjLTAuNS0wLjEzLTAuODQtMC4yNi0xLjA1LTAuNHYtMS40NmMwLjMsMC4yNywwLjY5LDAuNDksMS4xOCwwLjY3ICAgICAgYzAuNDgsMC4xOCwwLjk0LDAuMjcsMS4zNiwwLjI3YzEuMzUsMCwyLjAzLTAuNTIsMi4wMy0xLjU4YzAtMC40NC0wLjE1LTAuODItMC40NC0xLjEzYy0wLjI5LTAuMzItMC44OC0wLjczLTEuNzctMS4yNSAgICAgIGMtMC44Ny0wLjQ5LTEuNDgtMC45NS0xLjgzLTEuMzljLTAuMzQtMC40NC0wLjUyLTAuOTgtMC41Mi0xLjYxYzAtMC44MywwLjMxLTEuNTEsMC45NC0yLjAzYzAuNjItMC41MiwxLjQyLTAuNzksMi40MS0wLjc5ICAgICAgYzAuOTQsMCwxLjYzLDAuMTMsMi4wNywwLjM4djEuMzhjLTAuNTUtMC40My0xLjI2LTAuNjUtMi4xNC0wLjY1Yy0wLjU4LDAtMS4wNiwwLjE1LTEuNDMsMC40NHMtMC41NSwwLjY4LTAuNTUsMS4xNiAgICAgIGMwLDAuMzUsMC4wNSwwLjYyLDAuMTYsMC44NGMwLjExLDAuMjEsMC4zLDAuNDEsMC41NiwwLjYyYzAuMjYsMC4yLDAuNywwLjQ4LDEuMzMsMC44M2MwLjkzLDAuNTIsMS41OCwxLjAxLDEuOTUsMS40NyAgICAgIEM1LjY4LDEwMi4zNCw1Ljg3LDEwMi44Nyw1Ljg3LDEwMy40N3oiLz4mI3hhOwkJCTwvZz4mI3hhOwkJCTxnIGlkPSJzaGFwZTM0Ni0xOSIgdHJhbnNmb3JtPSJ0cmFuc2xhdGUoNDQuODc1MywtMTQuMzY3OSkiPiYjeGE7CQkJCTx0aXRsZSBpZD0idGl0bGUyMTU3OTkiPlNoZWV0LjM0NjwvdGl0bGU+JiN4YTsJCQkJPHBhdGggaWQ9InBhdGgyMTU4MDEiIGlua3NjYXBlOmNvbm5lY3Rvci1jdXJ2YXR1cmU9IjAiIHN0eWxlPSJmaWxsOiNGRkZGRkY7IiBkPSJNNC4zOSwxMDYuMDdjLTAuMjksMC4xNi0wLjY2LDAuMjQtMS4xMywwLjI0ICAgICAgYy0xLjMxLDAtMS45Ny0wLjc0LTEuOTctMi4yMnYtNC40NUgwdi0xLjAyaDEuMjl2LTEuODRsMS4yMS0wLjM5djIuMjNoMS44OXYxLjAySDIuNXY0LjI1YzAsMC41LDAuMDgsMC44NiwwLjI1LDEuMDcgICAgICBjMC4xNywwLjIyLDAuNDYsMC4zMiwwLjg2LDAuMzJjMC4zLDAsMC41Ni0wLjA4LDAuNzgtMC4yNEw0LjM5LDEwNi4wN3oiLz4mI3hhOwkJCTwvZz4mI3hhOwkJCTxnIGlkPSJzaGFwZTM0Ny0yMSIgdHJhbnNmb3JtPSJ0cmFuc2xhdGUoNTAuMzAwNSwtMTQuMzUwOSkiPiYjeGE7CQkJCTx0aXRsZSBpZD0idGl0bGUyMTU4MDQiPlNoZWV0LjM0NzwvdGl0bGU+JiN4YTsJCQkJPHBhdGggaWQ9InBhdGgyMTU4MDYiIGlua3NjYXBlOmNvbm5lY3Rvci1jdXJ2YXR1cmU9IjAiIHN0eWxlPSJmaWxsOiNGRkZGRkY7IiBkPSJNNi4yNSwxMDYuMTNINS4wNHYtMS4xOUg1LjAxICAgICAgYy0wLjUsMC45MS0xLjI3LDEuMzctMi4zMSwxLjM3Yy0xLjgsMC0yLjctMS4wNy0yLjctMy4yMXYtNC41aDEuMnY0LjMxYzAsMS41OCwwLjYxLDIuMzcsMS44MywyLjM3YzAuNTksMCwxLjA4LTAuMjEsMS40NS0wLjY1ICAgICAgYzAuMzctMC40MywwLjU2LTEsMC41Ni0xLjY5Vjk4LjZoMS4yTDYuMjUsMTA2LjEzTDYuMjUsMTA2LjEzeiIvPiYjeGE7CQkJPC9nPiYjeGE7CQkJPGcgaWQ9InNoYXBlMzQ4LTIzIiB0cmFuc2Zvcm09InRyYW5zbGF0ZSg1Ny44NTU2LC0xNC4zNTA5KSI+JiN4YTsJCQkJPHRpdGxlIGlkPSJ0aXRsZTIxNTgwOSI+U2hlZXQuMzQ4PC90aXRsZT4mI3hhOwkJCQk8cGF0aCBpZD0icGF0aDIxNTgxMSIgaW5rc2NhcGU6Y29ubmVjdG9yLWN1cnZhdHVyZT0iMCIgc3R5bGU9ImZpbGw6I0ZGRkZGRjsiIGQ9Ik02Ljk0LDEwNi4xM0g1Ljczdi0xLjI4SDUuNyAgICAgIGMtMC41NiwwLjk3LTEuNDIsMS40Ni0yLjU5LDEuNDZjLTAuOTUsMC0xLjctMC4zNC0yLjI3LTEuMDJDMC4yOCwxMDQuNiwwLDEwMy42OSwwLDEwMi41NWMwLTEuMjQsMC4zMS0yLjI1LDAuOTQtMyAgICAgIGMwLjYyLTAuNzUsMS40Ni0xLjEzLDIuNTEtMS4xM2MxLjAyLDAsMS43NywwLjQxLDIuMjUsMS4yMmgwLjAzdi00LjY1aDEuMjFWMTA2LjEzeiBNNS43MywxMDIuNzJ2LTEuMTEgICAgICBjMC0wLjYyLTAuMjEtMS4xMy0wLjYyLTEuNTRjLTAuNDEtMC40Mi0wLjkyLTAuNjItMS41MS0wLjYyYy0wLjczLDAtMS4zLDAuMjctMS43MywwLjhjLTAuNDIsMC41NC0wLjY0LDEuMjgtMC42NCwyLjIzICAgICAgYzAsMC44NiwwLjIsMS41NSwwLjYsMi4wNWMwLjQxLDAuNSwwLjk1LDAuNzUsMS42MywwLjc1YzAuNjYsMCwxLjItMC4yNCwxLjYzLTAuNzJDNS41MiwxMDQuMDgsNS43MywxMDMuNDcsNS43MywxMDIuNzIgICAgICBMNS43MywxMDIuNzJ6Ii8+JiN4YTsJCQk8L2c+JiN4YTsJCQk8ZyBpZD0ic2hhcGUzNDktMjUiIHRyYW5zZm9ybT0idHJhbnNsYXRlKDY5LjE4NTYsLTE0LjM1MDkpIj4mI3hhOwkJCQk8dGl0bGUgaWQ9InRpdGxlMjE1ODE0Ij5TaGVldC4zNDk8L3RpdGxlPiYjeGE7CQkJCTxwYXRoIGlkPSJwYXRoMjE1ODE2IiBpbmtzY2FwZTpjb25uZWN0b3ItY3VydmF0dXJlPSIwIiBzdHlsZT0iZmlsbDojRkZGRkZGOyIgZD0iTTcuNDEsMTAyLjM0YzAsMS4xOS0wLjM0LDIuMTUtMS4wMiwyLjg4ICAgICAgYy0wLjY4LDAuNzMtMS41OSwxLjA5LTIuNzMsMS4wOWMtMS4xMSwwLTItMC4zNS0yLjY3LTEuMDZjLTAuNjYtMC43MS0wLjk5LTEuNjQtMC45OS0yLjhjMC0xLjI0LDAuMzQtMi4yMywxLjAyLTIuOTUgICAgICBjMC42OC0wLjcyLDEuNjItMS4wOCwyLjgyLTEuMDhjMS4xMSwwLDEuOTksMC4zNSwyLjYyLDEuMDVDNy4wOSwxMDAuMTYsNy40MSwxMDEuMTIsNy40MSwxMDIuMzR6IE02LjE3LDEwMi4zOCAgICAgIGMwLTAuOTUtMC4yMS0xLjY3LTAuNjMtMi4xN2MtMC40MS0wLjUxLTEuMDEtMC43Ni0xLjc5LTAuNzZzLTEuMzksMC4yNi0xLjg0LDAuNzdjLTAuNDUsMC41Mi0wLjY3LDEuMjUtMC42NywyLjE5ICAgICAgYzAsMC45LDAuMjIsMS42LDAuNjcsMi4xMWMwLjQ2LDAuNTEsMS4wNywwLjc2LDEuODQsMC43NmMwLjc4LDAsMS4zOC0wLjI1LDEuOC0wLjc1QzUuOTYsMTA0LjAzLDYuMTcsMTAzLjMyLDYuMTcsMTAyLjM4eiIvPiYjeGE7CQkJPC9nPiYjeGE7CQkJPGcgaWQ9InNoYXBlMzUwLTI3IiB0cmFuc2Zvcm09InRyYW5zbGF0ZSg5Ljg5MjYyLC0xNC41MjgpIj4mI3hhOwkJCQk8dGl0bGUgaWQ9InRpdGxlMjE1ODE5Ij5TaGVldC4zNTA8L3RpdGxlPiYjeGE7CQkJCTxwYXRoIGlkPSJwYXRoMjE1ODIxIiBpbmtzY2FwZTpjb25uZWN0b3ItY3VydmF0dXJlPSIwIiBzdHlsZT0iZmlsbDojRkZGRkZGOyIgZD0iTTEuNTgsOTYuM2MwLDAuMjMtMC4wOCwwLjQxLTAuMjMsMC41NiAgICAgIEMxLjE5LDk3LjAxLDEsOTcuMDksMC43OSw5Ny4wOWMtMC4yMiwwLTAuNDEtMC4wNy0wLjU2LTAuMjJDMC4wOCw5Ni43MywwLDk2LjU0LDAsOTYuM2MwLTAuMjEsMC4wOC0wLjM5LDAuMjItMC41NSAgICAgIGMwLjE1LTAuMTUsMC4zNC0wLjIzLDAuNTctMC4yM2MwLjIyLDAsMC40MSwwLjA4LDAuNTYsMC4yM1MxLjU4LDk2LjA5LDEuNTgsOTYuM3ogTTEuMzcsMTA2LjMxaC0xLjJ2LTcuNTNoMS4yVjEwNi4zMXoiLz4mI3hhOwkJCTwvZz4mI3hhOwkJCTxnIGlkPSJzaGFwZTM1MS0yOSIgdHJhbnNmb3JtPSJ0cmFuc2xhdGUoNjYuNDM3OSwtMTQuNTI4KSI+JiN4YTsJCQkJPHRpdGxlIGlkPSJ0aXRsZTIxNTgyNCI+U2hlZXQuMzUxPC90aXRsZT4mI3hhOwkJCQk8cGF0aCBpZD0icGF0aDIxNTgyNiIgaW5rc2NhcGU6Y29ubmVjdG9yLWN1cnZhdHVyZT0iMCIgc3R5bGU9ImZpbGw6I0ZGRkZGRjsiIGQ9Ik0xLjU4LDk2LjNjMCwwLjIzLTAuMDgsMC40MS0wLjIzLDAuNTYgICAgICBDMS4xOSw5Ny4wMSwxLDk3LjA5LDAuNzksOTcuMDljLTAuMjIsMC0wLjQxLTAuMDctMC41Ni0wLjIyQzAuMDgsOTYuNzMsMCw5Ni41NCwwLDk2LjNjMC0wLjIxLDAuMDgtMC4zOSwwLjIzLTAuNTUgICAgICBjMC4xNC0wLjE1LDAuMzMtMC4yMywwLjU2LTAuMjNjMC4yMiwwLDAuNDEsMC4wOCwwLjU2LDAuMjNDMS41MSw5NS45LDEuNTgsOTYuMDksMS41OCw5Ni4zeiBNMS4zNywxMDYuMzFoLTEuMnYtNy41M2gxLjIgICAgICBWMTA2LjMxeiIvPiYjeGE7CQkJPC9nPiYjeGE7CQkJPGcgaWQ9InNoYXBlMzUyLTMxIiB0cmFuc2Zvcm09InRyYW5zbGF0ZSgxOC45ODcsLTAuMTE0MjY2KSI+JiN4YTsJCQkJPHRpdGxlIGlkPSJ0aXRsZTIxNTgyOSI+U2hlZXQuMzUyPC90aXRsZT4mI3hhOwkJCQk8cGF0aCBpZD0icGF0aDIxNTgzMSIgaW5rc2NhcGU6Y29ubmVjdG9yLWN1cnZhdHVyZT0iMCIgc3R5bGU9ImZpbGw6I0ZGRkZGRjsiIGQ9Ik04LjczLDEwMy42MWMtMC4xNiwwLjU0LTAuNjIsMS4wOC0xLjM5LDEuNDYgICAgICBjLTAuNjIsMC4zMS0xLjQ3LDAuNTQtMi4wOSwwLjU0Yy0yLjM5LDAtNC40LTIuMTYtNC40LTQuNzFjMC0xLjE1LDAuMzktMi4zMSwxLjA4LTMuMjRjMC41NC0wLjY5LDEuNTUtMS41NCwzLjA5LTEuNTQgICAgICBjMS42MiwwLDIuNzgsMC42OSwzLjQ3LDEuOTNsMC4wOCwwLjE1bDAuNzctMC4zMWwtMC4wNy0wLjIzYy0wLjg1LTEuNjItMi4yNC0yLjQ3LTQuMjUtMi40N2MtMS4zOSwwLTIuNywwLjYyLTMuNjMsMS43ICAgICAgYy0wLjg1LDEtMS4zOSwyLjQ3LTEuMzksMy44NnMwLjU0LDIuNzgsMS40NywzLjc4YzEsMS4xNiwyLjMxLDEuNzgsMy43OCwxLjc4YzEuNjIsMCwzLjcxLTAuOTMsNC4yNS0yLjYzbDAuMDgtMC4yM2wtMC44NS0wLjIzICAgICAgVjEwMy42MXoiLz4mI3hhOwkJCTwvZz4mI3hhOwkJCTxnIGlkPSJzaGFwZTM1My0zMyIgdHJhbnNmb3JtPSJ0cmFuc2xhdGUoMjkuMDQ0NiwtMC4wNTcxMzMpIj4mI3hhOwkJCQk8dGl0bGUgaWQ9InRpdGxlMjE1ODM0Ij5TaGVldC4zNTM8L3RpdGxlPiYjeGE7CQkJCTxwYXRoIGlkPSJwYXRoMjE1ODM2IiBpbmtzY2FwZTpjb25uZWN0b3ItY3VydmF0dXJlPSIwIiBzdHlsZT0iZmlsbDojRkZGRkZGOyIgZD0iTTMuODMsOTguMDhDMS43Nyw5OC4wOCwwLDk5Ljk3LDAsMTAyLjIgICAgICBjMCwxLjAyLDAuNCwyLjA1LDEuMDMsMi44YzAuNzQsMC44LDEuNzEsMS4yNSwyLjc0LDEuMzFjMi4xMS0wLjA2LDMuODMtMS44OSwzLjgzLTQuMTFDNy42NiwxMDAuMiw2LjExLDk4LjA4LDMuODMsOTguMDh6ICAgICAgIE03LjAzLDEwMi4yYzAsMi4xMS0xLjY2LDMuNDgtMy4yLDMuNDhjLTAuODYsMC0xLjY2LTAuNC0yLjIzLTEuMDhjLTAuNTctMC42My0wLjkxLTEuNTUtMC45MS0yLjQ2YzAtMi4xMSwxLjY1LTMuNTQsMy4yLTMuNTQgICAgICBDNS42LDk4LjcxLDcuMDMsMTAwLjMxLDcuMDMsMTAyLjJ6Ii8+JiN4YTsJCQk8L2c+JiN4YTsJCQk8ZyBpZD0ic2hhcGUzNTQtMzUiIHRyYW5zZm9ybT0idHJhbnNsYXRlKDM3LjY3MTcpIj4mI3hhOwkJCQk8dGl0bGUgaWQ9InRpdGxlMjE1ODM5Ij5TaGVldC4zNTQ8L3RpdGxlPiYjeGE7CQkJCTxwYXRoIGlkPSJwYXRoMjE1ODQxIiBpbmtzY2FwZTpjb25uZWN0b3ItY3VydmF0dXJlPSIwIiBzdHlsZT0iZmlsbDojRkZGRkZGOyIgZD0iTTYuNjgsOTkuNjNjLTAuODUtMS4wMy0xLjgyLTEuNi0yLjk3LTEuNiAgICAgIGMtMS4wMiwwLTIsMC40NS0yLjY4LDEuMjVDMC4zNCwxMDAuMDgsMCwxMDEuMTEsMCwxMDIuMmMwLDEuMDIsMC40LDIuMDUsMS4wOSwyLjhjMC43NCwwLjg1LDEuNzEsMS4zMSwyLjgsMS4zMSAgICAgIGMxLjAyLDAsMi4xMS0wLjU3LDIuODUtMS40M3YxLjM3aDAuNjNWOTVINi43NHY0LjYzSDYuNjh6IE02LjY4LDEwMC43N3YyLjc0YzAsMC41MS0wLjQsMS4wOS0xLjAyLDEuNTQgICAgICBjLTAuNTgsMC40LTEuMjYsMC42OS0xLjgzLDAuNjljLTEuNzcsMC0zLjI2LTEuNi0zLjI2LTMuNDljMC0wLjg1LDAuMjktMS43NywwLjg2LTIuNEMyLDk5LjE3LDIuOCw5OC43NywzLjY2LDk4Ljc3ICAgICAgQzQuOTEsOTguNjUsNi4yOCw5OS42Myw2LjY4LDEwMC43N3oiLz4mI3hhOwkJCTwvZz4mI3hhOwkJCTxnIGlkPSJzaGFwZTM1NS0zNyIgdHJhbnNmb3JtPSJ0cmFuc2xhdGUoNDYuMDEzMSkiPiYjeGE7CQkJCTx0aXRsZSBpZD0idGl0bGUyMTU4NDQiPlNoZWV0LjM1NTwvdGl0bGU+JiN4YTsJCQkJPHBhdGggaWQ9InBhdGgyMTU4NDYiIGlua3NjYXBlOmNvbm5lY3Rvci1jdXJ2YXR1cmU9IjAiIHN0eWxlPSJmaWxsOiNGRkZGRkY7IiBkPSJNNy42NiwxMDIuMmMtMC4wNi0yLjM1LTEuNzItNC4xMi0zLjk1LTQuMTIgICAgICBjLTIuMzQsMC0zLjY1LDIuMTItMy43MSw0LjEyYzAsMS4wMiwwLjQsMi4wNSwxLjA5LDIuOGMwLjc0LDAuODUsMS43MSwxLjMxLDIuOCwxLjMxYzEuMTksMCwyLjY4LTAuNjksMy4xOS0xLjk0bDAuMDYtMC4xNyAgICAgIGwtMC41Ny0wLjE4bC0wLjA2LDAuMTJjLTAuNCwwLjkxLTEuNDgsMS41NC0yLjYyLDEuNTRjLTEuNiwwLTMuMDMtMS4zNy0zLjItMy4yaDcuMDJ2LTAuMjhMNy42NiwxMDIuMnogTTAuNjksMTAxLjkxICAgICAgYzAuMDUtMC44LDAuNC0xLjYsMC44NS0yLjE3YzAuNC0wLjQ2LDEuMDktMS4wMywyLjIzLTEuMDNjMC44NiwwLDEuNjYsMC4zNCwyLjIzLDAuOTJjMC41NywwLjU3LDAuOTEsMS4zNywxLjAzLDIuMjhIMC42OXoiLz4mI3hhOwkJCTwvZz4mI3hhOwkJPC9nPiYjeGE7CTwvZz4mI3hhOzwvZz4mI3hhOzwvc3ZnPg==;" vertex="1" parent="1">
          <mxGeometry x="312" y="190.64" width="62.77" height="62.77" as="geometry" />
        </mxCell>
        <mxCell id="x8RBoShG9JMl1PIIcemX-36" style="edgeStyle=orthogonalEdgeStyle;rounded=0;orthogonalLoop=1;jettySize=auto;html=1;exitX=0.5;exitY=0;exitDx=0;exitDy=0;entryX=0.5;entryY=1;entryDx=0;entryDy=0;" edge="1" parent="1" source="x8RBoShG9JMl1PIIcemX-23" target="x8RBoShG9JMl1PIIcemX-22">
          <mxGeometry relative="1" as="geometry" />
        </mxCell>
        <mxCell id="x8RBoShG9JMl1PIIcemX-23" value="" style="shape=image;verticalLabelPosition=bottom;labelBackgroundColor=default;verticalAlign=top;aspect=fixed;imageAspect=0;image=data:image/png,iVBORw0KGgoAAAANSUhEUgAAANAAAADyCAMAAAALHrt7AAAAw1BMVEX////zdyZOTk6enp52dndhYmJCQkI8PDzybABFRUXyagBKSkq7u7vo6OjzdiNBQUHx8fGampqUlJTm5uY5OTm0tLTzcxvzcRTJycn39/fW1tbycA7v7+/FxcVaWlppaWr+9O+mpqb849f97eX2oXX1lmL70r/R0dF8fHz0gTr1kFj6x6/5v6T71sV5eXn4tZT0iUyIiIj3pXv839H96d/5vJ/3rIf0hEL1lF/71cMrKyv2oXb4sY7zfC/2m2vyYQAlJSWYM4IVAAAQiElEQVR4nO1dCXequhZuqWVUPFUElapYp1q1dajae271vv//q14GVIYAAQJoV7+1zlmtDSEfe8jOjuzc3f3iF78goTVp9B8eGs3nogfCBu1ar1eC6PVeO0UPJj0qK8wGo1dqFz2glGg66SBK/aKHlAplLx/A6KHoQaVAx8/npmVUIfEBjG7WjlZEPgBFDywh2mQBARHdqPeuBQmo9F700BKhFSQgIKJK0YNLgkkIoZvUuUYgn1LpJj13P4RQrejBJcHDL6Erx4+zIV+gfcFternnEEL1ogeXCIGhXCHB3GAznn/s/h29LSHeRsPdx3y8GcTpIlDneuWsRk1C62W2+1JlUTRNQwdQIeAPhmmKomy+7WYbi66r9AJqVep/ktHAGMzWU8DE0NX7QOi6KcqH4ewzuruAcLs3oWTTKHFcl+vWklmcNRvqshlGxQEVsDKOsygN7BNXrJRr8AbXfUTocqtWXDaf2z01mYusTPnw8RLa7xMhp7CiG9LKpoModWOF54PtQTZikjlJyhDV7zDl88mo9xSfD6REb0qzZVI2J07ydG4Fdj/puSjRTqll7tFNiNKRDHaimYaNzckUh8Gq1yidKPV6DVpjcMsHMqJ5Eps3WU/NBkOXl+PA+7Qbtdf311qDPttT9hF67EVeNJ6KrOhAqOL9jHrAUXj18XnkIvwCoJNe1zKjxPkJdZthF2z2zOlgSodgxYuBPyRCjeD2gy85CzqY0jJ8ZsqC0I6ZKyBSkodWakYkQkFubqwbGdKB0MXUptQjOAVyRGeNMtM2B8RlrHWGH32/234kNhwz9dTB0OV5KkIVn86RTego50IHQnyz0jCq+UREaPSi5yMeDN38Jw0jrwURooxtHtbjgCrvUhB67jplxBFc3EjMlQ6EuYy9MLug9X5m1O365WMdsnbWJOg6xUI9EM0S1wXgHgn+YJNJpBMNVU4VCj03G40Oaf6Z5Ww+DsjbNIwCsM3PW/shpnENZOzydwcuRkfGfNbF8gHO7ospn2F8PqquGyhPiiDLsv2TaRqGHjfZBWC8seRjxiFioGzv/mv9vZ2NF5uXz4GFMfh82SzGs/n3erQ35KjsaoaMKPUNUIFEhh8zqnz8YDPb/rs3ZZE2OWmMGPH5juYDs7riYThfxI/4rcUc5cIpWJlDJnzmEf4aktGP802KCAVM2vOjHk2Kifceh/KBZNaR+XY6DMZrVTZDg/mUKySIl2A+qi6KXzQ7IjEwmH2JYoig5FTLCQArMMkLNGSdtncyFmsjeE0sptSGPblnIJv1hs3widiszQBOqpqq4yFpvaCa8nHBaOTBWBxlonboaaajGcGAdHE6s1iNOhStGTFxLn4k7nHg46Ma8jBLVfPiZUjYd5ITj+Dg6Us1zQ+L4XBpYH2YXs1T9YR97QwPHTX9LJAEs3vPUllPFgNtZDcdhjs3cTE7uCklSxOrzj5MvTg6EDPVpXiiFb8Lp8IZYhaL+niYm44BJVA6R8ijyutUgScrOHdw4ieCpicJq+KSbbiWHIO3synF9nTz0xpIN4s1HjfGxklIxne8K098xJGVycgSY3jKDsqxolTbI+gik+1bpljYKyY9ThrIjnlSbs9kBXvHIE4EdNSRcyveV5MxR2qnLqkv+JSRN2CwtZ4RPlX4xEXqNcwINDf2VoYjSo03E4hoT9kYCkhkkzHKDjuZXkTAguTki6i8ABaflFYEXJx8TZNpEP6RVZnKzHdG6lxRPngR6WJUUc4+A8IGLyJNuDD7L8+kQTp8yhQRnXEb+obx8l9kk0UxeYOk+CfSfd2OvmHc2nh/8Ytf/OIXV4wfUoQIo90vaZTvOd0EOEFSpJt8GToAXY7jfgldM34JXTuulVAr6dYYA0J/6p6bP9cgLt8/b3WaAJ5vPHceIC6/t0GTDp4QK/0er2mCUmo4X4Ct9xsAvlfrK+UOALpZs1wudyAhZdXsdM4fO+7Rf+8qSrfU9303vgyBfmq+89pfz/vhFU2SJO1y6z9/q9Wq5vlGek0AjQTH7xpoA18qeH7VJIWDUHjNWS5E4yWJ/+t9yfdJ43n+LxphSQA/4iurCJrrxehOV8AdK5LgfSlQqvK8Bof+KIAmVQ/higCu4h2E0O9eQhLUjcvvfQlfU9YwGwxJuvT9hK7wflMftla66Md355XoasfzeH4UEBkFc3JzvXsEn1WBCAX0V3aEGnd9DY2Er/L26LSz+CvoT113N21H3yXJHi4aNwC/crSDf+GF3moFBAVv4Xq3tgflcvcs4KuZEGpI8PE3waAVofvUaTZW6L6A0dn44F05oe7vRsBG/FR6f39FjLqlHsLZRusaUjX8svRzDf7GO2WECcH/FV4QfDaUiBAPjRmy6trdtdB9OYU7NelUPWoEAHtRXj0f+LxcC37KX8qUtasu2QPhAioSlLbQ61R8HjYRoTKPBs9VHQ+uiRjx5+eMRMY7e5nArgXnA+VJhKB1SU6JIIl13Q24V6ClxPoXyQmBZi4BdJBSa6cn9gCvqTa9vSjOS0iE2lCR3e/N9UE74dIT0lTwj1woIQUhxfMa/EpxXorcgkvBkBK6qnCQCEHb0DzzoOTqCZuetw0DQt4u/yAK54eL3IJ2UfEJsgXXm/MEQlC/FG9NB3j/qpuQFFQkK4UN+UpJIBFpJ01oVt09wb96hEogdJriXID3E87uGcYXXgfKgpDvtpjCxWwkl8CQxlXd1xAIQbkK3gIIsOPL7RSfu2FDyP+M0LWXASK3cG6F2AruCwiEYBfVeqXuRAXNe+d2JPtlQsgfY/Mu5UZuQTrlQKDGeRXfT6iOXGVVcENy9cuFmRBbQo/QTC5TSElxXIYE5AlT/ISQ5yDi0i/n85aZEYIMHP4V29Tk8rMntiMQ6lwXoZ5bQji6xgSRxnmjbz8hPCEIBGjnB5UjIbQCdRCCPtieigSnRw8m1EAfVZ79qJwvTkDI+yhpCVU9A3zWTk8HqpIrbAgjVPW2cyMeoZbgu0kQIV8s9ezpyzYq6GHh7F71laMJsCEhPN2dgJDiqRO2UkiEfPMQHo3zY+QKNDA+zd1BICG0BqyGF3+KRwjdxBPtoi6cc3NApICjU9dHdrwKiRHGEDCx+nUzDaFHxWcf6LH5YznvZI2DU7dwoVsAQR/UWc1f0QnZnHv3AUWehKbJCSF7cT99NEE6pWY7V88Ca4VCHffcidyCcOePSxEI6o1WgcGBTQJC9tTmaNJAn/gJcZxLjhON8ysrXn/CqI5kGJz3VgBdpKVhFXRjEmrhVM7lufVxeoVASOk6GGG91LxpQfzEiS7BNjqPTNvo/kIIo5iEsOZwkl3ztd2rAi5EQgqnSOfHjlNavL+MIpYCeQRlrA1u/19DH0quaiLtlcN3hhOq+wghtUcJqtfVqwJTZApi7QjE7AUeVKRuv9lud2oSfgqEGjp9O8FFnFswIWHV7z89nqVdkuz7w67bk3K/xAuCY4RxCd01NPup4lSgAmYWwa3rdqTwiObbqlDl8aBJfLDv4xRy9fw+ZqTAdPSFccmOUCWUI+Ylz8KDgpBnLng4MUKXwgJ6yBB8hO56ztjYm7E9D08heMQTutLpcueE3HelmLF60xJqe+MviI5UtVPwEk7BoyS7n9BdQ+DPDR8DCinCNLfP+Z3xao9dcbmTeum0CYD+xmtdxwgFmNoP3DufeFIZpyGXJE3Qqr0+Nli4geFocwlOWw3UUOo9BFaxhUMKCWbaK7haUEp9t2uo9x/tZUO1u2q4Op8AeDd8PGMj3q/1HFjy1B1tt0I3vNC8poQ0CAbMLFTiljDuuzIZlAhaPpCABBRSJZE1UOwUsQDxIQahB1/+N2Og+1FWFT6DnhCKh4QcC83jbFloIVACqAmhSSHYxWUA7BfjXkVLqI7mqaC0egaooNA2vkZQEiqjCbqa2xcRKk9oLzN88UEEFaFKCa8LczoIYNLjBDsIjF+snoJQe4VDAMWbXMwKbTte46NqHZNAQcheRRHj1UyAEwCSkOhsOQpCOOsuhKc7mAJ+GaTbT/YtncZfEGT9L/xaKH0pz5NOGuVJ4pMeWig3G96mpnE5Bjw5oH6zh/BdI6yiBxATVlQDxsW7soYV/b56kvolxcGwIpvs9Og2V4MpRbXQgXywMh8IIyypaip8GfdWxgNhhL0xpWm2EXWdTY3CbGFNaQv171VVvN7iECcMVJ22eN5YTFsROgfAWtkm7UvEsAwbzVvWBQLWylYN2tZjWJbFZFmblzVQbVyTvggMqiOlq9dqSNYelh2iF9Dd3UK8v+I6OPZBGrFqXC1xdSNxaWU1quSwD9JQD3Eu+rSLsTE4koUxFqeDNOir+iD8e6oSlvpIFqZoHU+1vuKWO7XOJan1KyqJM7vUPY1XvAxde662Z95fR1WPF8cRW2b8aXJ5qR/I5giqlLCOjnMn1Pv4HbjK0OrysVhTstxHbCUqRrt1Vd7X5WFxlKxv0VVE1lgn6sZTmhpQKibf4KWTSOFQR97i+7r8lX+RlsFa9tbIpiuJRYC/XD2sTc10uFFYEE6qTFFFllA/XDXNXV7GZG3vCQW3U1UQnxJqkquGvMxDTOMR8YxXVU9TFtdnRicxycdsl7SbtRhQtD6xAWEsgk5J0E3xOM6ohPAm5FiB1LX85sHnjABOb3PW9mTNjmbIwQ9m+rM51mEn2+imfL8eW+l5YCy+p+FHcxgsTiH6Cj9aTYUHYa9T5/gH4++9LEac9KzTFgINxzLybEJ0uM3b9zgZq8FiOzJEM/rYaj3WIjUEU6rTFtFBStPhx/jFouzX+hxv10sTCIbqBCJVpe04Cq0D9fmR6HwoWZyO1h+zfzafFmEI1mCzmG13x70uxzojSqXYOqGFRc/oxEtH53fBo7v0w3S/hNhPD8De0GFeJjzGK945XqrJ0qHGZuQciRPJezEYTxB0dpQZdGb2c8ayiIMxz3ymzPnc3R2LO9vPpK8VHgffRZ0mmVmt7ILO+8wwMfhi5O8a1Jg533iwljEOYWQC45Dx+vg7X7WTsy81v8nxHO2cDtI45iWk3LanxuHnIzJCrntTw8yFpIpfVn58gCUdsnV3hp77FyXmYnbBXTGbbK2dP0vLiM7QKoAPgDXMgJIufxX4pcoBa0qATsGbhYMdMQOdCPCkyiv4ymtrqwafBxsDupj/SZVBWIzIZ6fGEs5bLo660p5MJu3ot1as+T656qmGeNjmsek0aTzZqPUnkTsNg21EYpoMmEn+yMNyWp3a08MFT7Vy9OaJNRuJlGlQTMYQxS/mGxhktJ+cdDClgLfS3XiZj3Q5MiOKMqzm2za3TeiGlw6iRPvSzGD8MVJF0UQJUjcRwATmwPXEqf1k6JP4AEZx3nJsfY7n38e3gwlzv6L93+HtuJvTp/NZIYAPQLL3Ni0MtoOMAaK+xdS6a0I7mA9gROUZrgthfACjqzg9Nw46EYTyfN2RCcL5AEZFDzAmQi0IEbqxdx4bEXweHm7M0UUJ6NZ07pmCUOLXkotAnYJQfmUrGCDSJ9yaV5j8NEI/TkI/zoZ+nJf7cfPQz4sUflwsd1f7WRoXvR6KWw6seEQQKnp48RGeU7g1C4L4aVmfkLxcrEzjNYFF5vS6kC63fY2Y1Hy7DzfpDy5old37Q0+dm8swetGa9E87eE8UO3i3gUp70qTZY/1FZvg/XddyAWqutWgAAAAASUVORK5CYII=;" vertex="1" parent="1">
          <mxGeometry x="303.39" y="295.86" width="80" height="93.08" as="geometry" />
        </mxCell>
        <mxCell id="x8RBoShG9JMl1PIIcemX-49" style="edgeStyle=orthogonalEdgeStyle;rounded=0;orthogonalLoop=1;jettySize=auto;html=1;entryX=0;entryY=0.25;entryDx=0;entryDy=0;fontSize=18;" edge="1" parent="1" source="x8RBoShG9JMl1PIIcemX-48" target="SZY12_XKgGBlkoAp8IEY-1">
          <mxGeometry relative="1" as="geometry" />
        </mxCell>
        <mxCell id="x8RBoShG9JMl1PIIcemX-48" value="" style="shape=image;verticalLabelPosition=bottom;labelBackgroundColor=default;verticalAlign=top;aspect=fixed;imageAspect=0;image=data:image/png,iVBORw0KGgoAAAANSUhEUgAAAQMAAADCCAMAAAB6zFdcAAAAgVBMVEXj+f86uefn+/9Hvuo4uOnI7/nc9/7l+/8tt+ft/P+h3fQ4ueZ5zvDr/f/H7flXxOlvzO7U9PyK1PCp3/R/zfC86Pi05fbL7frb9/xlyOxxzO4ptuSZ2vR/0PBRwOmd3fW46PeN1/Gn4vNHvuZnxu625vqw4vd2z+yW1vNbwu2d2/VwtaTaAAAJ50lEQVR4nO2bDZeaOhCGIUQSjEEjFxUj7Lru2rr//wfehAkQPtzee86ibc887Z62GiB5mUxmJmkQIAiCIAiCIAiCIAiCIAiCIAiCIAiCIAiCIAiCIAiCIAiCIAiCIAiCIAiCIAiCIAiCIMifAql5YgfY03sQXDPD7okdULYDWf48EVjKqfnFF+xZPSBLTg1h/KwOBGwhwjAUPH2eBhk3PaBR/DRDYAuOGqAGqEGAGlhQg99CgyVqgBqgBhbUADWwoAZ/kgYmyWeM3G8ERYCvbsLuNLmngSsrPODdTGnApHm2+Unabspgn76+vub7g5zqlP1+l31m+Z5J8zVJ6uv7TUic77Ls6jdJ6iaTGrCEqfxqm8fzV1cmNCBqVdQcVd2CBNeN4JxrzWm4Po1slrHd0X5vicqUyF199afXjgRva940+bEnyWfdJLNNJjRgJC8v0FqLaruf2RjGGhBV0dCiI2XfWHwSlIctXJ8PPRXIruLd95zf8lLbQVXEaxL5d+CFKuy/9SqZ1IDkN++OIdUrNastjDQwEgjoalVLcI24CH2E+cJ/xVse9uFR/ce6acRIOWjCRX1LOqkBkycdit4zOc3kAzUgyr0yXsTmI7bV4RABBnJnfC2dBsc7TaY1GItq0OckmI2BBkYCZwXHwH6SbFoN7Nxs/vrejI+c7knQanBfpUkNOgmEeZ4tNMIjz/NNh74GrQS6YPUHDD4QPCzOu+XR2Yjgmetw2nSYcl5VXHvDdRqQN1BRGLcZmibcGPoXGsjMNTeGuEwXH2XjSfTHbCL0NCAqbCYCa+bGjlvXcI3tWi2DzE3UCr6Wa2cbvNiZRUSl5wvva8AC4SSgx/wQHFRehvy+BkRRASoXyizDjCWHLATRosMjNCD7CIaoi6BdJuSKi6yNCmTqurivNXt1w4leTThgZGMJyURPA3KCQfEqtXGBHVXQzB8+ocERzICfTFgAlijVBT7azmUIngaeO2Te4w4v/jKQwHTVy7rH7xzsdt96LOZUau0AFgladQsqkx9w2XhtbOYW33rrAEmdf1AzhQmdBo0vELQ49B7Wk5/t66WSl4l1Fu4dX/0m9expNCB7N6jUbyJf+LQdkBJc4Jr5PSA/oflpprWh1YCoi5va5RdyMybhxb5L6+543eVK9q5INrTT4AwaHPvdJ3UMMtYghqnPBxtvMfQsmtsO4mZRvLcIMZJIpvYLaFeY7pMVzIvTIDXYtnbASAGD2vW7Dx+PNGB5Y0LWHXZIWF7n2hBsNMgrcIf8ZUoCsyTE6XVbVCZKqF8V39ju35ydDwbYaRDEYDU8/k8aEJgjtFR75RMv+XjOfbcGIRXwBvRpIihNgnwb2QQmbOEb2Q4wGuyW+nagoHk1uKMsJv1B4sIpl6C1NOvI5Pv5Ng1aGBvaGwmWkBT5IbzVoBngbXCFr4Hz88dBk3savMMd+wlK99CZVseBBnw79L0mh5qIdUEDcOKbQc98DWCC83LQ5J4Gq7uRN7R/jB3w5cDB5bzXgMJSABrwyZ55GpD/p4H8WoPwOE/22GngDLC/LpFc09YybQGkKgUdaHD8Ng3IunvSFMPbfLsG7fv2SiTsEDV5GxfH5auKg2Td2oFbtotf+gMxlOmeHTifWJXlP4ZywGo3swY0g4UppDdvOC9QQBFildZVRtPPqtEgCOq/hpf760IAYaJYD556zw6WMNG2kiQGMmIWCVoN+Kt0EaygP9ppBwMORZS2JVIZNXMhYPVIQr2Yig+oHx8INdRgOj5IaSff42hipDdpU0SXtC0bEYibCF60Ly+tHbhyhx4UuiR8DLHyuwt++zLdsQMjGR0+7wF0+YKNBCqX0DV+kYEGhTdITwP2Aa+t6mtAiu5lunwBpk73UAjMJ3KmlWv+HA3si2J7twaIJl0GM/DL5J4/ME4RXlvPVzVpUq1BEyT13yz5cS9vhIKE6CzR9fKBdWXp8l7tnBjYAS+7HpGYtv4gkFAtFaKrMDD54lYSV0MBoxBe/YDILTSZqKEwWB1hbnb3XGRz7jA0GuxdcWwLCwGHcMT5RJ1CdsyITKHyDhoQ51CprSPZVI8kqi0iOw1y52OqNLEpIGESNhc6DfyzOI1XDOlKyTpsN8+MzyY0kPOpMNCABe8UXsRnPcizKxRlsVkaWfxRcPcKYYJLV/oS/H2Z71WaHbuosqmpNiPWx6vJBtPlpi28TmjQOFRzR/7juojjQGVHbd6LiY9mE2GggQn+nEvQr6SuGrnuRutyW0RddR00IKoZsUn0TKo3UVdub2hGpU0KyLsNiykNWNBoZhZpGkUX4VSl5WzbLON9JlfHCIWVRZ69/YVufK2jJ7vxHkxfg9bHjJnSoBZhMm+cb4dhvN8olzAsejH9YWR6k6hd7OTbvRG2gc7dJn2f2DhNxn5Mtefhbq7JwNLRme0me6N2k4ENd8q0EL4G5jWHgy4LqLZ1wR4ZNwmH8UF46bYPSCZG1qULNd9cSOsdbk8DxuJKd3kaY1s7C0T922ROy7qixLuwiajWEVKr5iU/dXFi06To3ICZ4Ot9PelbDayb8KtRJDbPpPBQ82O+vuWj2s43Ei9NRvbzp1+7N12oKX9C0KDO61BTI8BlswvktbRfLb3zCnK/rYSZxFrTyuR2EkrhN2/6mhX+51oYl6h1eCtzKT0NmDqV5fZ88jvFZJwdjTu0O3QiKrbpjCtjPYRklJGZNZnUaZv7Z8JUqhb5PraZkz1AkvQvMKu+Shf7NFWBaQFpBO0nPuYq02RhmjBzLamLZnTlHKuU45zQhAWL3FyQq5jMrMB/xERAvz5txGAgbqM5Grnx7nwR7C/QX9TGGGG/eOpvi9yEA38wAlJq2Gv7O4GaQfGFBgrWhe1srv7JuH1T/UUh3MRhtQbLuaKehzM4qCYhx9DdphAb7Ns2EYh+bKlkPthG9IbCFEyFsDuzdLjdejo1m+nznap4KBBGest3s8vauQMS3zS/eGcYSHyB0stMpfKHs7ExJD8FxMZxNtd/d/WCZiqweG0mPw3fYJUzq93CbVzR552R/k7IxtWdLp+LmAWHdOv2bpsDS7aqqiFCrrKFsX2Vl+6omXhs0XA2WLsXabegqkuzQyy6owJkbQN/g8m2oiqyQTekFlp9ees/Bsamdwj5Z3dAKS6iFi9z5B9/TXDATny0VS742YtwWbDSwuGplP0dM6FG9s5jw7Tob7owshzWD3j4xP/qPwPkcAq9IqGm5eiUuUnGdVuKo5qLc/BXSWCQ8duqqud6VK0yNZUI2XpAfXopitblLvg9kuHvxSTNcX146m6ua/Nq1TR5cO8eha08sq+3xOpjdn9oPQBBEARBEARBEARBEARBEARBEARBEARBEARBEARBEARBEARBEARBEARBEARBkP/Jv0mQk91bLT+BAAAAAElFTkSuQmCC;" vertex="1" parent="1">
          <mxGeometry x="95" y="313" width="85.44" height="64" as="geometry" />
        </mxCell>
        <mxCell id="x8RBoShG9JMl1PIIcemX-52" value="" style="shape=image;verticalLabelPosition=bottom;labelBackgroundColor=#ffffff;verticalAlign=top;aspect=fixed;imageAspect=0;image=data:image/svg+xml,PHN2ZyB4bWxuczpkYz0iaHR0cDovL3B1cmwub3JnL2RjL2VsZW1lbnRzLzEuMS8iIHhtbG5zOmNjPSJodHRwOi8vY3JlYXRpdmVjb21tb25zLm9yZy9ucyMiIHhtbG5zOnJkZj0iaHR0cDovL3d3dy53My5vcmcvMTk5OS8wMi8yMi1yZGYtc3ludGF4LW5zIyIgeG1sbnM6c3ZnPSJodHRwOi8vd3d3LnczLm9yZy8yMDAwL3N2ZyIgeG1sbnM9Imh0dHA6Ly93d3cudzMub3JnLzIwMDAvc3ZnIiB4bWxuczpzb2RpcG9kaT0iaHR0cDovL3NvZGlwb2RpLnNvdXJjZWZvcmdlLm5ldC9EVEQvc29kaXBvZGktMC5kdGQiIHhtbG5zOmlua3NjYXBlPSJodHRwOi8vd3d3Lmlua3NjYXBlLm9yZy9uYW1lc3BhY2VzL2lua3NjYXBlIiB2ZXJzaW9uPSIxLjEiIGlkPSJzdmc1MDMyOSIgaW5rc2NhcGU6dmVyc2lvbj0iMC45Mi4zICgyNDA1NTQ2LCAyMDE4LTAzLTExKSIgc29kaXBvZGk6ZG9jbmFtZT0iYXp1cmUuc3ZnIiB4PSIwcHgiIHk9IjBweCIgdmlld0JveD0iMCAwIDYyLjc2IDQ4LjQ4IiBzdHlsZT0iZW5hYmxlLWJhY2tncm91bmQ6bmV3IDAgMCA2Mi43NiA0OC40ODsiIHhtbDpzcGFjZT0icHJlc2VydmUiPjxtZXRhZGF0YSBpZD0ibWV0YWRhdGExNjgwNyI+PHJkZjpSREY+PGNjOldvcmsgcmRmOmFib3V0PSIiPjxkYzpmb3JtYXQ+aW1hZ2Uvc3ZnK3htbDwvZGM6Zm9ybWF0PjxkYzp0eXBlIHJkZjpyZXNvdXJjZT0iaHR0cDovL3B1cmwub3JnL2RjL2RjbWl0eXBlL1N0aWxsSW1hZ2UiLz48ZGM6dGl0bGUvPjwvY2M6V29yaz48L3JkZjpSREY+PC9tZXRhZGF0YT48ZGVmcyBpZD0iZGVmczE2ODA1Ii8+JiN4YTs8c29kaXBvZGk6bmFtZWR2aWV3IGJvcmRlcmNvbG9yPSIjNjY2NjY2IiBib3JkZXJvcGFjaXR5PSIxIiBmaXQtbWFyZ2luLWJvdHRvbT0iMCIgZml0LW1hcmdpbi1sZWZ0PSIwIiBmaXQtbWFyZ2luLXJpZ2h0PSIwIiBmaXQtbWFyZ2luLXRvcD0iMCIgZ3JpZHRvbGVyYW5jZT0iMTAiIGd1aWRldG9sZXJhbmNlPSIxMCIgaWQ9Im5hbWVkdmlldzUwMzMxIiBpbmtzY2FwZTpjdXJyZW50LWxheWVyPSJzdmc1MDMyOSIgaW5rc2NhcGU6Y3g9IjQ5LjM2MTQ4NiIgaW5rc2NhcGU6Y3k9IjEyLjA3MjQ5NyIgaW5rc2NhcGU6cGFnZW9wYWNpdHk9IjAiIGlua3NjYXBlOnBhZ2VzaGFkb3c9IjIiIGlua3NjYXBlOndpbmRvdy1oZWlnaHQ9IjEwMTciIGlua3NjYXBlOndpbmRvdy1tYXhpbWl6ZWQ9IjEiIGlua3NjYXBlOndpbmRvdy13aWR0aD0iMTkyMCIgaW5rc2NhcGU6d2luZG93LXg9Ii04IiBpbmtzY2FwZTp3aW5kb3cteT0iLTgiIGlua3NjYXBlOnpvb209IjUuOTY3MzU3NyIgb2JqZWN0dG9sZXJhbmNlPSIxMCIgcGFnZWNvbG9yPSIjZmZmZmZmIiBzaG93Z3JpZD0iZmFsc2UiPiYjeGE7CTwvc29kaXBvZGk6bmFtZWR2aWV3PiYjeGE7JiN4YTs8cGF0aCBpZD0icGF0aDUwMzI0IiBpbmtzY2FwZTpjb25uZWN0b3ItY3VydmF0dXJlPSIwIiBzdHlsZT0iZmlsbDojMjA3NUI4OyIgZD0iTTE1LjY4LDQ4LjM2YzAuMDctMC4wNyw2LjQtMS4yMywxNC4wNi0yLjU3ICBjNy42NS0xLjM1LDEzLjk3LTIuNSwxNC4wMy0yLjU2YzAuMTItMC4xMS0wLjc1LTEuMTctMTAuMjItMTIuNDZjLTIuNTItMi45OS00LjYzLTUuNTYtNC43LTUuN2MtMC4wOS0wLjE5LDAuODktMy4wNCwzLjczLTEwLjgzICBjMi4xMS01LjgxLDMuODctMTAuNjUsMy45MS0xMC43NWMwLjAzLTAuMDksMC4xMy0wLjE3LDAuMjItMC4xN2MwLjE5LDAsMjYuMTQsNDQuOTEsMjYuMDUsNDUuMDZjLTAuMDQsMC4wNi0xMC42OCwwLjEtMjMuNjQsMC4xICBDMjUuMjEsNDguNDgsMTUuNiw0OC40MywxNS42OCw0OC4zNnogTTAsNDMuMDFjLTAuMDUtMC4xMywwLjU0LTEuMjksMS40NS0yLjg4YzAuODQtMS40Niw0LjQyLTcuNjYsNy45NS0xMy43N2w2LjQxLTExLjFsOS4wOC03LjYzICBDMjkuODgsMy40NCwzNC4wNCwwLDM0LjEzLDBjMC4xLDAsMC4xMywwLjA5LDAuMDgsMC4yNEMzMy43NCwxLjQ4LDE0LjMsNDIuOTIsMTQuMTMsNDMuMDVjLTAuMTksMC4xMy0xLjg0LDAuMTctNy4xNSwwLjE3ICBDMC45MSw0My4yMiwwLjA3LDQzLjE5LDAsNDMuMDF6Ii8+JiN4YTs8L3N2Zz4=;fontSize=18;" vertex="1" parent="1">
          <mxGeometry x="729" y="464" width="81.77" height="62.3" as="geometry" />
        </mxCell>
      </root>
    </mxGraphModel>
  </diagram>
</mxfile>
